<svg width="95" height="65" viewBox="0 0 95 65" fill="none" xmlns="http://www.w3.org/2000/svg">
<path d="M76.3319 55.9758C72.4974 55.9758 70.2232 54.0039 70.0491 51.1636H73.7156C73.7156 52.1104 74.2377 53.3707 76.5059 53.4491C78.0781 53.4491 78.9482 52.5023 78.9482 51.7908C78.7742 50.6872 77.376 50.6088 75.9839 50.3676C74.4117 50.1384 73.1935 49.8188 72.3174 49.4269C71.0993 48.7937 70.3972 47.4489 70.3972 46.0318C70.3972 43.5051 72.4974 41.5331 76.1579 41.5331C79.6503 41.5331 81.9186 43.3483 82.0866 46.1102H78.6002C78.6002 45.4046 78.4262 44.2166 76.3319 44.2166C74.9337 44.2166 74.0636 44.4518 73.8896 45.477C73.8896 46.9002 76.854 46.8218 79.1223 47.3705C81.2165 47.9253 82.6147 49.264 82.6147 51.1636C82.6147 54.6371 79.8243 55.9758 76.3319 55.9758Z" fill="#A1A7B3"/>
<path d="M9.52002 32.6717L21.5575 25.6463L28.0143 36.7783H11.7883" fill="#A1A7B3"/>
<path d="M34.833 55.5571V41.5064V55.5571Z" fill="#A1A7B3"/>
<path d="M34.833 55.5571V41.5064" stroke="#A1A7B3" stroke-width="2"/>
<path d="M3.93295 48.7395C3.93295 50.9466 5.85319 52.7617 7.94145 52.7617C10.2157 52.7617 11.9559 50.9466 11.9559 48.7395C11.9559 46.6107 10.2157 44.7172 7.94145 44.7172C5.85319 44.7172 3.93295 46.6107 3.93295 48.7395ZM7.76743 56C3.93295 56 0.620544 52.7617 0.620544 48.7395C0.620544 44.7172 3.93295 41.5573 7.76743 41.5573C9.33962 41.5573 10.7378 41.9553 11.9559 42.8177V41.7141H15.4484L15.4484 55.6804H11.9559V54.812C10.9118 55.602 9.33962 56 7.76743 56Z" fill="#A1A7B3"/>
<path d="M54.359 36.7751L37.611 7.4194L49.6485 0.315643L70.585 36.7751" fill="#A1A7B3"/>
<path d="M19.985 48.7395C19.985 50.9466 21.7312 52.7617 23.9995 52.7617C26.0877 52.7617 28.014 50.9466 28.014 48.7395C28.014 46.6107 26.0877 44.7172 23.9995 44.7172C21.7312 44.7172 19.985 46.6107 19.985 48.7395ZM23.8254 56C19.8109 56 16.6725 52.7617 16.6725 48.7395C16.6725 44.7172 19.8109 41.5573 23.8254 41.5573C25.3916 41.5573 26.7898 41.9553 28.014 42.8177V36.9019H31.5004V55.6804H28.014V54.812C26.7898 55.602 25.3916 56 23.8254 56Z" fill="#A1A7B3"/>
<path d="M23.6534 20.1245L35.8649 13.1836L49.3006 36.7743H36.561V40.2478H33.0745V36.7743" fill="#A1A7B3"/>
<path d="M80.3524 40.3572C79.4763 40.3572 78.6062 39.5672 78.6062 38.6204C78.6062 37.6737 79.4763 36.8837 80.3524 36.8837C81.3965 36.8837 82.0986 37.6737 82.0986 38.6204C82.0986 39.5672 81.3965 40.3572 80.3524 40.3572ZM80.3524 37.1249C79.4763 37.1249 78.9542 37.8305 78.9542 38.6204C78.9542 39.4104 79.4763 40.122 80.3524 40.122C81.2225 40.122 81.7446 39.4104 81.7446 38.6204C81.7446 37.8305 81.2225 37.1249 80.3524 37.1249Z" fill="#A1A7B3"/>
<path d="M80.7124 39.5732L80.3644 38.7833H80.0164V39.5732H79.7523V37.6797H80.5384C80.7124 37.6797 81.0605 37.9209 81.0605 38.2345C81.0605 38.5481 80.8865 38.7049 80.7124 38.7833L81.0605 39.5732H80.7124ZM80.3644 37.9209H80.0164V38.5481H80.3644C80.7124 38.5481 80.7124 38.4697 80.7124 38.2345C80.7124 38.0717 80.7124 37.9209 80.3644 37.9209Z" fill="#A1A7B3"/>
<path d="M57.3095 48.7395C57.3095 50.9466 59.0558 52.7617 61.324 52.7617C63.4183 52.7617 65.3325 50.9466 65.3325 48.7395C65.3325 46.6107 63.4183 44.7172 61.324 44.7172C59.0558 44.7172 57.3095 46.6107 57.3095 48.7395ZM61.144 56C57.1355 56 53.9971 52.7617 53.9971 48.7395C53.9971 44.7172 57.1355 41.5573 61.144 41.5573C62.7162 41.5573 64.1144 41.9553 65.3325 42.8177V41.7141H68.6509V55.6804H65.3325V54.812C64.1144 55.602 62.7162 56 61.144 56Z" fill="#A1A7B3"/>
<path d="M41.2696 48.7395C41.2696 50.9466 43.1898 52.7617 45.2841 52.7617C47.5523 52.7617 49.2986 50.9466 49.2986 48.7395C49.2986 46.6107 47.5523 44.7172 45.2841 44.7172C43.1898 44.7172 41.2696 46.6107 41.2696 48.7395ZM49.2986 36.9019H52.785V55.6804H49.2986V54.812C48.2484 55.602 46.8503 56 45.2841 56C41.2696 56 37.9572 52.7617 37.9572 48.7395C37.9572 44.7172 41.2696 41.5573 45.2841 41.5573C46.8503 41.5573 48.2484 41.9553 49.2986 42.8177V36.9019Z" fill="#A1A7B3"/>
</svg>
