<svg xmlns="http://www.w3.org/2000/svg" width="138.163" height="46.184" viewBox="0 0 138.163 46.184"><defs><style>.a{fill:#a6a6a6;}.b{fill:#fff;}</style></defs><g transform="translate(0 0)"><path class="a" d="M127.161,0H11.009c-.423,0-.842,0-1.264,0-.353,0-.7.009-1.061.015a15.258,15.258,0,0,0-2.314.2A7.7,7.7,0,0,0,4.175.945,7.433,7.433,0,0,0,2.306,2.306,7.226,7.226,0,0,0,.946,4.178a7.622,7.622,0,0,0-.722,2.2A15,15,0,0,0,.017,8.687C.007,9.041.006,9.4,0,9.75V36.437c.006.359.007.706.017,1.064a15,15,0,0,0,.207,2.311,7.606,7.606,0,0,0,.722,2.2,7.167,7.167,0,0,0,1.36,1.864,7.245,7.245,0,0,0,1.869,1.361,7.736,7.736,0,0,0,2.195.728,15.532,15.532,0,0,0,2.314.2c.357.008.708.012,1.061.012.422,0,.841,0,1.264,0H127.161c.415,0,.837,0,1.252,0,.352,0,.713,0,1.064-.012a15.329,15.329,0,0,0,2.309-.2,7.857,7.857,0,0,0,2.2-.728,7.247,7.247,0,0,0,1.867-1.361,7.384,7.384,0,0,0,1.364-1.864,7.626,7.626,0,0,0,.715-2.2,15.6,15.6,0,0,0,.214-2.311c0-.359,0-.706,0-1.064.009-.419.009-.837.009-1.263V11.01c0-.423,0-.842-.009-1.261,0-.354,0-.709,0-1.063a15.593,15.593,0,0,0-.214-2.311,7.641,7.641,0,0,0-.715-2.2A7.466,7.466,0,0,0,133.989.945a7.814,7.814,0,0,0-2.2-.724,15.061,15.061,0,0,0-2.309-.2C129.125.011,128.764,0,128.412,0c-.415,0-.837,0-1.252,0Z" transform="translate(0 0)"/><path d="M9.615,45.038c-.352,0-.7,0-1.044-.012a14.649,14.649,0,0,1-2.158-.188A6.794,6.794,0,0,1,4.5,44.2a6.242,6.242,0,0,1-1.613-1.174,6.143,6.143,0,0,1-1.178-1.612,6.606,6.606,0,0,1-.627-1.913A14.332,14.332,0,0,1,.89,37.34C.883,37.1.873,36.286.873,36.286V9.614s.01-.8.017-1.033A14.283,14.283,0,0,1,1.081,6.42,6.645,6.645,0,0,1,1.709,4.5,6.2,6.2,0,0,1,2.881,2.887,6.426,6.426,0,0,1,4.5,1.707a6.723,6.723,0,0,1,1.909-.628A14.531,14.531,0,0,1,8.574.889L9.616.875H128.272l1.054.015a14.3,14.3,0,0,1,2.146.188,6.857,6.857,0,0,1,1.929.633A6.458,6.458,0,0,1,136.189,4.5a6.654,6.654,0,0,1,.618,1.9,15,15,0,0,1,.2,2.179c0,.327,0,.678,0,1.028.009.433.009.845.009,1.261V35.039c0,.419,0,.829-.009,1.241,0,.375,0,.719,0,1.073a14.7,14.7,0,0,1-.2,2.14,6.627,6.627,0,0,1-.623,1.928,6.328,6.328,0,0,1-1.173,1.6A6.249,6.249,0,0,1,133.4,44.2a6.769,6.769,0,0,1-1.926.635,14.48,14.48,0,0,1-2.158.188c-.338.008-.692.012-1.036.012l-1.252,0Z" transform="translate(0.135 0.135)"/><g transform="translate(11.513 10.069)"><path class="b" d="M27.056,21.279a5.714,5.714,0,0,1,2.721-4.794,5.849,5.849,0,0,0-4.608-2.491c-1.939-.2-3.818,1.16-4.806,1.16-1.007,0-2.528-1.14-4.166-1.106a6.137,6.137,0,0,0-5.164,3.15C8.8,21.063,10.465,26.745,12.6,29.87c1.07,1.53,2.321,3.24,3.958,3.179,1.6-.066,2.2-1.021,4.133-1.021,1.915,0,2.476,1.021,4.146.983,1.718-.028,2.8-1.537,3.834-3.082a12.657,12.657,0,0,0,1.753-3.571,5.521,5.521,0,0,1-3.371-5.079Z" transform="translate(-9.972 -7.908)"/><path class="b" d="M22.539,12.751a5.626,5.626,0,0,0,1.287-4.03,5.724,5.724,0,0,0-3.7,1.916A5.353,5.353,0,0,0,18.8,14.517,4.733,4.733,0,0,0,22.539,12.751Z" transform="translate(-8.608 -8.72)"/><g transform="translate(28.236 10.565)"><path class="b" d="M43.52,28.541H38.055l-1.312,3.875H34.427L39.6,18.078h2.405l5.176,14.338H44.831Zm-4.9-1.788h4.332l-2.136-6.289h-.06Z" transform="translate(-34.427 -17.839)"/><path class="b" d="M56.478,26.684c0,3.248-1.739,5.335-4.362,5.335a3.544,3.544,0,0,1-3.289-1.829h-.05v5.178H46.631V21.457h2.077V23.2h.039a3.708,3.708,0,0,1,3.328-1.848C54.729,21.348,56.478,23.445,56.478,26.684Zm-2.205,0c0-2.116-1.094-3.508-2.762-3.508-1.639,0-2.742,1.421-2.742,3.508,0,2.106,1.1,3.517,2.742,3.517,1.669,0,2.762-1.381,2.762-3.517Z" transform="translate(-32.541 -17.334)"/><path class="b" d="M66.443,26.684c0,3.248-1.739,5.335-4.362,5.335a3.544,3.544,0,0,1-3.289-1.829h-.05v5.178H56.6V21.457h2.077V23.2h.039a3.708,3.708,0,0,1,3.328-1.848C64.694,21.348,66.443,23.445,66.443,26.684Zm-2.205,0c0-2.116-1.094-3.508-2.762-3.508-1.639,0-2.742,1.421-2.742,3.508,0,2.106,1.1,3.517,2.742,3.517,1.669,0,2.763-1.381,2.763-3.517Z" transform="translate(-31 -17.334)"/><path class="b" d="M72,28.453c.159,1.422,1.54,2.355,3.428,2.355,1.809,0,3.11-.934,3.11-2.216,0-1.113-.785-1.779-2.643-2.236l-1.858-.448c-2.633-.636-3.855-1.867-3.855-3.865,0-2.474,2.156-4.173,5.217-4.173,3.03,0,5.107,1.7,5.177,4.173H78.413c-.13-1.431-1.312-2.295-3.041-2.295s-2.911.874-2.911,2.146c0,1.014.755,1.61,2.6,2.067l1.58.388c2.942.7,4.164,1.877,4.164,3.975,0,2.682-2.137,4.362-5.535,4.362-3.18,0-5.326-1.641-5.465-4.234Z" transform="translate(-28.958 -17.871)"/><path class="b" d="M83.838,19.3v2.474h1.988v1.7H83.838v5.763c0,.9.4,1.312,1.272,1.312a6.705,6.705,0,0,0,.706-.05v1.689a5.892,5.892,0,0,1-1.192.1c-2.116,0-2.942-.795-2.942-2.822V23.473h-1.52v-1.7h1.52V19.3Z" transform="translate(-27.357 -17.65)"/><path class="b" d="M86.065,26.687c0-3.289,1.937-5.356,4.958-5.356s4.959,2.067,4.959,5.356-1.918,5.356-4.959,5.356S86.065,29.985,86.065,26.687Zm7.73,0c0-2.256-1.034-3.588-2.773-3.588s-2.771,1.342-2.771,3.588c0,2.265,1.033,3.587,2.771,3.587S93.8,28.952,93.8,26.687Z" transform="translate(-26.445 -17.336)"/><path class="b" d="M96.186,21.457h2.046v1.779h.05a2.493,2.493,0,0,1,2.514-1.889,3.309,3.309,0,0,1,.735.08v2.007a3,3,0,0,0-.964-.13,2.162,2.162,0,0,0-2.236,2.4v6.2H96.186Z" transform="translate(-24.88 -17.334)"/><path class="b" d="M110.647,28.843c-.289,1.9-2.137,3.2-4.5,3.2-3.041,0-4.928-2.037-4.928-5.306s1.9-5.405,4.838-5.405c2.892,0,4.711,1.987,4.711,5.156v.735h-7.383v.13a2.723,2.723,0,0,0,2.812,2.961,2.365,2.365,0,0,0,2.414-1.47Zm-7.253-3.12h5.226a2.514,2.514,0,0,0-2.564-2.653,2.646,2.646,0,0,0-2.662,2.653Z" transform="translate(-24.102 -17.336)"/></g></g></g><g transform="translate(41.185 9.741)"><path class="b" d="M38.159,8.732A3.048,3.048,0,0,1,41.4,12.155c0,2.2-1.19,3.466-3.242,3.466H35.671V8.732Zm-1.418,5.915h1.3a2.166,2.166,0,0,0,2.272-2.478A2.172,2.172,0,0,0,38.04,9.706h-1.3Z" transform="translate(-35.671 -8.393)"/><path class="b" d="M41.682,12.805a2.463,2.463,0,1,1,4.9,0,2.463,2.463,0,1,1-4.9,0Zm3.848,0c0-1.127-.506-1.786-1.395-1.786s-1.394.659-1.394,1.786.5,1.79,1.394,1.79S45.531,13.937,45.531,12.805Z" transform="translate(-34.743 -8.179)"/><path class="b" d="M52.347,15.394H51.282l-1.075-3.829h-.081l-1.07,3.829H48l-1.433-5.2H47.61l.931,3.967h.077l1.069-3.967h.984l1.069,3.967h.081l.927-3.967h1.026Z" transform="translate(-33.986 -8.165)"/><path class="b" d="M53.854,10.209h.988v.826h.077a1.556,1.556,0,0,1,1.551-.926,1.691,1.691,0,0,1,1.8,1.934v3.366H57.243V12.3c0-.835-.363-1.251-1.122-1.251a1.193,1.193,0,0,0-1.241,1.318v3.042H53.854Z" transform="translate(-32.86 -8.179)"/><path class="b" d="M59.094,8.437H60.12v7.229H59.094Z" transform="translate(-32.05 -8.437)"/><path class="b" d="M61.219,12.805a2.463,2.463,0,1,1,4.9,0,2.464,2.464,0,1,1-4.9,0Zm3.848,0c0-1.127-.506-1.786-1.395-1.786s-1.394.659-1.394,1.786.5,1.79,1.394,1.79S65.068,13.937,65.068,12.805Z" transform="translate(-31.723 -8.179)"/><path class="b" d="M66.4,13.937c0-.936.7-1.475,1.934-1.552l1.408-.081v-.449c0-.549-.363-.859-1.064-.859-.573,0-.97.21-1.084.578H66.6c.1-.893.945-1.466,2.124-1.466,1.3,0,2.039.649,2.039,1.747v3.552h-.988v-.731H69.7a1.749,1.749,0,0,1-1.562.816A1.57,1.57,0,0,1,66.4,13.937Zm3.342-.444v-.435l-1.27.081c-.716.048-1.041.291-1.041.75s.406.74.964.74a1.226,1.226,0,0,0,1.346-1.137Z" transform="translate(-30.92 -8.179)"/><path class="b" d="M71.348,13.064c0-1.643.844-2.684,2.158-2.684a1.713,1.713,0,0,1,1.594.912h.077V8.437H76.2v7.229H75.22v-.821h-.081a1.8,1.8,0,0,1-1.633.907C72.184,15.751,71.348,14.711,71.348,13.064Zm1.06,0c0,1.1.52,1.766,1.389,1.766s1.4-.673,1.4-1.762-.54-1.766-1.4-1.766-1.389.668-1.389,1.762Z" transform="translate(-30.156 -8.437)"/><path class="b" d="M79.232,12.805a2.463,2.463,0,1,1,4.9,0,2.463,2.463,0,1,1-4.9,0Zm3.848,0c0-1.127-.506-1.786-1.395-1.786s-1.394.659-1.394,1.786.5,1.79,1.394,1.79S83.08,13.937,83.08,12.805Z" transform="translate(-28.939 -8.179)"/><path class="b" d="M84.669,10.209h.988v.826h.077a1.556,1.556,0,0,1,1.551-.926,1.691,1.691,0,0,1,1.8,1.934v3.366H88.059V12.3c0-.835-.363-1.251-1.122-1.251A1.193,1.193,0,0,0,85.7,12.367v3.042H84.669Z" transform="translate(-28.096 -8.179)"/><path class="b" d="M93.763,9.074v1.318H94.89v.864H93.763v2.673c0,.545.224.783.735.783a3.426,3.426,0,0,0,.391-.024v.855a3.367,3.367,0,0,1-.558.052c-1.141,0-1.6-.4-1.6-1.4V11.256h-.825v-.864h.825V9.074Z" transform="translate(-26.977 -8.339)"/><path class="b" d="M95.7,8.437h1.017V11.3H96.8a1.6,1.6,0,0,1,1.585-.931,1.713,1.713,0,0,1,1.791,1.938v3.357H99.152v-3.1c0-.83-.387-1.251-1.112-1.251a1.215,1.215,0,0,0-1.309,1.318v3.036H95.7Z" transform="translate(-26.39 -8.437)"/><path class="b" d="M105.387,14a2.111,2.111,0,0,1-2.253,1.5,2.362,2.362,0,0,1-2.4-2.683,2.4,2.4,0,0,1,2.4-2.716c1.447,0,2.319.988,2.319,2.621v.358h-3.671v.057a1.374,1.374,0,0,0,1.385,1.489A1.246,1.246,0,0,0,104.4,14Zm-3.609-1.676H104.4a1.254,1.254,0,0,0-1.28-1.347,1.33,1.33,0,0,0-1.346,1.347Z" transform="translate(-25.616 -8.179)"/></g></svg>