<svg width="138" height="138" viewBox="0 0 138 138" fill="none" xmlns="http://www.w3.org/2000/svg">
<g filter="url(#filter0_d_767_1825)">
<rect x="34" y="10" width="70" height="70" rx="35" fill="#17a2b8"/>
<path fill-rule="evenodd" clip-rule="evenodd" d="M79.6 30.9333H83.3C84.2813 30.9333 85.2224 31.3232 85.9163 32.017C86.6102 32.7109 87 33.652 87 34.6333V59.3C87 60.2813 86.6102 61.2224 85.9163 61.9163C85.2224 62.6102 84.2813 63 83.3 63H53.7C52.7187 63 51.7776 62.6102 51.0837 61.9163C50.3898 61.2224 50 60.2813 50 59.3V34.6333C50 33.652 50.3898 32.7109 51.0837 32.017C51.7776 31.3232 52.7187 30.9333 53.7 30.9333H57.4V26H59.8667V30.9333H77.1333V26H79.6V30.9333ZM64.8 45.7333H57.4V43.2667H64.8V45.7333ZM79.6 43.2667H72.2V45.7333H79.6V43.2667ZM64.8 53.1333H57.4V50.6667H64.8V53.1333ZM72.2 53.1333H79.6V50.6667H72.2V53.1333Z" fill="white"/>
</g>
<defs>
<filter id="filter0_d_767_1825" x="0" y="0" width="138" height="138" filterUnits="userSpaceOnUse" color-interpolation-filters="sRGB">
<feFlood flood-opacity="0" result="BackgroundImageFix"/>
<feColorMatrix in="SourceAlpha" type="matrix" values="0 0 0 0 0 0 0 0 0 0 0 0 0 0 0 0 0 0 127 0" result="hardAlpha"/>
<feOffset dy="24"/>
<feGaussianBlur stdDeviation="17"/>
<feComposite in2="hardAlpha" operator="out"/>
<feColorMatrix type="matrix" values="0 0 0 0 0.227451 0 0 0 0 0.764706 0 0 0 0 0.839216 0 0 0 0.4 0"/>
<feBlend mode="normal" in2="BackgroundImageFix" result="effect1_dropShadow_767_1825"/>
<feBlend mode="normal" in="SourceGraphic" in2="effect1_dropShadow_767_1825" result="shape"/>
</filter>
</defs>
</svg>
