<svg width="25" height="25" viewBox="0 0 25 25" fill="none" xmlns="http://www.w3.org/2000/svg">
<path d="M6.11095 6.1668H6.46896C6.72993 6.1668 6.98021 6.06313 7.16475 5.87859C7.34928 5.69405 7.45295 5.44377 7.45295 5.1828V1.4508C7.45295 1.18982 7.34928 0.93954 7.16475 0.755004C6.98021 0.570468 6.72993 0.466797 6.46896 0.466797H6.11095C5.84998 0.466797 5.5997 0.570468 5.41516 0.755004C5.23063 0.93954 5.12695 1.18982 5.12695 1.4508V5.1828C5.12695 5.44377 5.23063 5.69405 5.41516 5.87859C5.5997 6.06313 5.84998 6.1668 6.11095 6.1668Z" fill="white"/>
<path d="M18.7301 6.14336H19.0881C19.2177 6.14336 19.3461 6.11774 19.4658 6.06798C19.5855 6.01822 19.6942 5.94529 19.7857 5.85339C19.8771 5.76148 19.9495 5.65242 19.9986 5.53246C20.0478 5.41249 20.0728 5.284 20.0721 5.15436V1.42736C20.0721 1.16639 19.9684 0.916102 19.7839 0.731566C19.5994 0.547031 19.3491 0.443359 19.0881 0.443359H18.7301C18.4691 0.443359 18.2189 0.547031 18.0343 0.731566C17.8498 0.916102 17.7461 1.16639 17.7461 1.42736V5.15436C17.7454 5.284 17.7704 5.41249 17.8196 5.53246C17.8687 5.65242 17.9411 5.76148 18.0325 5.85339C18.124 5.94529 18.2327 6.01822 18.3524 6.06798C18.4721 6.11774 18.6005 6.14336 18.7301 6.14336Z" fill="white"/>
<path d="M23.4 2.46777H20.873V5.41677C20.8667 5.63783 20.8142 5.85511 20.7188 6.05463C20.6234 6.25415 20.4873 6.4315 20.3193 6.57524C20.1512 6.71899 19.9549 6.82596 19.743 6.88926C19.5312 6.95256 19.3084 6.97079 19.089 6.94278H18.731C18.258 6.94225 17.8046 6.75412 17.4701 6.41967C17.1357 6.08522 16.9475 5.63176 16.947 5.15878V2.46777H8.25V5.18377C8.24947 5.65676 8.06134 6.11022 7.72689 6.44467C7.39244 6.77912 6.93898 6.96724 6.466 6.96777H6.109C5.63602 6.96724 5.18256 6.77912 4.84811 6.44467C4.51366 6.11022 4.32553 5.65676 4.325 5.18377V2.46777H1.6C1.17565 2.46777 0.768687 2.63635 0.468629 2.93641C0.168571 3.23646 0 3.64343 0 4.06778L0 23.3998C0 23.8241 0.168571 24.2311 0.468629 24.5311C0.768687 24.8312 1.17565 24.9998 1.6 24.9998H23.4C23.8243 24.9998 24.2313 24.8312 24.5314 24.5311C24.8314 24.2311 25 23.8241 25 23.3998V4.06778C25 3.64343 24.8314 3.23646 24.5314 2.93641C24.2313 2.63635 23.8243 2.46777 23.4 2.46777ZM23.4 23.3998H1.6V8.79977H23.4V23.3998Z" fill="white"/>
<path d="M13.3212 13.6978H16.1942C16.2213 13.6978 16.2481 13.6925 16.2731 13.6821C16.298 13.6718 16.3208 13.6566 16.3399 13.6375C16.359 13.6184 16.3742 13.5956 16.3845 13.5706C16.3949 13.5457 16.4002 13.5189 16.4002 13.4918V11.0048C16.4002 10.9778 16.3949 10.951 16.3845 10.926C16.3742 10.901 16.359 10.8783 16.3399 10.8592C16.3208 10.84 16.298 10.8249 16.2731 10.8145C16.2481 10.8041 16.2213 10.7988 16.1942 10.7988H13.3212C13.2666 10.7988 13.2142 10.8205 13.1756 10.8592C13.1369 10.8978 13.1152 10.9502 13.1152 11.0048V13.4918C13.1152 13.5465 13.1369 13.5988 13.1756 13.6375C13.2142 13.6761 13.2666 13.6978 13.3212 13.6978Z" fill="white"/>
<path d="M18.0126 13.6978H20.8857C20.9403 13.6978 20.9927 13.6761 21.0313 13.6375C21.0699 13.5988 21.0916 13.5465 21.0916 13.4918V11.0048C21.0916 10.9502 21.0699 10.8978 21.0313 10.8592C20.9927 10.8205 20.9403 10.7988 20.8857 10.7988H18.0126C17.9856 10.7988 17.9588 10.8041 17.9338 10.8145C17.9088 10.8249 17.8861 10.84 17.867 10.8592C17.8478 10.8783 17.8327 10.901 17.8223 10.926C17.812 10.951 17.8066 10.9778 17.8066 11.0048V13.4918C17.8066 13.5189 17.812 13.5457 17.8223 13.5706C17.8327 13.5956 17.8478 13.6184 17.867 13.6375C17.8861 13.6566 17.9088 13.6718 17.9338 13.6821C17.9588 13.6925 17.9856 13.6978 18.0126 13.6978Z" fill="white"/>
<path d="M3.94819 17.7691H6.82119C6.87583 17.7691 6.92822 17.7474 6.96685 17.7088C7.00549 17.6702 7.02719 17.6178 7.02719 17.5631V15.0751C7.02719 15.0205 7.00549 14.9681 6.96685 14.9295C6.92822 14.8908 6.87583 14.8691 6.82119 14.8691H3.94819C3.89356 14.8691 3.84116 14.8908 3.80252 14.9295C3.76389 14.9681 3.74219 15.0205 3.74219 15.0751V17.5621C3.74206 17.5893 3.74729 17.6162 3.75759 17.6413C3.76788 17.6664 3.78303 17.6892 3.80217 17.7085C3.82131 17.7277 3.84407 17.743 3.86913 17.7534C3.89419 17.7638 3.92105 17.7691 3.94819 17.7691Z" fill="white"/>
<path d="M8.63765 17.7691H11.5107C11.5653 17.7691 11.6177 17.7474 11.6563 17.7088C11.6949 17.6702 11.7166 17.6178 11.7166 17.5631V15.0751C11.7166 15.0205 11.6949 14.9681 11.6563 14.9295C11.6177 14.8908 11.5653 14.8691 11.5107 14.8691H8.63765C8.58302 14.8691 8.53062 14.8908 8.49199 14.9295C8.45336 14.9681 8.43164 15.0205 8.43164 15.0751V17.5621C8.43151 17.5893 8.43675 17.6162 8.44704 17.6413C8.45733 17.6664 8.47248 17.6892 8.49163 17.7085C8.51077 17.7277 8.53352 17.743 8.55858 17.7534C8.58364 17.7638 8.61052 17.7691 8.63765 17.7691Z" fill="white"/>
<path d="M13.3252 17.7691H16.1982C16.2528 17.7691 16.3052 17.7474 16.3438 17.7088C16.3824 17.6702 16.4041 17.6178 16.4041 17.5631V15.0751C16.4041 15.0205 16.3824 14.9681 16.3438 14.9295C16.3052 14.8908 16.2528 14.8691 16.1982 14.8691H13.3252C13.2705 14.8691 13.2181 14.8908 13.1795 14.9295C13.1409 14.9681 13.1191 15.0205 13.1191 15.0751V17.5621C13.119 17.5893 13.1242 17.6162 13.1345 17.6413C13.1448 17.6664 13.16 17.6892 13.1791 17.7085C13.1983 17.7277 13.221 17.743 13.2461 17.7534C13.2711 17.7638 13.298 17.7691 13.3252 17.7691Z" fill="white"/>
<path d="M18.0126 17.7691H20.8857C20.9403 17.7691 20.9927 17.7474 21.0313 17.7088C21.0699 17.6702 21.0916 17.6178 21.0916 17.5631V15.0751C21.0916 15.0205 21.0699 14.9681 21.0313 14.9295C20.9927 14.8908 20.9403 14.8691 20.8857 14.8691H18.0126C17.9856 14.8691 17.9588 14.8745 17.9338 14.8848C17.9088 14.8952 17.8861 14.9103 17.867 14.9295C17.8478 14.9486 17.8327 14.9713 17.8223 14.9963C17.812 15.0213 17.8066 15.0481 17.8066 15.0751V17.5621C17.8065 17.5893 17.8118 17.6162 17.8221 17.6413C17.8323 17.6664 17.8475 17.6892 17.8666 17.7085C17.8858 17.7277 17.9085 17.743 17.9336 17.7534C17.9587 17.7638 17.9855 17.7691 18.0126 17.7691Z" fill="white"/>
<path d="M6.82119 18.9424H3.94819C3.89355 18.9424 3.84115 18.9641 3.80252 19.0027C3.76389 19.0413 3.74219 19.0937 3.74219 19.1484V21.6354C3.74219 21.69 3.76389 21.7424 3.80252 21.7811C3.84115 21.8197 3.89355 21.8414 3.94819 21.8414H6.82119C6.87582 21.8414 6.92822 21.8197 6.96685 21.7811C7.00548 21.7424 7.02719 21.69 7.02719 21.6354V19.1484C7.02719 19.0937 7.00548 19.0413 6.96685 19.0027C6.92822 18.9641 6.87582 18.9424 6.82119 18.9424Z" fill="white"/>
<path d="M11.5106 18.9424H8.63763C8.583 18.9424 8.53061 18.9641 8.49197 19.0027C8.45334 19.0413 8.43164 19.0937 8.43164 19.1484V21.6354C8.43164 21.69 8.45334 21.7424 8.49197 21.7811C8.53061 21.8197 8.583 21.8414 8.63763 21.8414H11.5106C11.5653 21.8414 11.6177 21.8197 11.6563 21.7811C11.6949 21.7424 11.7166 21.69 11.7166 21.6354V19.1484C11.7166 19.0937 11.6949 19.0413 11.6563 19.0027C11.6177 18.9641 11.5653 18.9424 11.5106 18.9424Z" fill="white"/>
<path d="M16.1982 18.9424H13.3251C13.2705 18.9424 13.2181 18.9641 13.1795 19.0027C13.1408 19.0413 13.1191 19.0937 13.1191 19.1484V21.6354C13.1191 21.69 13.1408 21.7424 13.1795 21.7811C13.2181 21.8197 13.2705 21.8414 13.3251 21.8414H16.1982C16.2528 21.8414 16.3052 21.8197 16.3438 21.7811C16.3824 21.7424 16.4041 21.69 16.4041 21.6354V19.1484C16.4041 19.0937 16.3824 19.0413 16.3438 19.0027C16.3052 18.9641 16.2528 18.9424 16.1982 18.9424Z" fill="white"/>
<path d="M20.8857 18.9424H18.0126C17.9856 18.9424 17.9588 18.9477 17.9338 18.9581C17.9088 18.9684 17.8861 18.9836 17.867 19.0027C17.8478 19.0218 17.8327 19.0446 17.8223 19.0695C17.812 19.0945 17.8066 19.1213 17.8066 19.1484V21.6354C17.8066 21.6624 17.812 21.6892 17.8223 21.7142C17.8327 21.7392 17.8478 21.7619 17.867 21.7811C17.8861 21.8002 17.9088 21.8154 17.9338 21.8257C17.9588 21.8361 17.9856 21.8414 18.0126 21.8414H20.8857C20.9403 21.8414 20.9927 21.8197 21.0313 21.7811C21.0699 21.7424 21.0916 21.69 21.0916 21.6354V19.1484C21.0916 19.0937 21.0699 19.0413 21.0313 19.0027C20.9927 18.9641 20.9403 18.9424 20.8857 18.9424Z" fill="white"/>
</svg>
