<svg width="37" height="37" viewBox="0 0 37 37" fill="none" xmlns="http://www.w3.org/2000/svg">
<path fill-rule="evenodd" clip-rule="evenodd" d="M29.6 4.93333H33.3C34.2813 4.93333 35.2224 5.32315 35.9163 6.01704C36.6102 6.71092 37 7.65203 37 8.63333V33.3C37 34.2813 36.6102 35.2224 35.9163 35.9163C35.2224 36.6102 34.2813 37 33.3 37H3.7C2.7187 37 1.77759 36.6102 1.0837 35.9163C0.38982 35.2224 0 34.2813 0 33.3L0 8.63333C0 7.65203 0.38982 6.71092 1.0837 6.01704C1.77759 5.32315 2.7187 4.93333 3.7 4.93333H7.4V0H9.86667V4.93333H27.1333V0H29.6V4.93333ZM14.8 19.7333H7.4V17.2667H14.8V19.7333ZM29.6 17.2667H22.2V19.7333H29.6V17.2667ZM14.8 27.1333H7.4V24.6667H14.8V27.1333ZM22.2 27.1333H29.6V24.6667H22.2V27.1333Z" fill="white"/>
</svg>
