<svg width="42" height="42" viewBox="0 0 42 42" fill="none" xmlns="http://www.w3.org/2000/svg">
<rect width="42" height="42" rx="21" fill="#FFC170"/>
<g clip-path="url(#clip0_7463_8671)">
<path fill-rule="evenodd" clip-rule="evenodd" d="M22.8449 21.4336L25.9252 23.212C26.2259 23.3856 26.3231 23.78 26.1538 24.0733C25.9794 24.3754 25.603 24.4845 25.2936 24.3059L22.1611 22.4974C21.8404 22.7464 21.4375 22.8947 21 22.8947C19.9536 22.8947 19.1053 22.0464 19.1053 21C19.1053 20.175 19.6325 19.4732 20.3684 19.2131V13.4254C20.3684 13.0742 20.6614 12.7895 21 12.7895C21.3488 12.7895 21.6316 13.0837 21.6316 13.4254V19.2131C22.3675 19.4732 22.8947 20.175 22.8947 21C22.8947 21.1492 22.8775 21.2943 22.8449 21.4336ZM21 33C27.6274 33 33 27.6274 33 21C33 14.3726 27.6274 9 21 9C14.3726 9 9 14.3726 9 21C9 27.6274 14.3726 33 21 33ZM21 31.7368C26.9298 31.7368 31.7368 26.9298 31.7368 21C31.7368 15.0702 26.9298 10.2632 21 10.2632C15.0702 10.2632 10.2632 15.0702 10.2632 21C10.2632 26.9298 15.0702 31.7368 21 31.7368Z" fill="white"/>
</g>
<defs>
<clipPath id="clip0_7463_8671">
<rect width="24" height="24" fill="white" transform="translate(9 9)"/>
</clipPath>
</defs>
</svg>
