<svg width="138" height="138" viewBox="0 0 138 138" fill="none" xmlns="http://www.w3.org/2000/svg">
<g filter="url(#filter0_d_767_1832)">
<rect x="34" y="10" width="70" height="70" rx="35" fill="#17a2b8"/>
<path d="M70.4329 51.279L68.5659 50.572C69.0659 49.252 69.9159 47.82 71.2559 46.331L72.7429 47.669C71.5599 48.984 70.8419 50.199 70.4329 51.279Z" fill="white"/>
<path fill-rule="evenodd" clip-rule="evenodd" d="M61.563 30C56.035 30 52 35.64 52 41.724C52 55.304 70 64 70 64C70 64 88 54.744 88 41.724C88 35.642 83.965 30 78.437 30C74.602 30 71.757 32.531 70 36.121C68.243 32.531 65.398 30 61.562 30H61.563ZM63 47.959C63 50.766 66.142 51.662 68.441 50.916C67.343 54.167 68.363 56.7 69.271 57.68L70.738 56.32C70.374 55.928 69.538 54.306 70.229 51.898C71.436 54.135 77 54.417 77 50.198V39C74.118 41.439 71.039 42.403 68.505 43.197C65.323 44.193 63 44.92 63 47.959Z" fill="white"/>
</g>
<defs>
<filter id="filter0_d_767_1832" x="0" y="0" width="138" height="138" filterUnits="userSpaceOnUse" color-interpolation-filters="sRGB">
<feFlood flood-opacity="0" result="BackgroundImageFix"/>
<feColorMatrix in="SourceAlpha" type="matrix" values="0 0 0 0 0 0 0 0 0 0 0 0 0 0 0 0 0 0 127 0" result="hardAlpha"/>
<feOffset dy="24"/>
<feGaussianBlur stdDeviation="17"/>
<feComposite in2="hardAlpha" operator="out"/>
<feColorMatrix type="matrix" values="0 0 0 0 0.227451 0 0 0 0 0.764706 0 0 0 0 0.839216 0 0 0 0.4 0"/>
<feBlend mode="normal" in2="BackgroundImageFix" result="effect1_dropShadow_767_1832"/>
<feBlend mode="normal" in="SourceGraphic" in2="effect1_dropShadow_767_1832" result="shape"/>
</filter>
</defs>
</svg>
