<svg width="48" height="48" viewBox="0 0 48 48" fill="none" xmlns="http://www.w3.org/2000/svg">
<path d="M24.433 28.2791L22.566 27.5721C23.066 26.2521 23.916 24.8201 25.256 23.3311L26.743 24.6691C25.56 25.9841 24.842 27.1991 24.433 28.2791Z" fill="white"/>
<path fill-rule="evenodd" clip-rule="evenodd" d="M15.563 7C10.035 7 6 12.64 6 18.724C6 32.304 24 41 24 41C24 41 42 31.744 42 18.724C42 12.642 37.965 7 32.437 7C28.602 7 25.757 9.531 24 13.121C22.243 9.531 19.398 7 15.562 7H15.563ZM17 24.959C17 27.766 20.142 28.662 22.441 27.916C21.343 31.167 22.363 33.7 23.271 34.68L24.738 33.32C24.374 32.928 23.538 31.306 24.229 28.898C25.436 31.135 31 31.417 31 27.198V16C28.118 18.439 25.039 19.403 22.505 20.197C19.323 21.193 17 21.92 17 24.959Z" fill="white"/>
</svg>
