<svg xmlns="http://www.w3.org/2000/svg" width="134" height="176.99" viewBox="0 0 134 176.99"><defs><style>.a{fill:#fff;}</style></defs><g transform="translate(-9.5 -1.997)"><path class="a" d="M81.51,178.982H38.528A2.528,2.528,0,0,1,36,176.454V4.528a2.528,2.528,0,0,1,4.146-1.942l30.34,25.283a2.528,2.528,0,0,1,.9,1.724L84.028,176.236a2.528,2.528,0,0,1-2.518,2.746Zm-40.453-5.057h37.7L66.441,31.075,41.057,9.926Z" transform="translate(40.5 0.005)"/><path class="a" d="M61.065,52.242a2.528,2.528,0,0,1-2.516-2.311L57.917,42.6a2.528,2.528,0,0,1,5.036-.435l.632,7.332a2.528,2.528,0,0,1-2.3,2.736,2.133,2.133,0,0,1-.22.01Z" transform="translate(73.989 57.95)"/><path class="a" d="M74.491,90.708H55.528a2.528,2.528,0,1,1,0-5.057H71.735L69.748,62.5a2.528,2.528,0,0,1,2.3-2.733,2.5,2.5,0,0,1,2.733,2.3l2.225,25.893a2.528,2.528,0,0,1-2.518,2.743Z" transform="translate(66.482 88.279)"/><path class="a" d="M61.943,62.356a2.528,2.528,0,0,1-2.516-2.308l-.657-7.509a2.528,2.528,0,1,1,5.037-.44l.657,7.507a2.528,2.528,0,0,1-2.3,2.741,2.192,2.192,0,0,1-.222.01Z" transform="translate(75.285 73.043)"/><path class="a" d="M73.13,59.313A2.528,2.528,0,0,1,70.6,57L69.125,39.746,49.505,23.381A2.529,2.529,0,0,1,52.747,19.5L73.175,36.538a2.528,2.528,0,0,1,.9,1.724L75.641,56.57a2.528,2.528,0,0,1-2.3,2.736Z" transform="translate(59.752 25.848)"/><path class="a" d="M64.515,178.987H21.534a2.528,2.528,0,0,1-2.528-2.746L31.647,29.6a2.528,2.528,0,0,1,.9-1.724L62.887,2.591a2.528,2.528,0,0,1,4.157,1.942V176.459A2.528,2.528,0,0,1,64.515,178.987ZM24.29,173.931h37.7v-164L36.6,31.08Z" transform="translate(14.513 0)"/><path class="a" d="M36.047,132.858H12.028a2.528,2.528,0,0,1-2.5-2.918L22.172,49.034a2.528,2.528,0,0,1,.981-1.633l19.62-14.715a2.528,2.528,0,1,1,3.034,4.045l-18.8,14.1L14.981,127.8H36.047a2.528,2.528,0,1,1,0,5.057Z" transform="translate(0 46.129)"/><path class="a" d="M21.921,86.777a2.528,2.528,0,0,1-1.363-4.66l42-26.8a2.528,2.528,0,0,1,2.72,4.263l-42,26.8A2.528,2.528,0,0,1,21.921,86.777Z" transform="translate(15.115 80.883)"/><path class="a" d="M22.9,74.454a2.528,2.528,0,0,1-1.36-4.66L61.055,44.587a2.528,2.528,0,0,1,2.72,4.263L24.257,74.05a2.528,2.528,0,0,1-1.358.4Z" transform="translate(16.614 64.484)"/><path class="a" d="M23.871,62.118a2.528,2.528,0,0,1-1.363-4.66l37.065-23.64a2.528,2.528,0,0,1,2.721,4.255L25.226,61.714a2.511,2.511,0,0,1-1.355.4Z" transform="translate(18.095 48.124)"/><path class="a" d="M24.851,49.869a2.528,2.528,0,0,1-1.363-4.66L58.076,23.137A2.528,2.528,0,0,1,60.8,27.4L26.209,49.472a2.528,2.528,0,0,1-1.358.4Z" transform="translate(19.593 31.702)"/><path class="a" d="M25.83,37.556a2.528,2.528,0,0,1-1.363-4.66l32.11-20.479A2.528,2.528,0,0,1,59.3,16.68L27.188,37.159a2.511,2.511,0,0,1-1.358.4Z" transform="translate(21.089 15.318)"/></g></svg>