<svg xmlns="http://www.w3.org/2000/svg" width="140.5" height="140.49" viewBox="0 0 140.5 140.49"><defs><style>.a{fill:#fff;}</style></defs><g transform="translate(-1 -1.018)"><g transform="translate(1 1.018)"><g transform="translate(0 0)"><path class="a" d="M137.813,109.4,109.376,90.436a8.3,8.3,0,0,0-11.114,1.805l-8.284,10.651a3.54,3.54,0,0,1-4.54.955l-1.576-.869c-5.224-2.847-11.723-6.392-24.818-19.491S42.4,63.883,39.55,58.669l-.864-1.576a3.545,3.545,0,0,1,.936-4.556l10.643-8.281a8.3,8.3,0,0,0,1.808-11.114L33.109,4.7A8.257,8.257,0,0,0,21.979,2.2L10.087,9.342A16.774,16.774,0,0,0,2.438,19.27c-4.282,15.6-1.061,42.53,38.606,82.2,31.554,31.551,55.044,40.036,71.19,40.036a41.48,41.48,0,0,0,11-1.437,16.758,16.758,0,0,0,9.927-7.649l7.15-11.884A8.258,8.258,0,0,0,137.813,109.4Zm-1.531,8.733-7.134,11.892a12.1,12.1,0,0,1-7.141,5.535c-14.4,3.955-39.568.679-77.65-37.4S3,34.914,6.955,20.508a12.119,12.119,0,0,1,5.542-7.15L24.388,6.224a3.582,3.582,0,0,1,4.83,1.086l10.3,15.467,8.647,12.969a3.6,3.6,0,0,1-.782,4.823L36.739,48.85a8.194,8.194,0,0,0-2.17,10.517l.845,1.536c2.992,5.488,6.713,12.315,20.295,25.9S76.116,104.1,81.6,107.09l1.538.848a8.2,8.2,0,0,0,10.517-2.17l8.281-10.646a3.606,3.606,0,0,1,4.823-.782L135.2,113.3A3.58,3.58,0,0,1,136.282,118.134Z" transform="translate(-1 -1.018)"/><path class="a" d="M284.969,74.006a39.847,39.847,0,0,1,39.8,39.8,2.341,2.341,0,1,0,4.682,0,44.534,44.534,0,0,0-44.485-44.485,2.341,2.341,0,0,0,0,4.682Z" transform="translate(-205.357 -50.583)"/><path class="a" d="M284.969,125.206a25.785,25.785,0,0,1,25.755,25.755,2.341,2.341,0,0,0,4.682,0,30.472,30.472,0,0,0-30.437-30.437,2.341,2.341,0,0,0,0,4.682Z" transform="translate(-205.357 -87.735)"/><path class="a" d="M284.969,176.406a11.721,11.721,0,0,1,11.707,11.707,2.341,2.341,0,1,0,4.682,0,16.408,16.408,0,0,0-16.389-16.389,2.341,2.341,0,0,0,0,4.682Z" transform="translate(-205.357 -124.887)"/></g></g></g></svg>