<svg width="21" height="21" viewBox="0 0 21 21" fill="none" xmlns="http://www.w3.org/2000/svg">
<path d="M10.5007 3.92C9.83962 3.92 9.19338 4.11603 8.64371 4.48331C8.09404 4.85059 7.66562 5.37262 7.41264 5.98338C7.15965 6.59414 7.09346 7.26621 7.22243 7.91459C7.3514 8.56297 7.66974 9.15855 8.1372 9.626C8.60466 10.0935 9.20023 10.4118 9.84862 10.5408C10.497 10.6697 11.1691 10.6036 11.7798 10.3506C12.3906 10.0976 12.9126 9.66916 13.2799 9.11949C13.6472 8.56982 13.8432 7.92358 13.8432 7.2625C13.8432 6.37601 13.491 5.52583 12.8642 4.89899C12.2374 4.27215 11.3872 3.92 10.5007 3.92ZM10.5007 9.43833C10.0704 9.43833 9.64969 9.31072 9.29188 9.07164C8.93406 8.83255 8.65518 8.49273 8.4905 8.09515C8.32581 7.69757 8.28272 7.26008 8.36668 6.83801C8.45063 6.41594 8.65786 6.02825 8.96216 5.72395C9.26645 5.41966 9.65415 5.21243 10.0762 5.12847C10.4983 5.04452 10.9358 5.08761 11.3334 5.25229C11.7309 5.41697 12.0708 5.69586 12.3098 6.05367C12.5489 6.41148 12.6765 6.83216 12.6765 7.2625C12.675 7.83855 12.4451 8.39049 12.0372 8.79727C11.6293 9.20406 11.0768 9.4325 10.5007 9.4325V9.43833Z" fill="white"/>
<path d="M10.5006 1.16666C8.68361 1.16818 6.94106 1.88865 5.65354 3.1707C4.36602 4.45276 3.63815 6.19222 3.62891 8.00916C3.62891 10.7333 5.15724 13.0142 6.27724 14.6767L6.48141 14.98C7.59574 16.595 8.79116 18.1526 10.0631 19.6467L10.5064 20.1658L10.9497 19.6467C12.2215 18.1524 13.4169 16.5949 14.5314 14.98L14.7356 14.6708C15.8497 13.0083 17.3781 10.7333 17.3781 8.00916C17.3688 6.19121 16.6401 4.45087 15.3514 3.16865C14.0626 1.88643 12.3186 1.16664 10.5006 1.16666ZM13.7614 14L13.5514 14.3092C12.5481 15.8142 11.2181 17.5 10.5006 18.3342C9.81224 17.5 8.45307 15.8142 7.44974 14.3092L7.24557 14C6.21307 12.46 4.79557 10.3542 4.79557 7.98583C4.79557 7.23664 4.94314 6.49478 5.22984 5.80262C5.51654 5.11046 5.93677 4.48154 6.46653 3.95179C6.99629 3.42203 7.6252 3.0018 8.31736 2.7151C9.00953 2.42839 9.75138 2.28083 10.5006 2.28083C11.2498 2.28083 11.9916 2.42839 12.6838 2.7151C13.3759 3.0018 14.0049 3.42203 14.5346 3.95179C15.0644 4.48154 15.4846 5.11046 15.7713 5.80262C16.058 6.49478 16.2056 7.23664 16.2056 7.98583C16.2056 10.3775 14.7939 12.4833 13.7614 14Z" fill="white"/>
</svg>
