<svg xmlns="http://www.w3.org/2000/svg" width="73.29" height="83.366" viewBox="0 0 73.29 83.366"><defs><style>.a{fill:#fffefe;}</style></defs><path class="a" d="M57.2,83.366a8.74,8.74,0,0,1-8.614-7.076L44.7,55.9a5.6,5.6,0,0,0-10.97-.014l-3.894,20.4a8.78,8.78,0,0,1-17.33-.66l-1.525-14A72.9,72.9,0,0,0,7.756,46.74L4.8,37.633A76.818,76.818,0,0,1,1,13.721,13.823,13.823,0,0,1,14.894,0,38.526,38.526,0,0,1,31.866,4.2a15.931,15.931,0,0,0,14.683,0A40.541,40.541,0,0,1,60.277.142a1.681,1.681,0,0,1,1.612.775A1.735,1.735,0,0,1,61.961,2.7L59.318,7.565a3.428,3.428,0,0,0,1.935,4.884,6.973,6.973,0,0,1,4.734,6.617,6.65,6.65,0,0,1-.195,1.64,10.512,10.512,0,0,0-.288,2.463,10.246,10.246,0,0,0,5.575,9.08A14.915,14.915,0,0,1,73.6,33.767a1.74,1.74,0,0,1,.636,1.827c-.156.594-.337,1.164-.524,1.754l-3.043,9.386a73.088,73.088,0,0,0-3.227,14.9l-1.525,14A8.713,8.713,0,0,1,57.2,83.366ZM39.209,47.935a9,9,0,0,1,8.9,7.329L52,75.641a5.305,5.305,0,0,0,10.462-.382l1.525-14a75.849,75.849,0,0,1,3.38-15.6l2.949-9.094c.08-.25.153-.472.219-.677q-.469-.276-.98-.521a13.7,13.7,0,0,1-7.128-15.5,3.214,3.214,0,0,0,.087-.792,3.5,3.5,0,0,0-2.362-3.324,6.906,6.906,0,0,1-3.89-9.837l.976-1.8a41.111,41.111,0,0,0-9.191,3.223,19.455,19.455,0,0,1-17.691,0A34.828,34.828,0,0,0,15.207,3.474,10.422,10.422,0,0,0,4.474,13.721,73.318,73.318,0,0,0,8.107,36.559l2.953,9.1a76.115,76.115,0,0,1,3.376,15.6l1.525,14a5.3,5.3,0,0,0,10.459.386l3.89-20.393A9,9,0,0,1,39.209,47.935Z" transform="translate(-1)"/></svg>