<svg width="28" height="28" viewBox="0 0 28 28" fill="none" xmlns="http://www.w3.org/2000/svg">
<path d="M21.6108 18.9431C21.8265 18.7274 22.1761 18.7274 22.3918 18.9431C23.3678 19.9191 24.8148 20.1374 26.0013 19.5978V24.667C26.7377 24.667 27.3346 25.2639 27.3346 26.0003C27.3346 26.7367 26.7377 27.3337 26.0013 27.3337H2.0013C1.26493 27.3337 0.667969 26.7367 0.667969 26.0003C0.667969 25.2639 1.26493 24.667 2.0013 24.667V19.5978C3.18788 20.1374 4.63474 19.9191 5.61078 18.9431C5.82646 18.7274 6.17614 18.7274 6.39182 18.9431C7.6489 20.2002 9.68704 20.2002 10.9441 18.9431C11.1598 18.7274 11.5094 18.7274 11.7252 18.9431C12.9822 20.2002 15.0204 20.2002 16.2774 18.9431C16.4932 18.7274 16.8428 18.7274 17.0585 18.9431C18.3156 20.2002 20.3537 20.2002 21.6108 18.9431ZM19.3346 6.00033C20.071 6.00033 20.668 6.59729 20.668 7.33366V10.0003H22.0013C24.2105 10.0003 26.0013 11.7911 26.0013 14.0003V16.1147L25.0585 17.0575C24.8428 17.2733 24.4932 17.2733 24.2774 17.0575C23.0204 15.8005 20.9822 15.8005 19.7252 17.0575C19.5094 17.2733 19.1598 17.2733 18.9441 17.0575C17.687 15.8005 15.6489 15.8005 14.3918 17.0575C14.1761 17.2733 13.8265 17.2733 13.6108 17.0575C12.3537 15.8005 10.3156 15.8005 9.05849 17.0575C8.84281 17.2733 8.49313 17.2733 8.27745 17.0575C7.02037 15.8005 4.98224 15.8005 3.72516 17.0575C3.50948 17.2733 3.1598 17.2733 2.94412 17.0575L2.0013 16.1147V14.0003C2.0013 11.7911 3.79217 10.0003 6.0013 10.0003H7.33463V7.33366C7.33463 6.59729 7.93159 6.00033 8.66797 6.00033C9.40434 6.00033 10.0013 6.59729 10.0013 7.33366V10.0003H12.668V7.33366C12.668 6.59729 13.2649 6.00033 14.0013 6.00033C14.7377 6.00033 15.3346 6.59729 15.3346 7.33366V10.0003H18.0013V7.33366C18.0013 6.59729 18.5982 6.00033 19.3346 6.00033ZM14.668 0.666992C14.2429 1.51714 14.6309 2.06791 14.968 2.54634C15.1596 2.81826 15.3346 3.06681 15.3346 3.33366C15.3346 4.07003 14.7377 4.66699 14.0013 4.66699C13.2649 4.66699 12.668 4.07003 12.668 3.33366C12.668 2.59729 13.3346 1.33366 14.668 0.666992ZM9.33463 0.666992C8.90955 1.51714 9.29758 2.06791 9.63463 2.54634C9.8262 2.81826 10.0013 3.06681 10.0013 3.33366C10.0013 4.07003 9.40434 4.66699 8.66797 4.66699C7.93159 4.66699 7.33463 4.07003 7.33463 3.33366C7.33463 2.59729 8.0013 1.33366 9.33463 0.666992ZM20.0013 0.666992C19.5762 1.51714 19.9642 2.06791 20.3013 2.54634C20.4929 2.81826 20.668 3.06681 20.668 3.33366C20.668 4.07003 20.071 4.66699 19.3346 4.66699C18.5982 4.66699 18.0013 4.07003 18.0013 3.33366C18.0013 2.59729 18.668 1.33366 20.0013 0.666992Z" fill="white"/>
</svg>
