<svg xmlns="http://www.w3.org/2000/svg" width="134.18" height="161.45" viewBox="0 0 134.18 161.45"><defs><style>.a{fill:#fff;}</style></defs><g transform="translate(-7.911 -1.998)"><path class="a" d="M57.012,92.128c-20.8-.678-25.79-18.488-26.858-24.238A9.029,9.029,0,0,1,25.1,64.678,10.164,10.164,0,0,1,23.2,57.759a9.544,9.544,0,0,1,2.251-7.42,6.979,6.979,0,0,1,1.681-1.269,36.683,36.683,0,0,1-5.466-20.836C24.077,11.03,37.943,9.355,42.285,9.258a20.331,20.331,0,0,1,7.309-5.39,25.757,25.757,0,0,1,16.557-.923c10.752,2.807,17.923,8.19,21.325,16,4.843,11.1.6,23.882-1.845,29.621a7.063,7.063,0,0,1,2.519,1.446,9.251,9.251,0,0,1,2.574,7.752,10.148,10.148,0,0,1-1.891,6.919,9.043,9.043,0,0,1-5.06,3.213C82.7,73.641,77.727,91.45,57.012,92.128ZM30.989,52.759a3.121,3.121,0,0,0-2.228.793,5.5,5.5,0,0,0-.943,4.126,2.369,2.369,0,0,1-.016.461,5.7,5.7,0,0,0,.966,3.748,5.265,5.265,0,0,0,3.69,1.748,2.306,2.306,0,0,1,2.027,2.094c.076.858,2.122,21.119,22.531,21.788,20.3-.669,22.351-20.93,22.427-21.793a2.306,2.306,0,0,1,2.027-2.09,5.261,5.261,0,0,0,3.69-1.748,5.706,5.706,0,0,0,.966-3.766,2.414,2.414,0,0,1-.016-.447,5.5,5.5,0,0,0-1.04-4.234,3.5,3.5,0,0,0-2.5-.655,2.306,2.306,0,0,1-2.433-3.365c.085-.161,8.534-16.2,3.1-28.657C80.426,14.323,74.289,9.828,64.992,7.4a21.124,21.124,0,0,0-13.545.692,15.51,15.51,0,0,0-6.213,4.862,2.286,2.286,0,0,1-2.046.923c-.6-.048-14.719-.962-16.933,14.825h0s-.639,12.558,6.635,20.169a2.306,2.306,0,0,1,.438,2.537,2.184,2.184,0,0,1-2.184,1.363Z" transform="translate(17.932)"/><path class="a" d="M78.138,41.617a2.306,2.306,0,0,1-2.306-2.21c-.028-.6-.743-14.53-11.144-15.87A35.117,35.117,0,0,1,37.9,15.778c-2.941,2.212-9.717,8.935-8.414,23.274a2.306,2.306,0,0,1-4.585.417C22.993,18.433,36.5,11.131,37.076,10.831a2.306,2.306,0,0,1,2.662.378,30.8,30.8,0,0,0,24.507,7.733,2.579,2.579,0,0,1,.639-.023c11.726,1.22,15.307,13.817,15.561,20.3a2.306,2.306,0,0,1-2.21,2.394Z" transform="translate(21.958 11.197)"/><path class="a" d="M139.785,105.22H10.217a2.306,2.306,0,0,1-2.306-2.306V77.2A30.693,30.693,0,0,1,38.586,46.571h4.428a2.306,2.306,0,1,1,0,4.613H38.586A26.076,26.076,0,0,0,12.524,77.2v23.405H137.478V77.2A26.048,26.048,0,0,0,111.46,51.184h-4.747a2.306,2.306,0,1,1,0-4.613h4.747A30.675,30.675,0,0,1,142.091,77.2v25.711A2.306,2.306,0,0,1,139.785,105.22Z" transform="translate(0 58.229)"/><path class="a" d="M41.649,109.6a2.306,2.306,0,0,1-2.281-2.65L48.7,45.179a2.306,2.306,0,0,1,2.945-1.864L67.754,48.17a2.306,2.306,0,0,1,1.4,3.229l-6.4,12.846,3.713,4.168A2.306,2.306,0,0,1,66.7,71.16L43.609,108.507A2.306,2.306,0,0,1,41.649,109.6ZM52.867,48.5l-7.254,48L61.88,70.21l-3.6-4.048a2.306,2.306,0,0,1-.344-2.562l5.877-11.795Z" transform="translate(41.06 53.848)"/><path class="a" d="M49.264,109.6A2.307,2.307,0,0,1,47.3,108.5l-23.1-37.34a2.306,2.306,0,0,1,.231-2.747l3.713-4.168L21.747,51.4a2.306,2.306,0,0,1,1.4-3.229l16.108-4.855A2.306,2.306,0,0,1,42.2,45.182l9.338,61.771a2.306,2.306,0,0,1-2.274,2.643ZM29.033,70.2,45.3,96.491l-7.254-48L27.1,51.794l5.874,11.795a2.306,2.306,0,0,1-.341,2.562Z" transform="translate(17.764 53.852)"/><path class="a" d="M46.655,56.474a125.046,125.046,0,0,1-14.92-.9,2.306,2.306,0,1,1,.549-4.578,116.28,116.28,0,0,0,28.384,0,2.306,2.306,0,1,1,.577,4.576,116.477,116.477,0,0,1-14.59.906Z" transform="translate(28.385 63.972)"/><path class="a" d="M47.764,55.537a2.307,2.307,0,0,1-1.845-.934c-3.427-4.634-4.048-13.817-4.105-14.848a2.306,2.306,0,0,1,2.168-2.436,2.332,2.332,0,0,1,2.436,2.168c.141,2.426.994,9.38,3.208,12.374a2.306,2.306,0,0,1-1.845,3.676Z" transform="translate(44.284 46.139)"/><path class="a" d="M30.795,55.541a2.306,2.306,0,0,1-1.845-3.676c2.219-3,3.07-9.95,3.21-12.374a2.31,2.31,0,1,1,4.613.268c-.058,1.031-.692,10.215-4.105,14.848a2.306,2.306,0,0,1-1.873.934Z" transform="translate(26.895 46.136)"/><path class="a" d="M62.469,72.8a2.306,2.306,0,0,1-2.306-2.24c-.431-15.019-6.142-19.745-6.2-19.791a2.322,2.322,0,0,1-.4-3.229,2.293,2.293,0,0,1,3.194-.443c.3.231,7.512,5.828,8.017,23.329A2.306,2.306,0,0,1,62.538,72.8Z" transform="translate(59.017 58.321)"/><path class="a" d="M62.325,74.216A9.117,9.117,0,1,1,71.44,65.1a9.117,9.117,0,0,1-9.115,9.116Zm0-13.621a4.5,4.5,0,1,0,4.5,4.5,4.5,4.5,0,0,0-4.5-4.5Z" transform="translate(59.172 70.523)"/><path class="a" d="M17.452,72.729a2.306,2.306,0,0,1-2.306-2.143c-1.257-17.7,8.5-23.359,8.912-23.592a2.307,2.307,0,1,1,2.267,4.018c-.351.208-7.611,4.689-6.58,19.249a2.306,2.306,0,0,1-2.138,2.463Z" transform="translate(9.305 58.393)"/><path class="a" d="M16.834,79.372a2.306,2.306,0,0,1-1.845-.909,14.418,14.418,0,0,1-2.442-4.954A13.866,13.866,0,0,1,21.609,56.23a12.916,12.916,0,0,1,9.917,1.227,14.8,14.8,0,0,1,7.2,15.25,2.306,2.306,0,0,1-4.551-.756,10.2,10.2,0,0,0-4.9-10.471,8.346,8.346,0,0,0-6.407-.814A9.258,9.258,0,0,0,16.984,72.28a9.841,9.841,0,0,0,1.674,3.39,2.306,2.306,0,0,1-1.834,3.7Z" transform="translate(5.256 70.217)"/><path class="a" d="M25.357,66.726a1.829,1.829,0,0,1-.274-.014l-2.6-.307a2.307,2.307,0,0,1,.544-4.583l2.6.309a2.306,2.306,0,0,1-.27,4.6Z" transform="translate(16.377 78.131)"/><path class="a" d="M15.367,69.193a2.306,2.306,0,0,1-.8-4.47L17.332,63.7a2.308,2.308,0,1,1,1.614,4.324L16.179,69.05a2.3,2.3,0,0,1-.812.143Z" transform="translate(6.723 80.417)"/></g></svg>