<svg width="196" height="97" viewBox="0 0 196 97" fill="none" xmlns="http://www.w3.org/2000/svg">
<path fill-rule="evenodd" clip-rule="evenodd" d="M6.27882 1.64C6.27882 0.73425 7.01307 0 7.91882 0C8.82457 0 9.55882 0.73425 9.55882 1.64C9.55882 2.54575 8.82457 3.28 7.91882 3.28C7.01307 3.28 6.27882 2.54575 6.27882 1.64Z" fill="#1466CF"/>
<path fill-rule="evenodd" clip-rule="evenodd" d="M29.5613 1.64C29.5613 0.73425 30.2956 0 31.2013 0C32.1071 0 32.8413 0.73425 32.8413 1.64C32.8413 2.54575 32.1071 3.28 31.2013 3.28C30.2956 3.28 29.5613 2.54575 29.5613 1.64Z" fill="#1466CF"/>
<path fill-rule="evenodd" clip-rule="evenodd" d="M52.8399 1.64C52.8399 0.73425 53.5742 0 54.4799 0C55.3857 0 56.1199 0.73425 56.1199 1.64C56.1199 2.54575 55.3857 3.28 54.4799 3.28C53.5742 3.28 52.8399 2.54575 52.8399 1.64Z" fill="#1466CF"/>
<path fill-rule="evenodd" clip-rule="evenodd" d="M76.1185 1.64C76.1185 0.73425 76.8528 0 77.7585 0C78.6643 0 79.3985 0.73425 79.3985 1.64C79.3985 2.54575 78.6643 3.28 77.7585 3.28C76.8528 3.28 76.1185 2.54575 76.1185 1.64Z" fill="#1466CF"/>
<path fill-rule="evenodd" clip-rule="evenodd" d="M99.401 1.64C99.401 0.73425 100.135 0 101.041 0C101.947 0 102.681 0.73425 102.681 1.64C102.681 2.54575 101.947 3.28 101.041 3.28C100.135 3.28 99.401 2.54575 99.401 1.64Z" fill="#1466CF"/>
<path fill-rule="evenodd" clip-rule="evenodd" d="M122.68 1.64C122.68 0.73425 123.414 0 124.32 0C125.225 0 125.96 0.73425 125.96 1.64C125.96 2.54575 125.225 3.28 124.32 3.28C123.414 3.28 122.68 2.54575 122.68 1.64Z" fill="#1466CF"/>
<path fill-rule="evenodd" clip-rule="evenodd" d="M145.962 1.64C145.962 0.73425 146.696 0 147.602 0C148.508 0 149.242 0.73425 149.242 1.64C149.242 2.54575 148.508 3.28 147.602 3.28C146.696 3.28 145.962 2.54575 145.962 1.64Z" fill="#1466CF"/>
<path fill-rule="evenodd" clip-rule="evenodd" d="M169.241 1.64C169.241 0.73425 169.975 0 170.881 0C171.786 0 172.521 0.73425 172.521 1.64C172.521 2.54575 171.786 3.28 170.881 3.28C169.975 3.28 169.241 2.54575 169.241 1.64Z" fill="#1466CF"/>
<path fill-rule="evenodd" clip-rule="evenodd" d="M192.519 1.64C192.519 0.73425 193.254 0 194.159 0C195.065 0 195.799 0.73425 195.799 1.64C195.799 2.54575 195.065 3.28 194.159 3.28C193.254 3.28 192.519 2.54575 192.519 1.64Z" fill="#1466CF"/>
<path fill-rule="evenodd" clip-rule="evenodd" d="M6.27882 24.9201C6.27882 24.0143 7.01307 23.2801 7.91882 23.2801C8.82457 23.2801 9.55882 24.0143 9.55882 24.9201C9.55882 25.8258 8.82457 26.5601 7.91882 26.5601C7.01307 26.5601 6.27882 25.8258 6.27882 24.9201Z" fill="#1466CF"/>
<path fill-rule="evenodd" clip-rule="evenodd" d="M29.5613 24.9201C29.5613 24.0143 30.2956 23.2801 31.2013 23.2801C32.1071 23.2801 32.8413 24.0143 32.8413 24.9201C32.8413 25.8258 32.1071 26.5601 31.2013 26.5601C30.2956 26.5601 29.5613 25.8258 29.5613 24.9201Z" fill="#1466CF"/>
<path fill-rule="evenodd" clip-rule="evenodd" d="M52.8399 24.9201C52.8399 24.0143 53.5742 23.2801 54.4799 23.2801C55.3857 23.2801 56.1199 24.0143 56.1199 24.9201C56.1199 25.8258 55.3857 26.5601 54.4799 26.5601C53.5742 26.5601 52.8399 25.8258 52.8399 24.9201Z" fill="#1466CF"/>
<path fill-rule="evenodd" clip-rule="evenodd" d="M76.1185 24.9201C76.1185 24.0143 76.8528 23.2801 77.7585 23.2801C78.6643 23.2801 79.3985 24.0143 79.3985 24.9201C79.3985 25.8258 78.6643 26.5601 77.7585 26.5601C76.8528 26.5601 76.1185 25.8258 76.1185 24.9201Z" fill="#1466CF"/>
<path fill-rule="evenodd" clip-rule="evenodd" d="M99.401 24.9201C99.401 24.0143 100.135 23.2801 101.041 23.2801C101.947 23.2801 102.681 24.0143 102.681 24.9201C102.681 25.8258 101.947 26.5601 101.041 26.5601C100.135 26.5601 99.401 25.8258 99.401 24.9201Z" fill="#1466CF"/>
<path fill-rule="evenodd" clip-rule="evenodd" d="M122.68 24.9201C122.68 24.0143 123.414 23.2801 124.32 23.2801C125.225 23.2801 125.96 24.0143 125.96 24.9201C125.96 25.8258 125.225 26.5601 124.32 26.5601C123.414 26.5601 122.68 25.8258 122.68 24.9201Z" fill="#1466CF"/>
<path fill-rule="evenodd" clip-rule="evenodd" d="M145.962 24.9201C145.962 24.0143 146.696 23.2801 147.602 23.2801C148.508 23.2801 149.242 24.0143 149.242 24.9201C149.242 25.8258 148.508 26.5601 147.602 26.5601C146.696 26.5601 145.962 25.8258 145.962 24.9201Z" fill="#1466CF"/>
<path fill-rule="evenodd" clip-rule="evenodd" d="M169.241 24.9201C169.241 24.0143 169.975 23.2801 170.881 23.2801C171.786 23.2801 172.521 24.0143 172.521 24.9201C172.521 25.8258 171.786 26.5601 170.881 26.5601C169.975 26.5601 169.241 25.8258 169.241 24.9201Z" fill="#1466CF"/>
<path fill-rule="evenodd" clip-rule="evenodd" d="M192.519 24.9201C192.519 24.0143 193.254 23.2801 194.159 23.2801C195.065 23.2801 195.799 24.0143 195.799 24.9201C195.799 25.8258 195.065 26.5601 194.159 26.5601C193.254 26.5601 192.519 25.8258 192.519 24.9201Z" fill="#1466CF"/>
<path fill-rule="evenodd" clip-rule="evenodd" d="M6.27882 48.2001C6.27882 47.2944 7.01307 46.5601 7.91882 46.5601C8.82457 46.5601 9.55882 47.2944 9.55882 48.2001C9.55882 49.1059 8.82457 49.8401 7.91882 49.8401C7.01307 49.8401 6.27882 49.1059 6.27882 48.2001Z" fill="#1466CF"/>
<path fill-rule="evenodd" clip-rule="evenodd" d="M29.5613 48.2001C29.5613 47.2944 30.2956 46.5601 31.2013 46.5601C32.1071 46.5601 32.8413 47.2944 32.8413 48.2001C32.8413 49.1059 32.1071 49.8401 31.2013 49.8401C30.2956 49.8401 29.5613 49.1059 29.5613 48.2001Z" fill="#1466CF"/>
<path fill-rule="evenodd" clip-rule="evenodd" d="M52.8399 48.2001C52.8399 47.2944 53.5742 46.5601 54.4799 46.5601C55.3857 46.5601 56.1199 47.2944 56.1199 48.2001C56.1199 49.1059 55.3857 49.8401 54.4799 49.8401C53.5742 49.8401 52.8399 49.1059 52.8399 48.2001Z" fill="#1466CF"/>
<path fill-rule="evenodd" clip-rule="evenodd" d="M76.1185 48.2001C76.1185 47.2944 76.8528 46.5601 77.7585 46.5601C78.6643 46.5601 79.3985 47.2944 79.3985 48.2001C79.3985 49.1059 78.6643 49.8401 77.7585 49.8401C76.8528 49.8401 76.1185 49.1059 76.1185 48.2001Z" fill="#1466CF"/>
<path fill-rule="evenodd" clip-rule="evenodd" d="M99.401 48.2001C99.401 47.2944 100.135 46.5601 101.041 46.5601C101.947 46.5601 102.681 47.2944 102.681 48.2001C102.681 49.1059 101.947 49.8401 101.041 49.8401C100.135 49.8401 99.401 49.1059 99.401 48.2001Z" fill="#1466CF"/>
<path fill-rule="evenodd" clip-rule="evenodd" d="M122.68 48.2001C122.68 47.2944 123.414 46.5601 124.32 46.5601C125.225 46.5601 125.96 47.2944 125.96 48.2001C125.96 49.1059 125.225 49.8401 124.32 49.8401C123.414 49.8401 122.68 49.1059 122.68 48.2001Z" fill="#1466CF"/>
<path fill-rule="evenodd" clip-rule="evenodd" d="M145.962 48.2001C145.962 47.2944 146.696 46.5601 147.602 46.5601C148.508 46.5601 149.242 47.2944 149.242 48.2001C149.242 49.1059 148.508 49.8401 147.602 49.8401C146.696 49.8401 145.962 49.1059 145.962 48.2001Z" fill="#1466CF"/>
<path fill-rule="evenodd" clip-rule="evenodd" d="M169.241 48.2001C169.241 47.2944 169.975 46.5601 170.881 46.5601C171.786 46.5601 172.521 47.2944 172.521 48.2001C172.521 49.1059 171.786 49.8401 170.881 49.8401C169.975 49.8401 169.241 49.1059 169.241 48.2001Z" fill="#1466CF"/>
<path fill-rule="evenodd" clip-rule="evenodd" d="M192.519 48.2001C192.519 47.2944 193.254 46.5601 194.159 46.5601C195.065 46.5601 195.799 47.2944 195.799 48.2001C195.799 49.1059 195.065 49.8401 194.159 49.8401C193.254 49.8401 192.519 49.1059 192.519 48.2001Z" fill="#1466CF"/>
<path fill-rule="evenodd" clip-rule="evenodd" d="M6.27882 71.4801C6.27882 70.5743 7.01307 69.8401 7.91882 69.8401C8.82457 69.8401 9.55882 70.5743 9.55882 71.4801C9.55882 72.3858 8.82457 73.1201 7.91882 73.1201C7.01307 73.1201 6.27882 72.3858 6.27882 71.4801Z" fill="#1466CF"/>
<path fill-rule="evenodd" clip-rule="evenodd" d="M29.5613 71.4801C29.5613 70.5743 30.2956 69.8401 31.2013 69.8401C32.1071 69.8401 32.8413 70.5743 32.8413 71.4801C32.8413 72.3858 32.1071 73.1201 31.2013 73.1201C30.2956 73.1201 29.5613 72.3858 29.5613 71.4801Z" fill="#1466CF"/>
<path fill-rule="evenodd" clip-rule="evenodd" d="M52.8399 71.4801C52.8399 70.5743 53.5742 69.8401 54.4799 69.8401C55.3857 69.8401 56.1199 70.5743 56.1199 71.4801C56.1199 72.3858 55.3857 73.1201 54.4799 73.1201C53.5742 73.1201 52.8399 72.3858 52.8399 71.4801Z" fill="#1466CF"/>
<path fill-rule="evenodd" clip-rule="evenodd" d="M76.1185 71.4801C76.1185 70.5743 76.8528 69.8401 77.7585 69.8401C78.6643 69.8401 79.3985 70.5743 79.3985 71.4801C79.3985 72.3858 78.6643 73.1201 77.7585 73.1201C76.8528 73.1201 76.1185 72.3858 76.1185 71.4801Z" fill="#1466CF"/>
<path fill-rule="evenodd" clip-rule="evenodd" d="M99.401 71.4801C99.401 70.5743 100.135 69.8401 101.041 69.8401C101.947 69.8401 102.681 70.5743 102.681 71.4801C102.681 72.3858 101.947 73.1201 101.041 73.1201C100.135 73.1201 99.401 72.3858 99.401 71.4801Z" fill="#1466CF"/>
<path fill-rule="evenodd" clip-rule="evenodd" d="M122.68 71.4801C122.68 70.5743 123.414 69.8401 124.32 69.8401C125.225 69.8401 125.96 70.5743 125.96 71.4801C125.96 72.3858 125.225 73.1201 124.32 73.1201C123.414 73.1201 122.68 72.3858 122.68 71.4801Z" fill="#1466CF"/>
<path fill-rule="evenodd" clip-rule="evenodd" d="M145.962 71.4801C145.962 70.5743 146.696 69.8401 147.602 69.8401C148.508 69.8401 149.242 70.5743 149.242 71.4801C149.242 72.3858 148.508 73.1201 147.602 73.1201C146.696 73.1201 145.962 72.3858 145.962 71.4801Z" fill="#1466CF"/>
<path fill-rule="evenodd" clip-rule="evenodd" d="M169.241 71.4801C169.241 70.5743 169.975 69.8401 170.881 69.8401C171.786 69.8401 172.521 70.5743 172.521 71.4801C172.521 72.3858 171.786 73.1201 170.881 73.1201C169.975 73.1201 169.241 72.3858 169.241 71.4801Z" fill="#1466CF"/>
<path fill-rule="evenodd" clip-rule="evenodd" d="M192.519 71.4801C192.519 70.5743 193.254 69.8401 194.159 69.8401C195.065 69.8401 195.799 70.5743 195.799 71.4801C195.799 72.3858 195.065 73.1201 194.159 73.1201C193.254 73.1201 192.519 72.3858 192.519 71.4801Z" fill="#1466CF"/>
<path fill-rule="evenodd" clip-rule="evenodd" d="M6.27882 94.7601C6.27882 93.8544 7.01307 93.1201 7.91882 93.1201C8.82457 93.1201 9.55882 93.8544 9.55882 94.7601C9.55882 95.6659 8.82457 96.4001 7.91882 96.4001C7.01307 96.4001 6.27882 95.6659 6.27882 94.7601Z" fill="#1466CF"/>
<path fill-rule="evenodd" clip-rule="evenodd" d="M29.5613 94.7601C29.5613 93.8544 30.2956 93.1201 31.2013 93.1201C32.1071 93.1201 32.8413 93.8544 32.8413 94.7601C32.8413 95.6659 32.1071 96.4001 31.2013 96.4001C30.2956 96.4001 29.5613 95.6659 29.5613 94.7601Z" fill="#1466CF"/>
<path fill-rule="evenodd" clip-rule="evenodd" d="M52.8399 94.7601C52.8399 93.8544 53.5742 93.1201 54.4799 93.1201C55.3857 93.1201 56.1199 93.8544 56.1199 94.7601C56.1199 95.6659 55.3857 96.4001 54.4799 96.4001C53.5742 96.4001 52.8399 95.6659 52.8399 94.7601Z" fill="#1466CF"/>
<path fill-rule="evenodd" clip-rule="evenodd" d="M76.1185 94.7601C76.1185 93.8544 76.8528 93.1201 77.7585 93.1201C78.6643 93.1201 79.3985 93.8544 79.3985 94.7601C79.3985 95.6659 78.6643 96.4001 77.7585 96.4001C76.8528 96.4001 76.1185 95.6659 76.1185 94.7601Z" fill="#1466CF"/>
<path fill-rule="evenodd" clip-rule="evenodd" d="M99.401 94.7601C99.401 93.8544 100.135 93.1201 101.041 93.1201C101.947 93.1201 102.681 93.8544 102.681 94.7601C102.681 95.6659 101.947 96.4001 101.041 96.4001C100.135 96.4001 99.401 95.6659 99.401 94.7601Z" fill="#1466CF"/>
<path fill-rule="evenodd" clip-rule="evenodd" d="M122.68 94.7601C122.68 93.8544 123.414 93.1201 124.32 93.1201C125.225 93.1201 125.96 93.8544 125.96 94.7601C125.96 95.6659 125.225 96.4001 124.32 96.4001C123.414 96.4001 122.68 95.6659 122.68 94.7601Z" fill="#1466CF"/>
<path fill-rule="evenodd" clip-rule="evenodd" d="M145.962 94.7601C145.962 93.8544 146.696 93.1201 147.602 93.1201C148.508 93.1201 149.242 93.8544 149.242 94.7601C149.242 95.6659 148.508 96.4001 147.602 96.4001C146.696 96.4001 145.962 95.6659 145.962 94.7601Z" fill="#1466CF"/>
<path fill-rule="evenodd" clip-rule="evenodd" d="M169.241 94.7601C169.241 93.8544 169.975 93.1201 170.881 93.1201C171.786 93.1201 172.521 93.8544 172.521 94.7601C172.521 95.6659 171.786 96.4001 170.881 96.4001C169.975 96.4001 169.241 95.6659 169.241 94.7601Z" fill="#1466CF"/>
<path fill-rule="evenodd" clip-rule="evenodd" d="M192.519 94.7601C192.519 93.8544 193.254 93.1201 194.159 93.1201C195.065 93.1201 195.799 93.8544 195.799 94.7601C195.799 95.6659 195.065 96.4001 194.159 96.4001C193.254 96.4001 192.519 95.6659 192.519 94.7601Z" fill="#1466CF"/>
</svg>
