<svg width="11" height="19" viewBox="0 0 11 19" fill="none" xmlns="http://www.w3.org/2000/svg">
<path fill-rule="evenodd" clip-rule="evenodd" d="M4.08901 1.49826C5.03906 0.538937 6.32751 0 7.67105 0H10.2763C10.676 0 11 0.32718 11 0.730769V4.23846C11 4.64205 10.676 4.96923 10.2763 4.96923H7.67105C7.63265 4.96923 7.59589 4.98463 7.56868 5.01203C7.54156 5.03944 7.52632 5.07662 7.52632 5.11538V7.01538H10.2763C10.4992 7.01538 10.7096 7.11906 10.8468 7.29643C10.9839 7.4738 11.0324 7.70504 10.9784 7.92339L10.11 11.4311C10.0294 11.7564 9.74002 11.9846 9.4079 11.9846H7.52632V18.2692C7.52632 18.6728 7.2023 19 6.80263 19H3.32895C2.92927 19 2.60526 18.6728 2.60526 18.2692V11.9846H0.723684C0.324008 11.9846 0 11.6574 0 11.2538V7.74615C0 7.34256 0.324008 7.01538 0.723684 7.01538H2.60526V5.11538C2.60526 3.7587 3.13898 2.45759 4.08901 1.49826ZM7.67105 1.46154C6.71135 1.46154 5.79102 1.8465 5.11239 2.53173C4.43387 3.21695 4.05263 4.14633 4.05263 5.11538V7.74615C4.05263 8.14973 3.72861 8.47692 3.32895 8.47692H1.44737V10.5231H3.32895C3.72861 10.5231 4.05263 10.8503 4.05263 11.2538V17.5385H6.07895V11.2538C6.07895 10.8503 6.40297 10.5231 6.80263 10.5231H8.84284L9.34942 8.47692H6.80263C6.40297 8.47692 6.07895 8.14973 6.07895 7.74615V5.11538C6.07895 4.689 6.24665 4.28008 6.54529 3.97857C6.84383 3.67707 7.24881 3.50769 7.67105 3.50769H9.55263V1.46154H7.67105Z" fill="#01385f"/>
</svg>
