<svg width="42" height="42" viewBox="0 0 42 42" fill="none" xmlns="http://www.w3.org/2000/svg">
<rect width="42" height="42" rx="21" fill="#FF7D61"/>
<path d="M15.9709 25.8301C16.2305 25.8301 16.4901 25.8301 16.8363 25.8301C17.2689 25.8301 17.7016 26.149 17.7016 26.6274C17.7016 27.0261 17.3555 27.4247 16.8363 27.4247C16.2305 27.4247 15.7113 27.4247 15.1056 27.4247C14.6729 27.4247 14.2402 27.0261 14.2402 26.6274C14.2402 26.2287 14.5864 25.8301 15.1056 25.8301C15.3652 25.8301 15.6248 25.8301 15.9709 25.8301Z" fill="white"/>
<path d="M26.0954 25.8301C26.355 25.8301 26.6146 25.8301 26.9608 25.8301C27.48 25.8301 27.8261 26.2287 27.8261 26.6274C27.8261 27.0261 27.48 27.4247 26.9608 27.4247C26.355 27.4247 25.8358 27.4247 25.2301 27.4247C24.7974 27.4247 24.3647 27.0261 24.3647 26.6274C24.3647 26.2287 24.7109 25.8301 25.2301 25.8301C25.4897 25.8301 25.8358 25.8301 26.0954 25.8301Z" fill="white"/>
<path d="M26.0954 22.7206C25.8358 22.7206 25.5762 22.7206 25.2301 22.7206C24.7109 22.7206 24.3647 22.322 24.3647 21.9233C24.3647 21.5246 24.7109 21.126 25.2301 21.126C25.7493 21.126 26.355 21.126 26.8742 21.126C27.3934 21.126 27.7396 21.4449 27.7396 21.9233C27.7396 22.4017 27.3934 22.7206 26.8742 22.7206C26.6146 22.7206 26.355 22.7206 26.0954 22.7206Z" fill="white"/>
<path d="M15.9709 21.126C16.2305 21.126 16.4901 21.126 16.8363 21.126C17.3555 21.126 17.7016 21.4449 17.7016 21.9233C17.7016 22.322 17.3555 22.7206 16.8363 22.7206C16.2305 22.7206 15.7113 22.7206 15.1056 22.7206C14.5864 22.7206 14.2402 22.322 14.2402 21.9233C14.2402 21.5246 14.5864 21.126 15.1056 21.126C15.3652 21.126 15.6248 21.126 15.9709 21.126Z" fill="white"/>
<path d="M20.9897 21.126C21.2493 21.126 21.5089 21.126 21.855 21.126C22.3742 21.126 22.7203 21.5246 22.7203 21.9233C22.7203 22.322 22.3742 22.7206 21.855 22.7206C21.2493 22.7206 20.7301 22.7206 20.1243 22.7206C19.6916 22.7206 19.259 22.322 19.259 21.9233C19.259 21.5246 19.6051 21.126 20.1243 21.126C20.4705 21.126 20.7301 21.126 20.9897 21.126Z" fill="white"/>
<path d="M20.9897 25.8301C21.2493 25.8301 21.5089 25.8301 21.8551 25.8301C22.3743 25.8301 22.7204 26.149 22.7204 26.6274C22.7204 27.0261 22.3743 27.4247 21.8551 27.4247C21.2493 27.4247 20.7301 27.4247 20.1244 27.4247C19.6052 27.4247 19.259 27.0261 19.259 26.6274C19.259 26.2287 19.6052 25.8301 20.1244 25.8301C20.4705 25.8301 20.7301 25.8301 20.9897 25.8301Z" fill="white"/>
<g clip-path="url(#clip0_7463_8672)">
<path d="M25.1052 33C22.421 33 19.8158 33 17.1316 33C17.0526 33 16.9737 33 16.8947 32.9211C15.8684 32.7632 14.921 32.4474 14.1316 31.7368C13.0263 30.7895 12.3947 29.5263 12.1579 28.1053C11.8421 26.6842 11.921 25.2632 12.2368 23.8421C12.9474 20.5263 14.3684 17.6053 16.6579 15.1579C16.6579 15.1579 16.7368 15.0789 16.8158 15C16.421 15 16.1052 15 15.7105 15C15.3158 15 15 14.6842 15 14.2895C15 13.8947 15.3158 13.5789 15.7105 13.5C16.0263 13.5 16.3421 13.5 16.6579 13.5C16.7368 13.5 16.8158 13.5 16.9737 13.5C16.3421 13.0263 15.7895 12.5526 15.2368 12.0789C14.6842 11.6053 14.4474 11.0526 14.6052 10.3421C14.8421 9.71053 15.2368 9.23684 15.9474 9.07895C15.9474 9 16.0263 9 16.0263 9C19.3421 9 22.6579 9 25.8947 9C25.8947 9 25.9737 9 25.9737 9.07895C26.6842 9.23684 27.0789 9.71053 27.2368 10.4211C27.3947 11.1316 27.1579 11.6842 26.6052 12.1579C26.3684 12.3947 26.1316 12.5526 25.8947 12.7105C25.5789 12.9474 25.2631 13.1842 24.9474 13.5C25.421 13.5 25.7368 13.5 26.1316 13.5C26.6052 13.5 26.921 13.8158 26.921 14.2105C26.921 14.6842 26.6052 15 26.1316 15C25.8158 15 25.5 15 25.1052 15C25.3421 15.2368 25.5 15.3947 25.6579 15.6316C28.0263 18.4737 29.5263 21.6316 29.8421 25.3421C30 26.7632 29.8421 28.2632 29.2895 29.6053C28.6579 31.2632 27.5526 32.3684 25.8158 32.8421C25.6579 32.8421 25.3421 32.9211 25.1052 33ZM21.0789 31.5C22.1842 31.5 23.2105 31.5 24.3158 31.5C24.7895 31.5 25.1842 31.4211 25.6579 31.3421C26.921 31.0263 27.6316 30.0789 28.0263 28.8947C28.5789 27.3947 28.5789 25.8158 28.2631 24.2368C27.8684 22.1053 27 20.1316 25.8947 18.3158C25.1052 17.1316 24.2368 16.0263 22.9737 15.1579C22.8947 15.0789 22.7368 15 22.5789 15C21.5526 15 20.5263 15 19.421 15C19.2631 15 19.1052 15.0789 19.0263 15.0789C18.3158 15.6316 17.6842 16.1842 17.1316 16.8947C15.3158 19.1053 14.1316 21.7105 13.6579 24.5526C13.421 25.8158 13.421 27.0789 13.8158 28.3421C14.3684 30.1579 15.5526 31.6579 18.0789 31.5789C19.0263 31.4211 20.0526 31.5 21.0789 31.5ZM21 10.5C19.5 10.5 18 10.5 16.5 10.5C16.3421 10.5 16.1842 10.5 16.1052 10.6579C16.0263 10.8158 16.1842 10.8947 16.3421 11.0526C17.2895 11.8421 18.3158 12.6316 19.2631 13.4211C19.3421 13.5 19.421 13.5 19.5 13.5C20.4474 13.5 21.3947 13.5 22.421 13.5C22.5 13.5 22.5789 13.5 22.6579 13.4211C23.6842 12.6316 24.7105 11.7632 25.7368 10.9737C25.8158 10.8947 25.8947 10.7368 25.8158 10.6579C25.8158 10.5789 25.6579 10.5 25.5 10.5C25.421 10.5 25.421 10.5 25.3421 10.5C23.921 10.5 22.421 10.5 21 10.5Z" fill="white"/>
<path d="M22.9737 21.3158C22.9737 21.3947 22.8947 21.5526 22.8947 21.6315C22.1053 23.4473 21.3158 25.1842 20.4474 27C20.2895 27.3947 19.9737 27.5526 19.6579 27.5526C19.3421 27.4737 19.0263 27.2368 19.0263 26.921C19.0263 26.7631 19.0263 26.6052 19.1053 26.5263C19.8947 24.7105 20.7631 22.8947 21.5526 21.0789C21.7105 20.7631 22.0263 20.6052 22.421 20.6842C22.7368 20.6052 22.9737 20.921 22.9737 21.3158Z" fill="white"/>
<path d="M18.9474 22.4999C18.3947 22.4999 18 22.0262 18 21.4736C18 20.9209 18.4737 20.4473 19.0263 20.4473C19.5789 20.4473 20.0526 20.9209 20.0526 21.4736C19.9737 22.0262 19.5 22.4999 18.9474 22.4999Z" fill="white"/>
<path d="M24 26.4472C24 26.9998 23.5263 27.4735 22.9736 27.4735C22.421 27.4735 21.9473 26.9998 21.9473 26.4472C21.9473 25.8946 22.421 25.4209 22.9736 25.4209C23.5263 25.4998 24 25.8946 24 26.4472Z" fill="white"/>
</g>
<defs>
<clipPath id="clip0_7463_8672">
<rect width="18" height="24" fill="white" transform="translate(12 9)"/>
</clipPath>
</defs>
</svg>
