<svg width="26" height="32" viewBox="0 0 26 32" fill="none" xmlns="http://www.w3.org/2000/svg">
<path d="M13.7382 10.6904C12.9668 9.91612 12.0275 9.30437 10.9833 8.90724C10.4903 9.45512 10.1546 10.1221 10.0144 10.8454C9.97632 11.0404 9.95344 11.2359 9.94294 11.4304C10.0288 11.4599 10.1127 11.4914 10.1948 11.5272C11.1044 11.9129 11.8854 12.5585 12.4328 13.3719C12.8723 14.0222 13.1641 14.7751 13.2624 15.5909C13.2881 15.7944 13.3005 16.0019 13.3005 16.2136C13.3005 16.9202 13.1584 17.5858 12.9019 18.1932C12.5834 18.9422 12.0904 19.6049 11.4716 20.1204C11.34 20.2314 11.2017 20.3345 11.0587 20.4312C10.2453 20.9805 9.27457 21.299 8.21513 21.299C7.51044 21.299 6.84582 21.1564 6.23744 20.9004C5.32582 20.5147 4.54769 19.8686 3.99844 19.0557C3.45107 18.2437 3.13257 17.2706 3.13257 16.2136C3.13257 15.5074 3.27276 14.8428 3.53019 14.2339C3.87638 13.4167 4.43419 12.7035 5.13507 12.1709C5.12169 11.9864 5.11594 11.8019 5.11594 11.6174C5.11594 10.6696 5.26469 9.74455 5.54794 8.87012C4.46369 9.26443 3.49107 9.89137 2.69388 10.6905C1.28069 12.0994 0.403382 14.0604 0.406257 16.2136C0.403445 18.3673 1.28076 20.3283 2.69388 21.7377C3.87057 22.9162 5.43063 23.7187 7.16613 23.9518V26.3863H3.54732V28.4832H7.16613V31.9999H9.26401V28.4831H12.8857V26.3862H9.26401V23.9517C11.0005 23.7186 12.5624 22.9162 13.7382 21.7376C14.1311 21.3447 14.4811 20.9109 14.7852 20.4412C15.5719 19.2231 16.0287 17.7674 16.0268 16.2136C16.0268 15.8489 16.001 15.4879 15.9533 15.1361C15.714 13.41 14.9111 11.8604 13.7382 10.6904Z" fill="white"/>
<path d="M18.8132 0V2.09694H22.0134L18.7064 5.40394C17.3141 4.34262 15.6406 3.80619 13.9757 3.80769C11.9817 3.80619 9.9745 4.57144 8.45256 6.09625C7.36356 7.18237 6.66369 8.51587 6.35087 9.91625C6.34706 9.93338 6.34519 9.95056 6.34037 9.96488C6.328 10.0192 6.3175 10.0741 6.30706 10.1261C6.28794 10.2271 6.27081 10.3278 6.25463 10.4283C6.24413 10.4889 6.23556 10.5523 6.22888 10.6128C6.2165 10.7049 6.206 10.7993 6.19837 10.8936C6.19362 10.948 6.18787 11.0029 6.18506 11.0572C6.18319 11.0844 6.18125 11.112 6.17937 11.1411C6.17456 11.1959 6.17269 11.2522 6.17075 11.3065C6.16694 11.4095 6.16406 11.5144 6.16406 11.6174C6.16406 11.697 6.16694 11.7766 6.16887 11.8581C6.17269 11.9382 6.1775 12.0174 6.18125 12.0994L6.19363 12.2758C6.19363 12.3049 6.19837 12.3344 6.20025 12.3659C6.36812 14.1081 7.12044 15.8112 8.45256 17.1409C9.25931 17.9482 10.2033 18.5432 11.2074 18.9232C11.5116 18.588 11.7596 18.1999 11.9379 17.7822C12.1219 17.3441 12.2268 16.8806 12.2478 16.4024C11.566 16.1574 10.929 15.7631 10.3798 15.2138C9.88294 14.7146 9.51106 14.1439 9.26406 13.5317C9.08769 13.0992 8.97419 12.6463 8.92456 12.1895C8.89219 11.9191 8.88456 11.6464 8.89694 11.3761C8.90075 11.3089 8.9055 11.2441 8.90931 11.1788C8.91406 11.1306 8.91787 11.0824 8.92644 11.0338C8.92644 11.0152 8.93025 10.9966 8.93219 10.9776C8.93694 10.9313 8.94269 10.8832 8.95125 10.8374C8.96175 10.7744 8.97225 10.7091 8.98462 10.6467C9.03987 10.3611 9.11906 10.0802 9.22394 9.8075C9.24306 9.75744 9.26206 9.70931 9.285 9.65875C9.306 9.60631 9.32881 9.55387 9.35363 9.50144C9.37463 9.449 9.39944 9.3965 9.42706 9.346C9.44994 9.29406 9.47756 9.2435 9.50719 9.19344C9.64544 8.93694 9.80856 8.69 9.99544 8.45487C10.0336 8.40675 10.0736 8.35862 10.1128 8.31231C10.1995 8.21362 10.2873 8.11731 10.3816 8.02294C10.4989 7.90563 10.6181 7.79644 10.7421 7.69581C11.1483 7.35825 11.5936 7.09363 12.0608 6.90531C12.9772 6.53394 13.9861 6.4395 14.9482 6.62638C15.9114 6.81325 16.8229 7.27387 17.5725 8.02287C18.0712 8.52206 18.4403 9.09275 18.6873 9.7045C19.0611 10.6209 19.1555 11.6278 18.9686 12.5905C18.7798 13.5526 18.3182 14.4648 17.5725 15.2138C17.4085 15.3773 17.2369 15.5285 17.0586 15.6624C17.069 15.8469 17.0748 16.0315 17.0748 16.2136C17.0776 17.1533 16.9279 18.0797 16.6409 18.9608C17.6851 18.5832 18.6643 17.9753 19.4988 17.1409C21.0216 15.6204 21.7893 13.6132 21.7873 11.6173C21.7892 9.95187 21.2524 8.28125 20.1891 6.88662L23.4961 3.57962V6.78125H25.593V0H18.8132Z" fill="white"/>
</svg>
