<svg width="17" height="17" viewBox="0 0 17 17" fill="none" xmlns="http://www.w3.org/2000/svg">
<path fill-rule="evenodd" clip-rule="evenodd" d="M8.5 0C3.80586 0 0 3.80586 0 8.5C0 13.1942 3.80586 17 8.5 17C13.1942 17 17 13.1942 17 8.5C17 7.93159 16.9418 7.34295 16.835 6.80375C16.7743 6.49753 16.5057 6.27692 16.1935 6.27692H8.5C8.1389 6.27692 7.84615 6.56966 7.84615 6.93077V10.0692C7.84615 10.4303 8.1389 10.7231 8.5 10.7231H11.885C11.64 11.0962 11.3354 11.4264 10.9848 11.7C10.9796 11.7032 10.9747 11.7065 10.9696 11.7099L10.9685 11.7106L10.9694 11.712C10.286 12.2399 9.42977 12.5538 8.5 12.5538C6.26128 12.5538 4.44615 10.7387 4.44615 8.5C4.44615 6.26128 6.26128 4.44615 8.5 4.44615C9.53194 4.44615 10.471 4.83467 11.1886 5.47306C11.4473 5.70322 11.8406 5.69174 12.0855 5.44687L14.3048 3.22759C14.4302 3.10214 14.4993 2.93111 14.4962 2.75374C14.4931 2.57636 14.418 2.40787 14.2882 2.28693C12.7721 0.87394 10.7404 0 8.5 0ZM11.2915 13.0762C10.4794 13.5741 9.52401 13.8615 8.5 13.8615C6.48786 13.8615 4.73449 12.753 3.8174 11.1132L2.35532 12.2397C3.61811 14.31 5.89776 15.6923 8.5 15.6923C10.0877 15.6923 11.5553 15.1778 12.7452 14.3063L11.2915 13.0762ZM13.7355 13.4312C14.9488 12.1437 15.6923 10.4086 15.6923 8.5C15.6923 8.19705 15.6727 7.88634 15.6359 7.58462H9.15385V9.41539H12.9343C13.1466 9.41539 13.3457 9.51852 13.4682 9.69183C13.5908 9.86523 13.6214 10.0874 13.5506 10.2874C13.2887 11.0272 12.8693 11.6931 12.3325 12.244L13.7355 13.4312ZM2.41451 4.66492C3.68856 2.64764 5.93793 1.30769 8.5 1.30769C10.1493 1.30769 11.6651 1.86706 12.8789 2.80408L11.5719 4.11113C10.7032 3.50042 9.64493 3.13846 8.5 3.13846C6.5438 3.13846 4.83217 4.1863 3.89581 5.75127L2.41451 4.66492ZM1.81339 5.84574C1.48708 6.66699 1.30769 7.56256 1.30769 8.5C1.30769 9.39429 1.47095 10.2505 1.76928 11.0404L3.31062 9.85285C3.19826 9.4207 3.13846 8.96737 3.13846 8.5C3.13846 7.97134 3.21498 7.46065 3.35754 6.9782L1.81339 5.84574Z" fill="#01385f"/>
</svg>
