<svg xmlns="http://www.w3.org/2000/svg" xmlns:xlink="http://www.w3.org/1999/xlink" width="154" height="66" viewBox="0 0 154 66"><defs><style>.a{fill:rgba(255,255,255,0);}.b{fill:#a6a6a6;}.c,.d,.k{fill:#fff;}.c{stroke:#fff;stroke-miterlimit:10;stroke-width:0.2px;}.e{fill:url(#a);}.f{fill:url(#b);}.g{fill:url(#c);}.h{fill:url(#d);}.i{opacity:0.2;}.j{opacity:0.12;}.k{opacity:0.25;}</style><linearGradient id="a" x1="0.915" y1="6.614" x2="-0.382" y2="5.945" gradientUnits="objectBoundingBox"><stop offset="0" stop-color="#00a0ff"/><stop offset="0.01" stop-color="#00a1ff"/><stop offset="0.26" stop-color="#00beff"/><stop offset="0.51" stop-color="#00d2ff"/><stop offset="0.76" stop-color="#00dfff"/><stop offset="1" stop-color="#00e3ff"/></linearGradient><linearGradient id="b" x1="1.077" y1="17.089" x2="-1.306" y2="17.089" gradientUnits="objectBoundingBox"><stop offset="0" stop-color="#ffe000"/><stop offset="0.41" stop-color="#ffbd00"/><stop offset="0.78" stop-color="orange"/><stop offset="1" stop-color="#ff9c00"/></linearGradient><linearGradient id="c" x1="0.863" y1="10.855" x2="-0.502" y2="9.087" gradientUnits="objectBoundingBox"><stop offset="0" stop-color="#ff3a44"/><stop offset="1" stop-color="#c31162"/></linearGradient><linearGradient id="d" x1="-0.188" y1="13.576" x2="0.421" y2="12.786" gradientUnits="objectBoundingBox"><stop offset="0" stop-color="#32a071"/><stop offset="0.07" stop-color="#2da771"/><stop offset="0.48" stop-color="#15cf74"/><stop offset="0.8" stop-color="#06e775"/><stop offset="1" stop-color="#00f076"/></linearGradient></defs><g transform="translate(0 0.16)"><rect class="a" width="154" height="66" transform="translate(0 -0.16)"/><rect width="133.223" height="45.019" rx="5" transform="translate(9.516 10.345)"/><path class="b" d="M138.657,10.874a4.389,4.389,0,0,1,4.157,4.588V48.236a4.389,4.389,0,0,1-4.157,4.588H14.948a4.389,4.389,0,0,1-4.157-4.588V15.462a4.389,4.389,0,0,1,4.157-4.588H138.657m0-.874H14.948A5.224,5.224,0,0,0,10,15.462V48.236A5.224,5.224,0,0,0,14.948,53.7H138.657a5.224,5.224,0,0,0,4.948-5.462V15.462A5.224,5.224,0,0,0,138.657,10Z" transform="translate(-0.103 1.005)"/><path class="c" d="M57.357,20.553a3.153,3.153,0,0,1-.742,2.185,2.735,2.735,0,0,1-2.177.961,2.832,2.832,0,0,1-2.187-.983,3.749,3.749,0,0,1,0-4.872,2.913,2.913,0,0,1,3.4-.71,2.535,2.535,0,0,1,.93.732l-.525.579a1.9,1.9,0,0,0-1.623-.787A2.429,2.429,0,0,0,52.161,19.6a2.745,2.745,0,0,0,1.083,2.94,2.121,2.121,0,0,0,3.351-1.7H54.438V20.05h2.88A4.513,4.513,0,0,1,57.357,20.553Z" transform="translate(-0.53 1.639)"/><path class="c" d="M61.964,17.808H59.292v2.076h2.435v.787H59.292v2.076h2.672v.808H58.52V17h3.444Z" transform="translate(-0.604 1.652)"/><path class="c" d="M65.255,23.555h-.762V17.808H62.83V17h4.127v.808h-1.7Z" transform="translate(-0.649 1.652)"/><path class="c" d="M69.94,23.555V17H70.7v6.555Z" transform="translate(-0.722 1.652)"/><path class="c" d="M74.1,23.555h-.762V17.808H71.68V17h4.077v.808H74.1Z" transform="translate(-0.74 1.652)"/><path class="c" d="M83.555,22.715a2.878,2.878,0,0,1-4.355,0,3.812,3.812,0,0,1,0-4.851,2.77,2.77,0,0,1,2.177-.994,2.836,2.836,0,0,1,2.177.994,3.548,3.548,0,0,1,.871,2.425A3.466,3.466,0,0,1,83.555,22.715Zm-3.79-.546a2.12,2.12,0,0,0,3.226,0,2.99,2.99,0,0,0,0-3.758,2.12,2.12,0,0,0-3.226,0,2.991,2.991,0,0,0,0,3.758Z" transform="translate(-0.809 1.64)"/><path class="c" d="M85.58,23.555V17h.92l2.89,5.1h0V17h.762v6.555H89.36l-3.018-5.342h0v5.342Z" transform="translate(-0.884 1.652)"/><path class="d" d="M77.858,32.185a4.454,4.454,0,0,0-4.206,4.665,4.237,4.237,0,1,0,8.432-.022,4.834,4.834,0,0,0-1.221-3.311,3.951,3.951,0,0,0-3-1.332Zm0,7.462a2.527,2.527,0,0,1-2.482-1.6,3.046,3.046,0,0,1,.434-3.135,2.39,2.39,0,0,1,2.8-.7,2.828,2.828,0,0,1,1.622,2.617,2.857,2.857,0,0,1-.649,1.962A2.34,2.34,0,0,1,77.858,39.647Zm-9.224-7.462a4.454,4.454,0,0,0-4.206,4.665,4.237,4.237,0,1,0,8.432-.022,4.834,4.834,0,0,0-1.221-3.311A3.951,3.951,0,0,0,68.635,32.185Zm0,7.462a2.527,2.527,0,0,1-2.482-1.6,3.046,3.046,0,0,1,.434-3.135,2.39,2.39,0,0,1,2.8-.7,2.828,2.828,0,0,1,1.622,2.617,2.856,2.856,0,0,1-.649,1.962A2.34,2.34,0,0,1,68.635,39.647Zm-10.966-6.03v1.966h4.275a4.333,4.333,0,0,1-.99,2.48A4.165,4.165,0,0,1,57.649,39.5a5.015,5.015,0,0,1-4.75-5.244,5.015,5.015,0,0,1,4.75-5.244A4.368,4.368,0,0,1,60.9,30.426l1.257-1.387a5.94,5.94,0,0,0-4.483-1.988,6.419,6.419,0,0,0-5.877,3.524,7.871,7.871,0,0,0,0,7.383,6.419,6.419,0,0,0,5.877,3.524,5.727,5.727,0,0,0,4.562-2.021,6.966,6.966,0,0,0,1.544-4.621,7.547,7.547,0,0,0-.089-1.224Zm44.842,1.529a4.028,4.028,0,0,0-3.6-2.961,3.793,3.793,0,0,0-2.89,1.375,4.647,4.647,0,0,0-1.068,3.268,4.6,4.6,0,0,0,2.963,4.463,4,4,0,0,0,4.717-1.874l-1.435-1.092A2.346,2.346,0,0,1,99.126,39.6a2.122,2.122,0,0,1-2.039-1.409l5.631-2.567ZM96.771,36.7a2.725,2.725,0,0,1,.586-1.872,2.236,2.236,0,0,1,1.621-.848,1.6,1.6,0,0,1,1.554.994ZM92.2,41.2h1.851V27.542H92.2ZM89.17,33.223H89.1a2.8,2.8,0,0,0-2.217-1.092,4.478,4.478,0,0,0-4.012,4.648,4.478,4.478,0,0,0,4.012,4.648A2.741,2.741,0,0,0,89.1,40.335h.069V41c0,1.781-.861,2.731-2.247,2.731a2.36,2.36,0,0,1-2.128-1.65l-1.6.732a3.977,3.977,0,0,0,3.731,2.753c2.167,0,3.959-1.409,3.959-4.84v-8.27H89.17Zm-2.128,6.424a2.85,2.85,0,0,1,0-5.626,2.285,2.285,0,0,1,1.667.876,2.787,2.787,0,0,1,.589,1.932,2.777,2.777,0,0,1-.582,1.942A2.275,2.275,0,0,1,87.042,39.647Zm24.138-12.1h-4.434V41.2H108.6V36.02h2.583a3.76,3.76,0,0,0,3.563-2.027,4.63,4.63,0,0,0,0-4.424,3.76,3.76,0,0,0-3.563-2.027Zm0,6.555H108.6V29.443h2.623a2.349,2.349,0,0,1,0,4.676ZM122.6,32.141a3.411,3.411,0,0,0-3.3,2.087l1.633.754a1.727,1.727,0,0,1,1.692-.994,1.666,1.666,0,0,1,1.324.421,2.031,2.031,0,0,1,.656,1.337v.131a3.828,3.828,0,0,0-1.93-.524c-1.762,0-3.563,1.092-3.563,3.081a3.3,3.3,0,0,0,.963,2.222,2.7,2.7,0,0,0,2.115.783,2.559,2.559,0,0,0,2.355-1.333h.059V41.2h1.781V35.943a3.566,3.566,0,0,0-3.751-3.78Zm-.228,7.483c-.6,0-1.445-.339-1.445-1.158,0-1.092,1.049-1.464,1.979-1.464a3.043,3.043,0,0,1,1.682.459,2.335,2.335,0,0,1-2.177,2.185Zm10.51-7.167-2.118,5.921h-.059l-2.2-5.921H126.53l3.3,8.281-1.88,4.6h1.93l5.067-12.88ZM116.258,41.2H118.1V27.542h-1.841Z" transform="translate(-0.525 2.581)"/><path class="e" d="M20.435,17.546a2.334,2.334,0,0,0-.465,1.529V43.241a2.263,2.263,0,0,0,.465,1.529l.069.087L32.766,31.322v-.328L20.5,17.47Z" transform="translate(-0.206 1.695)"/><path class="f" d="M36.958,35.072,32.9,30.56v-.328l4.058-4.512.089.066,4.859,3.037a1.719,1.719,0,0,1,0,3.157l-4.839,3.037Z" transform="translate(-0.34 2.458)"/><path class="g" d="M36.948,34.61,32.771,30,20.44,43.612a1.49,1.49,0,0,0,2.049.076L36.948,34.61" transform="translate(-0.211 2.854)"/><path class="h" d="M36.948,26.58,22.489,17.512a1.481,1.481,0,0,0-2.049.066L32.771,31.19Z" transform="translate(-0.211 1.664)"/><path class="i" d="M36.829,34.13l-14.34,9.013a1.521,1.521,0,0,1-1.979,0h0l-.069.076h0l.069.087h0a1.521,1.521,0,0,0,1.979,0l14.459-9.078Z" transform="translate(-0.211 3.236)"/><path class="j" d="M20.435,42.45A2.342,2.342,0,0,1,20,40.91v.164a2.263,2.263,0,0,0,.465,1.529l.069-.076Z" transform="translate(-0.207 3.863)"/><path class="j" d="M41.948,31.42,37,34.512l.089.1,4.859-3.037A1.9,1.9,0,0,0,43,30h0a2,2,0,0,1-1.049,1.42Z" transform="translate(-0.382 2.854)"/><path class="k" d="M22.484,17.664l19.289,12.1a2,2,0,0,1,1.049,1.42h0a1.9,1.9,0,0,0-1.049-1.573l-19.289-12.1c-1.376-.874-2.514-.153-2.514,1.6v.164C20,17.522,21.108,16.8,22.484,17.664Z" transform="translate(-0.206 1.665)"/></g></svg>