<svg xmlns="http://www.w3.org/2000/svg" width="75.19" height="105.189" viewBox="0 0 75.19 105.189"><defs><style>.a{fill:#fff;}</style></defs><g transform="translate(0)"><path class="a" d="M335.128,302.454l.007.014a2.018,2.018,0,1,0-.007-.014Zm0,0" transform="translate(-266.133 -238.009)"/><path class="a" d="M74.665,70.432a2.054,2.054,0,0,0-4.058.642,38.909,38.909,0,0,1,.376,8.841,23.214,23.214,0,0,1-9.477,17.112l-1.389,1.014a15.785,15.785,0,0,1-12.937,2.616l-5.444-1.286A51.1,51.1,0,0,1,14.709,82.931a29.587,29.587,0,0,1-5.517-8.938,2.041,2.041,0,0,0,.075-.875c-.011-.088-1.022-8.962,11.492-14.658A28.985,28.985,0,0,0,34.753,44.992c9.409,1.3,12.647,3.947,12.888,4.155a1.927,1.927,0,0,0,1.892.536q.256-.058.509-.111A14.554,14.554,0,0,1,66.19,57.906a2.055,2.055,0,1,0,3.752-1.676,18.822,18.822,0,0,0-7.507-8.443.2.2,0,0,1,.007-.021,13.722,13.722,0,0,0,.623-4.1c0-.28-.011-.558-.027-.834h1.425a2.054,2.054,0,0,0,0-4.109H62.141a13.734,13.734,0,0,0-2.177-3.735l.93-.93a2.055,2.055,0,1,0-2.905-2.906l-1.075,1.075a13.646,13.646,0,0,0-5.654-2.148c2.722-2.177,6.3-3.209,10.656-3.06a2.053,2.053,0,0,0,2.124-2.053V17.137a2.054,2.054,0,0,0-1.885-2.047,49.563,49.563,0,0,0-9.183.282,20.756,20.756,0,0,0-9.006-9.328l1.454-2.171a2.054,2.054,0,0,0-3.414-2.286L39.925,4.695a14.68,14.68,0,0,0-4.282-.166V2.054a2.054,2.054,0,1,0-4.109,0V5.568a17.62,17.62,0,0,0-5.421,3.54,22.226,22.226,0,0,0-3.355,4.038,4.673,4.673,0,0,0-4.166-2.566H13.015A4.674,4.674,0,0,0,8.346,15.25v21a21.627,21.627,0,0,0-2.984,2.832C.858,44.22-.038,50.952,0,55.694.049,61.058,1.346,66.527,3.4,70.033c.31.83.588,1.63.859,2.406a35.321,35.321,0,0,0,7.325,13.154,55.235,55.235,0,0,0,29.213,17.779l5.444,1.286a19.893,19.893,0,0,0,16.3-3.3l1.389-1.014A27.315,27.315,0,0,0,75.082,80.211a42.982,42.982,0,0,0-.416-9.778ZM49.594,45.472a20.089,20.089,0,0,0-4.446-2.221,22.888,22.888,0,0,1,2.673-9.082,9.8,9.8,0,0,1,1.52-.12,9.618,9.618,0,0,1,9.311,12.018,18.447,18.447,0,0,0-9.058-.595ZM59.932,19.118v3.8a18.39,18.39,0,0,0-12.5,5.065c-4.515,4.418-5.877,10.555-6.285,14.042a57.225,57.225,0,0,0-7.061-1.262q-.936-.868-1.866-1.64c0-.05.007-.1.007-.149,0-5.518,1.783-9.961,5.3-13.2,6.687-6.167,17.96-6.7,22.409-6.652ZM37.218,8.553a10.793,10.793,0,0,1,3.031.44h0a15.07,15.07,0,0,1,8.419,7.094c-4.776,1.03-9.943,2.987-13.922,6.651a20.425,20.425,0,0,0-6.5,13.5,24.291,24.291,0,0,0-4.985-2.4V21.957a2.244,2.244,0,0,0,.094-.255C25.62,13.837,31.192,8.553,37.218,8.553Zm-24.763,6.7a.561.561,0,0,1,.56-.56h5.577a.561.561,0,0,1,.56.56v17.7a15.5,15.5,0,0,0-2.05-.046,14.509,14.509,0,0,0-4.647.98Zm-4,26.543c2.656-3.029,5.627-4.638,8.833-4.781,4.087-.183,8.79,2.038,13.641,6.433A25.175,25.175,0,0,1,19.057,54.721C11.194,58.3,7.838,63.154,6.406,66.6c-.024.058-.047.115-.071.173-2.6-5.753-3.993-18.009,2.116-24.977Zm0,0" transform="translate(-0.001 0)"/><path class="a" d="M113.8,400.337a2.054,2.054,0,1,0-2.623,3.162,47.339,47.339,0,0,0,19.248,9.587,2.055,2.055,0,0,0,.945-4,43.219,43.219,0,0,1-17.569-8.75Zm0,0" transform="translate(-87.747 -317.713)"/><path class="a" d="M85.113,374.7a2.07,2.07,0,1,0,2.944.262l-.042-.049A2.06,2.06,0,0,0,85.113,374.7Zm0,0" transform="translate(-67.062 -297.325)"/></g></svg>