<?xml version="1.0" encoding="UTF-8"?>
<svg version="1.1" viewBox="0 0 1332 1748" width="1280" height="1280" xmlns="http://www.w3.org/2000/svg">
<path transform="translate(0)" d="m0 0h1332v1748h-1332z" fill="#FEFEFE"/>
<path transform="translate(468,373)" d="m0 0h5l1 14v370l1 48 5-1 11-8 17-10 17-9 21-8 15-5 23-5 31-3h12l26 2 28 6 23 8 29 14 23 13 9 6 4 1 1-431 1-2 9 1 40 13 13 6 1 27v456l-1 268-5-1-23-12-33-18-2-2-1-185-3-10-9-17-12-16-9-10-12-12-18-12-15-8-21-8-23-6-7-1h-38l-16 3-20 6-21 9-15 9-12 9-11 10-7 8-8 10-7 10-10 20-1 7v182l-5 5-28 15-23 12-7 3-1-1v-751l8-4 24-8 18-5z" fill="#007790"/>
<path transform="translate(352,426)" d="m0 0 2 1 1 21v744l-1 8-9 8-48 32-4 2h-3l-1-4v-694l1-58 4-7 11-13 1-2h2l2-4 16-16 14-11 10-6z" fill="#00768F"/>
<path transform="translate(890,426)" d="m0 0 6 2 12 9 14 12 15 15 9 11 7 9v757l-6-2-15-10-18-13-19-13-5-4-1-2v-770z" fill="#007790"/>
<path transform="translate(1009,574)" d="m0 0 4 4 8 16 11 28 10 31 9 34 7 36 5 29 5 43 2 31 3 76 1 367v81l-1 27-9-5-14-12-8-7-14-12-10-9-8-7-1-2-1-9v-739z" fill="#02486B"/>
<path transform="translate(234,573)" d="m0 0h2l1 4v743l-3 7-8 7-11 10-11 9-11 10-11 9-5 4-4-1v-465l1-60 2-41 5-47 8-50 9-39 9-31 11-32 9-21z" fill="#02486A"/>
<path transform="translate(892,876)" d="m0 0 1 4h2l2 8 4 39 1 11 2 5h3v-2l4-1 2 1v2l7-1 2-2 3 1 2 5 6 5 4-1 4-14 1-2 1-12 1-3 2-23 3-7h1l1 5 1 230v116l-5-1-15-10-18-13-19-13-5-4v-169l1-152z" fill="#02476A"/>
<path transform="translate(771,373)" d="m0 0 9 1 40 13 13 6 1 27v456h-1l-1-122-1-33-1-54-1-10 1-2h-4l-1 6-3 8-5 4-4-2-4-9-4-4-5-1-3-4-8-2-3-4v-2l-3-1-2-6-1-7-1-5-1-11-2-9-2-20v-5h-2l-1 172h-1v-378z" fill="#009BAF"/>
<path transform="translate(468,373)" d="m0 0h5l1 14-1 305h-1v-59l-3 3-3 17-3 15-3 5-3 1-6-9-3-6-6-2v-2l-8-1-3-3-7-10-3-8-4-33-1-9-3-24-1 118-1 458h-1v-751l8-4 24-8 18-5z" fill="#009AAE"/>
<path transform="translate(234,573)" d="m0 0h2l1 4v743h-1l-1-52-1-367-1-2-2 2-4 34-4 15-4 5-3 1-1-5-2 3-6-4-2-5-3-3v-2l-6 1-4-2-3 1-3-3-1-6h2l-2-4-4-35-2-21-2-6-1 5-1 63-1 15h-1v-38l1-60 2-41 5-47 8-50 9-39 9-31 11-32 9-21z" fill="#007790"/>
<path transform="translate(291,866)" d="m0 0h2l4 13 2 20 2 13 1 15 2 7v7l1 2 9 5 4 4h7l1 5 7 14 5 6 2-4 3-8-1-5 2-4 1-7 5 1 1 2 1 72 1 119 1 14 1 35-1 8-9 8-48 32-6 1z" fill="#02476A"/>
<path transform="translate(1009,574)" d="m0 0 4 4 8 16 11 28 10 31 9 34 7 36 5 29 5 43 2 31 2 49v12h-1l-1-7-2 3-2 14-1 18-3 21-2 9-3 2-5-1-3-3h-6v-2h-6v6l-10-1-1-4-5-1-1-17-4-20v-8l-4-20-1-4-1 251h-1l-1-541v-7z" fill="#007790"/>
<path transform="translate(352,426)" d="m0 0 2 1 1 21v208l-1 501h-1l-1-272-1-145-1-30-2-9-1-8h-9l-1-5h-2l-3-9-5-10-3-8-14-8-4-1v-3l-3 1-2-2v-7l-3-11-2-1-1-10-1-5-2 12-2 232h-1v-314l1-58 4-7 11-13 1-2h2l2-4 16-16 14-11 10-6z" fill="#009AAE"/>
<path transform="translate(890,426)" d="m0 0 6 2 12 9 14 12 15 15 9 11 7 9v226l-1 62h-1l-1-95-1-19-2-3-1 1-2 9-2 7-7 3-4-7-7-13-1-4-9-1-3-2-7-1-4-10-2-14-4-15-1-6-1 5-1 117-1 473h-1v-770z" fill="#009AAE"/>
<path transform="translate(413,881)" d="m0 0 3 4 1 7 1 10 1 4 1 13 1 6 3 15 3 7 6 2 1-2 4 2 6 4 2 5 8 3 1 3-1 3 1 3h3v-6l1-2h2v-9l1-1 1-8 1-5 1-7 2-8 3-5 3-1 1 1v190l-5 5-28 15-23 12-7 3v-89l1-172z" fill="#02486A"/>
<path transform="translate(828,921)" d="m0 0 3 1 1 28v193l-6-1-34-18-20-11-1-1v-154l1-21 2-1 2 2 3 4 1 7 3 8 7 1 3-1 4-8h2l2 2 1-3 4 2h3l4 5-1 5 3 3v2l2-1 1-7 4-7 2-6 2-17z" fill="#02476A"/>
<path transform="translate(292,805)" d="m0 0 2 3 3 24 2 19 2 11 4 11 3 1v-4h2l3 5 5 3 4 6 9 5 4 7 4 2v6l3-2 2-6h2l1-5 4-2 1 26v101h-1v-64l-4-1-1-1-1 8-2 4 1 4-4 10-2 2-6-7-7-14v-4h-7l-7-6-7-4-1-5-1-9-2-10v-10l-3-17-1-13-3-9v-4h-2v-51z" fill="#01617E"/>
<path transform="translate(412,801)" d="m0 0h2l2 12 2 26 4 27 3 11 2 4v3l10 2 12 5 3 3 6 2 1 5 2 6 3 1 5-4h3l2-7h2l2-4h3v-2h2v-2l5-5 6-7 5-2h2l1-2 8-7 2 1-15 16-12 17-8 16-3 4-2-1-2 1-3 6-1 11-5 25h-2l-1 8h-3l-2-4v-3l-2-2-6-3-1-5-5-2-5-4-1 3-6-2-5-11-2-16-1-7-1-11-1-1-1-14-3-5h-1z" fill="#00627F"/>
<path transform="translate(828,857)" d="m0 0h2v2l2 1v88h-1l-1-26-2-1v5l-1 1-2 17-2 7-4 6-1 8h-3l-4-6 1-4-3-3v-2l-4 1-3-3-1 5-2-4h-2v4l-7 6-7-1-2-2-4-16h-2l-2-3-1 26-1 148h-1l-1-185-3-10-9-17-10-14v-2l4 2 7 9v4l5 2 4 4v2l4 1-1-7-1-3 1-2 4 2v2h4l2-3h4l1-3v2l4-1 4 1v-7h4v2h2l4 4 4 2 3 6 1 4 1 2 4 1 4-2 2-7 3-12 3-24z" fill="#01627F"/>
<path transform="translate(178,809)" d="m0 0h1l1 12v15l4 30 3 13 2 4 2-6 6 3 7 2 3 6 6 7 4 7h3l2-1 5-15 2-13 3-9 2 1 2 28 1 292v135h-1l-1-52-1-367-1-2-2 2-4 34-4 15-4 5-3 1-1-5-2 3-6-4-2-5-3-3v-2l-6 1-4-2-3 1-3-3-1-6h2l-2-4-4-35-2-21-2-6-1 5h-1v-12l2-42z" fill="#006581"/>
<path transform="translate(1011,825)" d="m0 0h1l2 15 1 2 2 18 3 16 2 5 1 4 3 1v-2h-2v-3h6l7 3v2h3l4 5 6 1 2 4 6-1 4-15 4-31 2-5 2 3 1 3 1 37h-1l-1-7-2 3-2 14-1 18-3 21-2 9-3 2-5-1-3-3h-6v-2h-6v6l-10-1-1-4-5-1-1-17-4-20v-8l-4-20-1-4-1 251h-1v-284z" fill="#00627F"/>
<path transform="translate(892,813)" d="m0 0h1l2 9 3 29 2 14v7h2l2 3v3l14 2 5 3v2l4 2 3 6 2 3 1 3 4-1 4-9 3-16 2-16 2-5 2-4 1 8v38l-2-4-2 6-2 23-2 11v5l-3 9-3 7-4 1-4-3v-2l-3-1-1-5-4 1v1h-8v-2h-6v2h-3l-3-5-2-22-3-28-1-8h-2l-2-2v-56z" fill="#01617E"/>
<path transform="translate(234,573)" d="m0 0h2l1 4v204l-1 112h-1l-2-205-1-7-1-3h-2l-3 9-5-1v-3h-2l-6-7-1-7-1-4 1-17 4-20-1-2-2 5-2-1 11-30 7-16z" fill="#009AAE"/>
<path transform="translate(1009,574)" d="m0 0 4 4 8 16 11 28 3 10-3 2v9l3 9 2 14-1 6 2 11v5h-3l-4-5-3-5-4-1-4-6-3-7-5-1-1 19h-1l-1-49-1-8v-50z" fill="#009AAE"/>
<path transform="translate(747,883)" d="m0 0 4 2 7 9v4h2v3h-2l-11-16z" fill="#015F7D"/>
</svg>
