<svg width="30" height="28" viewBox="0 0 30 28" fill="none" xmlns="http://www.w3.org/2000/svg">
<path d="M8.07319 26.7185L6.89223 25.5375L9.18103 23.2487L5.59547 19.6631L3.30667 21.9519L2.12572 20.771L0.974461 21.9222L6.92193 27.8697L8.07319 26.7185ZM12.1437 22.648L24.1542 10.6374L22.9733 9.45645L25.2758 7.15394L24.0806 5.95875L29.4943 0.545068L27.1484 0.52907L22.8996 4.7778L21.6902 3.56838L19.3877 5.87089L18.2068 4.68993L6.19621 16.7005L3.22247 13.7267L2.08493 14.8643L13.9941 26.7735L15.1317 25.6359L12.1437 22.648ZM11.5303 21.9523L6.90607 17.3281L13.9872 10.2469L18.6114 14.8712L11.5303 21.9523Z" fill="#01385F"/>
</svg>
