<svg width="42" height="42" viewBox="0 0 42 42" fill="none" xmlns="http://www.w3.org/2000/svg">
<rect width="42" height="42" rx="21" fill="#A05BE9"/>
<g clip-path="url(#clip0_7463_8674)">
<path fill-rule="evenodd" clip-rule="evenodd" d="M13.8819 10V16.0461L9.99957 19.4108V32H31.9996V19.4108L28.1185 16.0461V10H13.8819ZM15.176 23.7953V11.2941H26.8231V23.7953L24.6542 25.5294H17.345L15.176 23.7953ZM28.1185 17.7582L30.7068 20.0009V20.6894L28.1185 22.76V17.7582ZM11.2937 20.6894V20.0009L13.8819 17.7582V22.76L11.2937 20.6894ZM30.7067 22.3472V29.4894L27.1378 25.2024L26.1292 26.0057L30.0183 30.7059H11.9809L15.8708 26.0057L14.8627 25.2024L11.2937 29.4894V22.3472L16.8908 26.8248H25.1097L30.7067 22.3472ZM21.647 13.2354V16.4707H24.8823V17.7648H21.647V21.0001H20.3529V17.7648H17.1176V16.4707H20.3529V13.2354L21.647 13.2354Z" fill="white"/>
</g>
<defs>
<clipPath id="clip0_7463_8674">
<rect width="22" height="22" fill="white" transform="translate(10 10)"/>
</clipPath>
</defs>
</svg>
