<svg xmlns="http://www.w3.org/2000/svg" version="1.1" xmlns:xlink="http://www.w3.org/1999/xlink" width="512" height="512" x="0" y="0" viewBox="0 0 512 512" style="enable-background:new 0 0 512 512" xml:space="preserve" class=""><g><path fill="#ffdc00" d="M269.36 325.645c-7.704-6.547-19.017-6.547-26.721 0L29.929 506.426c3.687 3.448 8.626 5.574 14.072 5.574h423.998c5.446 0 10.385-2.126 14.072-5.574z" opacity="1" data-original="#ffdc00"></path><path fill="#ffce00" d="m292.519 345.327 189.553 161.099c4.027-3.765 6.558-9.109 6.558-15.057V209.086zM29.929 506.426l189.552-161.099-196.11-136.241V491.37c0 5.947 2.531 11.291 6.558 15.056z" opacity="1" data-original="#ffce00" class=""></path><path fill="#fbbd00" d="m29.929 506.426 189.552-161.099-12.01-8.344-184 156.381c.496 5.142 2.887 9.723 6.458 13.062zM482.071 506.426 292.519 345.327l12.01-8.344 184 156.381c-.497 5.142-2.887 9.723-6.458 13.062z" opacity="1" data-original="#fbbd00"></path><path fill="#ff7e00" d="M81.952 159.298v90.486l-58.581-40.698z" opacity="1" data-original="#ff7e00"></path><path fill="#ff6700" d="m23.371 209.086 58.581 40.698v-18.568L35.391 198.87z" opacity="1" data-original="#ff6700"></path><path fill="#ff7e00" d="M430.048 159.298v90.486l58.581-40.698z" opacity="1" data-original="#ff7e00"></path><path fill="#ff6700" d="M430.047 231.216v18.568l58.582-40.698-12.021-10.216z" opacity="1" data-original="#ff6700"></path><path fill="#fff0c0" d="m219.481 345.327 23.158-19.682c7.704-6.547 19.017-6.547 26.721 0l23.159 19.682 137.529-95.543V5.151A5.15 5.15 0 0 0 424.897 0H87.103a5.15 5.15 0 0 0-5.151 5.151v244.632z" opacity="1" data-original="#fff0c0" class=""></path><path fill="#ffe394" d="m292.519 326.76-23.159-19.682c-7.704-6.547-19.017-6.547-26.721 0L219.48 326.76 81.952 231.216v18.567l137.529 95.543 23.159-19.682c7.704-6.547 19.017-6.547 26.721 0l23.159 19.682 137.529-95.543v-18.567z" opacity="1" data-original="#ffe394"></path><path fill="#ffdc00" d="m267.996 84.075 17.062 28.765a13.95 13.95 0 0 0 8.936 6.493l32.63 7.338c10.334 2.324 14.408 14.864 7.414 22.818l-22.085 25.116a13.945 13.945 0 0 0-3.413 10.505l3.105 33.3c.983 10.546-9.684 18.297-19.41 14.103l-30.711-13.243a13.949 13.949 0 0 0-11.046 0l-30.711 13.243c-9.726 4.194-20.394-3.556-19.41-14.103l3.105-33.3a13.949 13.949 0 0 0-3.413-10.505l-22.085-25.116c-6.994-7.954-2.919-20.494 7.414-22.818l32.63-7.338a13.946 13.946 0 0 0 8.936-6.493l17.062-28.765c5.401-9.11 18.587-9.11 23.99 0z" opacity="1" data-original="#ffdc00"></path><path fill="#ffbf00" d="M310.554 206.715c-2.913 6.661-10.889 10.434-18.32 7.229l-30.711-13.243a13.949 13.949 0 0 0-11.046 0l-30.711 13.243c-7.432 3.204-15.407-.568-18.32-7.229l-1.09 11.694c-.983 10.546 9.684 18.297 19.41 14.103l30.711-13.243a13.949 13.949 0 0 1 11.046 0l30.711 13.243c9.726 4.194 20.394-3.556 19.41-14.103z" opacity="1" data-original="#ffbf00"></path></g></svg>