<svg xmlns="http://www.w3.org/2000/svg" width="68.602" height="96.852" viewBox="0 0 68.602 96.852"><defs><style>.a{fill:#fff;}</style></defs><g transform="translate(0)"><path class="a" d="M18.124,54.354a2.018,2.018,0,0,1-2.018-2.018V46.921a6.207,6.207,0,0,0-3.487-5.787A14.124,14.124,0,1,1,30.23,20.856,14.123,14.123,0,1,1,47.845,41.134a6.2,6.2,0,0,0-3.491,5.787v5.371a2.018,2.018,0,1,1-4.035,0V46.921a10.142,10.142,0,0,1,5.952-9.5,10.09,10.09,0,1,0-14.023-9.294,2.018,2.018,0,1,1-4.035,0,10.089,10.089,0,1,0-14.019,9.294,10.145,10.145,0,0,1,5.948,9.5v5.416A2.018,2.018,0,0,1,18.124,54.354Z" transform="translate(-4 42.498)"/><path class="a" d="M41.383,52.716A14.14,14.14,0,0,1,27.76,42.244a14.237,14.237,0,0,1-.484-3.4,14.243,14.243,0,0,1-3.184,1.279,14.125,14.125,0,1,1-1.917-27.663,6.226,6.226,0,0,0,5.916-3.269L32.812,1.01a2.018,2.018,0,0,1,3.495,2.018l-4.721,8.184a10.13,10.13,0,0,1-9.907,5.254,10.091,10.091,0,1,0,7.494,15.06,2.018,2.018,0,0,1,3.765,1.009,1.994,1.994,0,0,1-.27,1.009,10.088,10.088,0,1,0,16.791-1.037,10.153,10.153,0,0,1-.4-11.206L61.871.982a2.018,2.018,0,0,1,3.414,2.151L52.509,23.387a6.171,6.171,0,0,0,.169,6.691,14.128,14.128,0,0,1-7.615,22.159,14.356,14.356,0,0,1-3.68.48Z" transform="translate(3.006 0)"/><path class="a" d="M16.967,28.087a1.984,1.984,0,0,1-1.19-.391,2.018,2.018,0,0,1-.436-2.821,19.8,19.8,0,0,0,3.805-11.251,2.155,2.155,0,0,1,2.07-1.965,2.019,2.019,0,0,1,1.965,2.07,23.806,23.806,0,0,1-4.588,13.527A2,2,0,0,1,16.967,28.087Z" transform="translate(29.239 35.392)"/><path class="a" d="M10.085,38.749a2.018,2.018,0,0,1-1.727-.973A23.626,23.626,0,0,1,5,25.553,23.868,23.868,0,0,1,12.369,8.225,2.011,2.011,0,0,1,15.9,9.533a2.122,2.122,0,0,1-.625,1.505A19.863,19.863,0,0,0,9.035,25.553a19.555,19.555,0,0,0,2.776,10.133,2.017,2.017,0,0,1-1.727,3.063Z" transform="translate(-0.964 22.874)"/></g></svg>