<svg xmlns="http://www.w3.org/2000/svg" width="111.806" height="92.613" viewBox="0 0 111.806 92.613"><defs><style>.a{fill:#fff;}</style></defs><g transform="translate(0)"><g transform="translate(0 0)"><path class="a" d="M107.505,71.072a1.638,1.638,0,0,0-2.941,1.443,41.746,41.746,0,0,1,3.966,18.145c0,6.2-1.287,17.9-9.9,26.512a14.574,14.574,0,0,1-23.1-17.287,1.6,1.6,0,0,0,.092-.162,14.633,14.633,0,0,1,2.4-3.157,8.735,8.735,0,0,0,1.421-1.854l.018-.031c.093-.165.181-.332.262-.5a9.055,9.055,0,0,1,3.214,3.588,1.638,1.638,0,0,0,2.916-1.493A11.834,11.834,0,0,0,80.5,90.882c0-.074.005-.148.005-.222a8.441,8.441,0,0,0-.086-1.207,11.782,11.782,0,0,0,5.432-5.43,1.638,1.638,0,1,0-2.916-1.493,8.839,8.839,0,0,1-3.642,3.827q-.112-.181-.234-.357c-.019-.028-.039-.056-.06-.083a8.948,8.948,0,0,0-.98-1.162A14.571,14.571,0,1,1,98.627,64.148c.7.7,1.377,1.448,2.009,2.221a1.638,1.638,0,0,0,2.535-2.075c-.7-.856-1.45-1.684-2.228-2.462A17.848,17.848,0,0,0,72.952,83.523l-2.216-.775a10.325,10.325,0,0,1-5.562-4.632l-3.059-5.363a10.126,10.126,0,0,1-1.328-5.009V48.926a4.927,4.927,0,0,0-4.653-4.973A4.845,4.845,0,0,0,52.527,45.3a4.909,4.909,0,0,0-1.514,3.536V67.745a10.129,10.129,0,0,1-1.328,5.009l-3.058,5.363a10.326,10.326,0,0,1-5.563,4.632l-2.205.771a17.849,17.849,0,0,0-28-21.688C1.411,71.284,0,83.95,0,90.66c0,5.824,1.094,16.959,8.42,26.1a1.638,1.638,0,1,0,2.556-2.049c-6.7-8.359-7.7-18.657-7.7-24.051,0-6.2,1.287-17.895,9.9-26.512A14.571,14.571,0,1,1,33.786,84.754a8.978,8.978,0,0,0-.978,1.16c-.021.027-.04.055-.059.083q-.123.178-.236.36a8.84,8.84,0,0,1-3.642-3.827,1.638,1.638,0,1,0-2.915,1.493,11.782,11.782,0,0,0,5.432,5.43A8.445,8.445,0,0,0,31.3,90.66c0,.074,0,.148.005.222a11.831,11.831,0,0,0-5.351,5.391,1.638,1.638,0,1,0,2.915,1.493,9.056,9.056,0,0,1,3.215-3.588c.085.179.178.355.277.528.012.022.025.044.038.065a8.751,8.751,0,0,0,1.386,1.793,14.629,14.629,0,0,1,2.4,3.156,1.663,1.663,0,0,0,.094.165,14.577,14.577,0,0,1-20.046,19.626,1.638,1.638,0,0,0-1.632,2.84,17.862,17.862,0,0,0,25.947-20.738l.231.072a3.432,3.432,0,0,1,2.416,3.289v26.7a4.887,4.887,0,0,0,9.773,0v-26.7A13.164,13.164,0,0,0,43.7,92.359l-.27-.085.862-.3a20.1,20.1,0,0,0,10.827-9.016l.784-1.374.783,1.373a20.1,20.1,0,0,0,10.827,9.016l.864.3-.267.084a13.164,13.164,0,0,0-9.268,12.615v26.7a4.886,4.886,0,1,0,9.773,0v-26.7a3.431,3.431,0,0,1,2.416-3.289l.231-.072a17.854,17.854,0,0,0,29.682,17.875c9.453-9.452,10.864-22.119,10.864-28.829A45.036,45.036,0,0,0,107.505,71.072Zm-57.815,33.9v26.7a1.611,1.611,0,0,1-3.222,0v-26.7a6.694,6.694,0,0,0-4.713-6.415l-3.005-.941a17.92,17.92,0,0,0-2.229-2.93l1.728-.6,4.47,1.4A9.9,9.9,0,0,1,49.691,104.975Zm9.838-23.64-1.922-3.371a1.964,1.964,0,0,0-3.413,0l-1.923,3.371a16.822,16.822,0,0,1-9.062,7.546l-8.488,2.967a5.031,5.031,0,0,1-.145-1.189,4.835,4.835,0,0,1,.608-2.386l6.961-2.433a13.6,13.6,0,0,0,7.327-6.1l3.058-5.363a13.41,13.41,0,0,0,1.758-6.632V48.834a1.611,1.611,0,0,1,1.691-1.609,1.677,1.677,0,0,1,1.531,1.7V67.744a13.408,13.408,0,0,0,1.758,6.632l3.059,5.363a13.6,13.6,0,0,0,7.327,6.1l6.967,2.435a4.836,4.836,0,0,1,.607,2.384,5.033,5.033,0,0,1-.145,1.19l-8.492-2.968A16.824,16.824,0,0,1,59.529,81.335ZM70.05,98.56a6.694,6.694,0,0,0-4.713,6.415v26.7a1.611,1.611,0,1,1-3.222,0v-26.7a9.9,9.9,0,0,1,6.972-9.489l4.467-1.4,1.729.6a17.936,17.936,0,0,0-2.228,2.928Z" transform="translate(0 -43.947)"/></g></g></svg>