<svg width="16" height="16" viewBox="0 0 16 16" fill="none" xmlns="http://www.w3.org/2000/svg">
<path fill-rule="evenodd" clip-rule="evenodd" d="M2.1128 0C0.945937 0 0 0.945937 0 2.1128C0 3.27967 0.945937 4.22561 2.1128 4.22561C3.27967 4.22561 4.22561 3.27967 4.22561 2.1128C4.22561 0.945937 3.27967 0 2.1128 0ZM1.15244 2.1128C1.15244 1.58241 1.58241 1.15244 2.1128 1.15244C2.6432 1.15244 3.07317 1.58241 3.07317 2.1128C3.07317 2.6432 2.6432 3.07317 2.1128 3.07317C1.58241 3.07317 1.15244 2.6432 1.15244 2.1128Z" fill="#01385f"/>
<path fill-rule="evenodd" clip-rule="evenodd" d="M0 5.18596C0 4.86773 0.257985 4.60974 0.576219 4.60974H3.64939C3.96762 4.60974 4.22561 4.86773 4.22561 5.18596V15.1738C4.22561 15.492 3.96762 15.75 3.64939 15.75H0.576219C0.257985 15.75 0 15.492 0 15.1738V5.18596ZM1.15244 5.76218V14.5975H3.07317V5.76218H1.15244Z" fill="#01385f"/>
<path fill-rule="evenodd" clip-rule="evenodd" d="M5.37891 5.18596C5.37891 4.86773 5.63689 4.60974 5.95513 4.60974H9.0283C9.34652 4.60974 9.60452 4.86773 9.60452 5.18596V5.51942L9.93895 5.3761C10.5139 5.12969 11.1287 4.97518 11.7506 4.91865C13.8825 4.72483 15.7509 6.40016 15.7509 8.55124V15.1738C15.7509 15.492 15.4929 15.75 15.1746 15.75H12.1015C11.7832 15.75 11.5252 15.492 11.5252 15.1738V9.79572C11.5252 9.54103 11.4241 9.29671 11.244 9.11662C11.0639 8.93654 10.8196 8.83535 10.5649 8.83535C10.3102 8.83535 10.0659 8.93654 9.88579 9.11662C9.7057 9.29671 9.60452 9.54103 9.60452 9.79572V15.1738C9.60452 15.492 9.34652 15.75 9.0283 15.75H5.95513C5.63689 15.75 5.37891 15.492 5.37891 15.1738V5.18596ZM6.53135 5.76218V14.5975H8.45208V9.79572C8.45208 9.2354 8.67465 8.69798 9.07094 8.30177C9.46714 7.90549 10.0046 7.68291 10.5649 7.68291C11.1252 7.68291 11.6626 7.90549 12.0588 8.30177C12.4551 8.69798 12.6777 9.2354 12.6777 9.79572V14.5975H14.5984V8.55124C14.5984 7.08818 13.3223 5.93295 11.8549 6.06636C11.3524 6.11203 10.8556 6.23704 10.3929 6.43536L9.25525 6.92292C9.07724 6.99921 8.87279 6.98092 8.71107 6.87436C8.54942 6.76772 8.45208 6.58697 8.45208 6.39328V5.76218H6.53135Z" fill="#01385f"/>
</svg>
