<svg width="66" height="46" viewBox="0 0 66 46" fill="none" xmlns="http://www.w3.org/2000/svg">
<path d="M0 0.802756H9.95065V27.2901C9.95065 31.4818 11.8838 33.9787 13.4125 35.0491C11.7941 36.476 6.8486 37.7246 3.16196 34.6922C0.988444 32.9048 0 29.9656 0 27.2008V0.802756ZM62.1876 22.8052V20.0216H65.2224V10.2562H61.8897C60.6102 4.39332 55.3476 0 49.0538 0C41.8033 0 35.9259 5.82975 35.9259 13.0207V35.8259C37.9916 36.1138 40.4524 35.7901 42.5461 34.068C44.7193 32.2803 45.7078 29.3415 45.7078 26.5766V25.7365H50.6775V15.9711H45.7078V13.0207H45.7197C45.7197 11.1946 47.2123 9.71417 49.0538 9.71417C50.895 9.71417 52.3935 11.1946 52.3935 13.0207V22.8052C52.3935 29.9962 58.2772 35.8259 65.5273 35.8259V26.1117C63.6861 26.1117 62.1876 24.6313 62.1876 22.8052ZM24.5009 10.2562V24.588C24.5009 25.4016 23.8203 26.0612 22.9805 26.0612C22.1407 26.0612 21.4601 25.4016 21.4601 24.588V10.2562H11.6141V27.1118C11.6141 30.1439 12.6508 33.9787 17.3689 35.2274C22.092 36.4773 24.8319 33.8898 24.8319 33.8898C24.5823 35.5944 22.9636 36.8431 20.3561 37.1106C18.3832 37.3129 15.8601 36.6648 14.6016 36.1296V45.0597C17.8085 45.9978 21.2006 46.3008 24.5201 45.6619C30.5445 44.5026 34.3466 39.5084 34.3466 32.8641V10.2562H24.5009Z" fill="#A1A7B3"/>
</svg>
