<svg xmlns="http://www.w3.org/2000/svg" width="378.878" height="378.879" viewBox="0 0 378.878 378.879"><defs><style>.a{fill:#0754ed;}.b{fill:#f9f4ed;}.c{fill:#fee9ab;}.d{fill:#231f20;}</style></defs><rect class="a" width="214.695" height="265.215" transform="translate(0 50.52)"/><g transform="translate(271.527 12.632)"><rect class="b" width="12.632" height="12.632" transform="translate(63.151)"/><rect class="b" width="12.632" height="12.632"/></g><circle class="c" cx="18.944" cy="18.944" r="18.944" transform="translate(88.407 170.495)"/><g transform="translate(0 0)"><rect class="d" width="12.632" height="12.632" transform="translate(44.202 25.256)"/><rect class="d" width="12.632" height="12.632" transform="translate(82.088 25.256)"/><rect class="d" width="12.632" height="12.632" transform="translate(101.032 334.679)"/><path class="d" d="M34.133,108.714v25.258h12.63V115.029H65.706V102.4H40.448A6.317,6.317,0,0,0,34.133,108.714Z" transform="translate(-8.875 -26.624)"/><path class="d" d="M372.564,12.63h-12.63V6.314A6.317,6.317,0,0,0,353.62,0H334.676a12.626,12.626,0,0,0-12.63,12.63v12.63a12.626,12.626,0,0,0,12.63,12.63H353.62a6.317,6.317,0,0,0,6.314-6.314V25.26h6.314v88.4a56.832,56.832,0,1,1-113.664,0V25.258H258.9v6.314a6.317,6.317,0,0,0,6.314,6.314h18.945a12.626,12.626,0,0,0,12.63-12.63V12.63A12.626,12.626,0,0,0,284.159,0H265.215A6.317,6.317,0,0,0,258.9,6.314v6.314h-12.63a6.317,6.317,0,0,0-6.314,6.314v94.72A69.522,69.522,0,0,0,303.1,182.8v6.638A56.793,56.793,0,0,1,214.7,236.66V18.944A18.943,18.943,0,0,0,195.754,0H18.944A18.943,18.943,0,0,0,0,18.944V359.935a18.943,18.943,0,0,0,18.944,18.944h176.81A18.943,18.943,0,0,0,214.7,359.935v-108.7a69.34,69.34,0,0,0,101.034-61.795V182.8a69.522,69.522,0,0,0,63.146-69.139V18.944A6.316,6.316,0,0,0,372.564,12.63ZM347.305,25.258h-12.63V12.63h12.63ZM271.53,12.63h12.629v12.63h-12.63V12.63ZM202.069,303.1H37.888v12.63H202.069v44.2a6.317,6.317,0,0,1-6.314,6.314H18.944a6.317,6.317,0,0,1-6.314-6.314V63.146H176.811V50.517H12.63V18.944a6.317,6.317,0,0,1,6.314-6.314h176.81a6.317,6.317,0,0,1,6.314,6.314V225.079a56.52,56.52,0,0,1-12.629-35.64V132.608a44.2,44.2,0,0,0-88.4,0V158.5a31.573,31.573,0,1,0,12.63,0v-25.89a31.573,31.573,0,1,1,63.147,0v56.832a69.372,69.372,0,0,0,25.258,53.542V303.1ZM107.349,170.5a18.944,18.944,0,1,1-18.944,18.944A18.943,18.943,0,0,1,107.349,170.5Z" transform="translate(0 0)"/><rect class="d" width="12.632" height="12.632" transform="translate(119.976 252.583)"/><rect class="d" width="25.256" height="12.632" transform="translate(145.239 252.583)"/><rect class="d" width="50.52" height="12.632" transform="translate(119.976 277.847)"/></g></svg>