<svg width="20" height="15" viewBox="0 0 20 15" fill="none" xmlns="http://www.w3.org/2000/svg">
<path d="M18.3333 0H1.22222C0.898069 0 0.587192 0.128769 0.357981 0.357981C0.128769 0.587192 0 0.898069 0 1.22222V13.4444C0 13.7686 0.128769 14.0795 0.357981 14.3087C0.587192 14.5379 0.898069 14.6667 1.22222 14.6667H18.3333C18.6575 14.6667 18.9684 14.5379 19.1976 14.3087C19.4268 14.0795 19.5556 13.7686 19.5556 13.4444V1.22222C19.5556 0.898069 19.4268 0.587192 19.1976 0.357981C18.9684 0.128769 18.6575 0 18.3333 0ZM17.3922 13.4444H2.23667L6.51444 9.02L5.63444 8.17056L1.22222 12.7356V2.15111L8.81833 9.71056C9.04733 9.9382 9.35711 10.066 9.68 10.066C10.0029 10.066 10.3127 9.9382 10.5417 9.71056L18.3333 1.96167V12.6561L13.8356 8.15833L12.9739 9.02L17.3922 13.4444ZM2.02278 1.22222H17.3433L9.68 8.84278L2.02278 1.22222Z" fill="white"/>
</svg>
