<svg width="31" height="25" viewBox="0 0 31 25" fill="none" xmlns="http://www.w3.org/2000/svg">
<path fill-rule="evenodd" clip-rule="evenodd" d="M8.11364 0.833011H8.20964H22.8889C24.1817 0.832938 25.2956 0.83288 26.1877 0.952813C27.1436 1.08134 28.06 1.37117 28.8032 2.11442C29.5465 2.85769 29.8363 3.77403 29.9649 4.72998C30.0848 5.62199 30.0848 6.73586 30.0846 8.02863V16.9708C30.0848 18.2635 30.0848 19.3773 29.9649 20.2694C29.8363 21.2253 29.5465 22.1417 28.8032 22.8849C28.06 23.6282 27.1436 23.918 26.1877 24.0466C25.2956 24.1665 24.1817 24.1665 22.8889 24.1663H8.11364C6.82085 24.1665 5.70695 24.1665 4.81495 24.0466C3.85899 23.918 2.94265 23.6282 2.19938 22.8849C1.45613 22.1417 1.1663 21.2253 1.03777 20.2694C0.917841 19.3773 0.917899 18.2634 0.917972 16.9706V8.12468V8.02868C0.917899 6.73589 0.917841 5.62199 1.03777 4.72998C1.1663 3.77403 1.45613 2.85769 2.19938 2.11442C2.94265 1.37117 3.85899 1.08134 4.81495 0.952813C5.70695 0.83288 6.82085 0.832938 8.11364 0.833011ZM10.3971 9.58301C9.99443 9.58301 9.66797 9.90953 9.66797 10.3122C9.66797 10.7148 9.99443 11.0413 10.3971 11.0413C10.7998 11.0413 11.1263 10.7148 11.1263 10.3122C11.1263 9.90953 10.7998 9.58301 10.3971 9.58301ZM6.75131 10.3122C6.75131 8.29864 8.3836 6.66634 10.3971 6.66634C12.4107 6.66634 14.043 8.29864 14.043 10.3122C14.043 12.3257 12.4107 13.958 10.3971 13.958C8.3836 13.958 6.75131 12.3257 6.75131 10.3122ZM16.9596 6.66634C16.1542 6.66634 15.5013 7.31927 15.5013 8.12468C15.5013 8.93009 16.1542 9.58301 16.9596 9.58301H22.793C23.5984 9.58301 24.2513 8.93009 24.2513 8.12468C24.2513 7.31927 23.5984 6.66634 22.793 6.66634H16.9596ZM15.5013 12.4997C15.5013 11.6942 16.1542 11.0413 16.9596 11.0413H22.793C23.5984 11.0413 24.2513 11.6942 24.2513 12.4997C24.2513 13.3051 23.5984 13.958 22.793 13.958H16.9596C16.1542 13.958 15.5013 13.3051 15.5013 12.4997ZM8.20964 15.4163C7.40423 15.4163 6.75131 16.0692 6.75131 16.8747C6.75131 17.6801 7.40423 18.333 8.20964 18.333H22.793C23.5984 18.333 24.2513 17.6801 24.2513 16.8747C24.2513 16.0692 23.5984 15.4163 22.793 15.4163H8.20964Z" fill="white"/>
</svg>
