<svg width="188" height="35" viewBox="0 0 188 35" fill="none" xmlns="http://www.w3.org/2000/svg">
<g clip-path="url(#clip0_772_2206)">
<path d="M10.8707 0C10.8707 0 9.93181 0.0730838 8.62007 0.649427V26.5188L10.8707 25.3593V18.8385C11.7509 16.8138 13.7368 15.5119 15.9636 15.5119C18.1893 15.5119 20.1762 16.8135 21.0556 18.8376V25.3593L23.3082 26.5188V0.649427C21.9946 0.0731231 21.0556 0 21.0556 0V15.0372C19.664 13.8676 17.876 13.1917 15.9636 13.1917C14.051 13.1917 12.2625 13.8678 10.8707 15.0378V0ZM6.77293 1.69316C6.03146 2.21533 5.26498 2.89909 4.52054 3.79238V29.9343L6.77293 28.3881V1.69316ZM25.1543 1.69316V28.3881L27.4062 29.9343V3.79238C26.6621 2.89909 25.8939 2.21533 25.1543 1.69316ZM2.67821 6.68069C1.36424 9.37156 0.426514 13.1411 0.426514 18.4225V34.5743L2.67821 32.6405V6.68069ZM29.2488 6.68069V32.6405L31.5011 34.5743V18.4225C31.5011 13.1411 30.5612 9.37156 29.2488 6.68069Z" fill="url(#paint0_linear_772_2206)"/>
</g>
<path d="M146.453 8C145.325 8 144.299 8.18101 143.377 8.54101C142.453 8.90276 141.609 9.45225 140.847 10.1947C140.057 10.9583 139.458 11.8158 139.049 12.7653C138.64 13.7167 138.436 14.7214 138.436 15.7832C138.436 18.0451 139.185 19.9375 140.684 21.4638C142.181 22.9896 144.042 23.7536 146.263 23.7536C148.427 23.7536 150.253 23.0448 151.741 21.6261C153.229 20.2074 154.036 18.3951 154.162 16.1882H144.591V17.5305H152.365C152.027 18.9448 151.298 20.0977 150.181 20.9857C149.063 21.8737 147.799 22.3177 146.389 22.3177C144.598 22.3177 143.093 21.6966 141.873 20.4549C140.653 19.2124 140.045 17.6622 140.045 15.8037C140.045 14.0551 140.656 12.5597 141.879 11.3148C143.102 10.0695 144.599 9.4461 146.368 9.4461C147.39 9.4461 148.316 9.66355 149.145 10.0968C149.973 10.5309 150.75 11.2016 151.477 12.1102H153.339C152.619 10.7925 151.665 9.77733 150.478 9.06593C149.289 8.35536 147.947 8 146.453 8ZM65.0858 8.30121V23.4524H66.6077V16.5436H73.9258V23.4524H75.4388V8.30121H73.9258V15.096H66.6077V8.30121H65.0858ZM104.872 8.30121V23.4524H106.364V8.30121H104.872ZM109.79 8.30121V12.0064H107.58V13.4832H109.79V23.4524H111.282V13.4832H113.49V12.0064H111.282V8.30121H109.79ZM114.666 8.30121V23.4524H116.136V17.8844C116.136 16.8925 116.172 16.1968 116.246 15.7978C116.32 15.4001 116.449 15.0443 116.632 14.7319C116.928 14.2327 117.331 13.8494 117.842 13.5826C118.353 13.3158 118.949 13.182 119.625 13.182C120.817 13.182 121.667 13.5067 122.174 14.1558C122.682 14.8041 122.935 15.9573 122.935 17.6153V23.4524H124.405V17.6343C124.405 15.5669 124.032 14.0744 123.285 13.1557C122.537 12.2365 121.346 11.7783 119.71 11.7783C118.962 11.7783 118.288 11.9091 117.684 12.1731C117.082 12.4357 116.566 12.8277 116.136 13.3487V8.30121H114.666ZM170.693 8.30121V12.0064H168.483V13.4832H170.693V23.4524H172.184V13.4832H174.395V12.0064H172.184V8.30121H170.693ZM83.5625 11.6935C81.7778 11.6935 80.3121 12.262 79.1662 13.3999C78.0204 14.5384 77.4482 15.9779 77.4482 17.7192C77.4482 19.3844 78.0344 20.8087 79.2049 21.9946C80.3753 23.1809 81.8063 23.7741 83.4985 23.7741C84.775 23.7741 85.8967 23.4346 86.8663 22.7564C87.8355 22.0785 88.5896 21.1063 89.1254 19.8408H87.4326C87.0521 20.6358 86.5121 21.2559 85.8141 21.7021C85.1156 22.1464 84.3293 22.3689 83.4554 22.3689C82.2217 22.3689 81.1921 21.9861 80.3671 21.2182C79.5425 20.4502 79.084 19.4424 78.9923 18.1958H89.4939V18.0891C89.4939 16.1938 88.9425 14.6535 87.8398 13.47C86.7363 12.2861 85.311 11.6935 83.5625 11.6935ZM181.069 11.6935C179.284 11.6935 177.82 12.262 176.674 13.3999C175.528 14.5384 174.956 15.9779 174.956 17.7192C174.956 19.3844 175.54 20.8087 176.711 21.9946C177.881 23.1809 179.312 23.7741 181.005 23.7741C182.281 23.7741 183.403 23.4346 184.372 22.7564C185.342 22.0785 186.095 21.1063 186.631 19.8408H184.939C184.558 20.6358 184.019 21.2559 183.32 21.7021C182.623 22.1464 181.836 22.3689 180.962 22.3689C179.727 22.3689 178.699 21.9861 177.875 21.2182C177.051 20.4502 176.592 19.4424 176.5 18.1958H187V18.0891C187 16.1938 186.45 14.6535 185.346 13.47C184.242 12.2861 182.817 11.6935 181.069 11.6935ZM96.7065 11.7564C94.9654 11.7564 93.5147 12.332 92.3549 13.4832C91.1951 14.6347 90.6145 16.0668 90.6145 17.7806C90.6145 19.4664 91.1826 20.8832 92.3177 22.0311C93.4525 23.1791 94.8744 23.7536 96.5802 23.7536C97.4968 23.7536 98.3506 23.565 99.1439 23.1906C99.9377 22.816 100.567 22.2992 101.033 21.6407V23.4524H102.492V12.0064H101.033V13.837C100.539 13.1649 99.9184 12.6495 99.1707 12.293C98.4234 11.9361 97.6017 11.7564 96.7065 11.7564V11.7564ZM161.534 11.7564C159.792 11.7564 158.341 12.332 157.182 13.4832C156.022 14.6347 155.442 16.0668 155.442 17.7806C155.442 19.4664 156.011 20.8832 157.145 22.0311C158.281 23.1791 159.701 23.7536 161.407 23.7536C162.324 23.7536 163.179 23.565 163.973 23.1906C164.766 22.816 165.394 22.2992 165.86 21.6407V23.4524H167.318V12.0064H165.86V13.837C165.366 13.1649 164.746 12.6495 163.998 12.293C163.251 11.9361 162.429 11.7564 161.534 11.7564V11.7564ZM125.23 12.0064L129.714 23.4304L128.159 27.1561H129.757L136.039 12.0064H134.305L130.539 21.2971L126.944 12.0064H125.23ZM83.3395 13.0782C84.5523 13.0782 85.5354 13.3989 86.2897 14.0432C87.044 14.6855 87.5624 15.6447 87.8442 16.9179H79.034C79.2106 15.7409 79.69 14.8064 80.4726 14.1149C81.2553 13.4233 82.211 13.0782 83.3395 13.0782ZM180.846 13.0782C182.058 13.0782 183.042 13.3989 183.796 14.0432C184.55 14.6855 185.07 15.6447 185.352 16.9179H176.542C176.718 15.7409 177.198 14.8064 177.98 14.1149C178.763 13.4233 179.717 13.0782 180.846 13.0782ZM96.6649 13.1191C97.8136 13.1191 98.8285 13.5721 99.7102 14.4775C100.591 15.3825 101.033 16.4429 101.033 17.6563C101.033 18.9614 100.594 20.0754 99.7161 21.0018C98.8382 21.9278 97.8071 22.3894 96.6218 22.3894C95.3959 22.3894 94.3445 21.9513 93.471 21.0734C92.5968 20.1955 92.1587 19.1191 92.1587 17.8434C92.1587 16.5043 92.5986 15.3825 93.477 14.4775C94.3545 13.5721 95.4168 13.1191 96.6649 13.1191ZM161.492 13.1191C162.641 13.1191 163.656 13.5721 164.537 14.4775C165.419 15.3825 165.86 16.4429 165.86 17.6563C165.86 18.9614 165.422 20.0754 164.543 21.0018C163.666 21.9278 162.633 22.3894 161.449 22.3894C160.222 22.3894 159.173 21.9513 158.298 21.0734C157.424 20.1955 156.986 19.1191 156.986 17.8434C156.986 16.5043 157.425 15.3825 158.304 14.4775C159.181 13.5721 160.244 13.1191 161.492 13.1191ZM46.9079 16.2833C46.4404 16.2833 46.0218 16.3625 45.6521 16.5187C45.2819 16.6766 44.9603 16.9116 44.6875 17.222V16.4237H43.7854V23.4524H44.6875V20.0338C44.6875 19.4247 44.71 18.9979 44.7559 18.7529C44.8015 18.5076 44.8796 18.2884 44.9922 18.0964C45.1742 17.7904 45.4225 17.5549 45.7368 17.3916C46.0507 17.2272 46.4149 17.146 46.8307 17.146C47.5188 17.146 48.0289 17.3384 48.3629 17.7235C48.6957 18.1087 48.8623 18.7074 48.8623 19.5162V23.4524H49.7273V20.0338C49.7273 19.4247 49.7499 18.9979 49.7971 18.7529C49.8448 18.5076 49.9231 18.2884 50.032 18.0964C50.2127 17.7904 50.4589 17.5549 50.7691 17.3916C51.0789 17.2272 51.4357 17.146 51.8437 17.146C52.5487 17.146 53.0582 17.3438 53.37 17.7367C53.681 18.1308 53.8382 18.791 53.8382 19.7194V23.4524H54.7135V19.9051C54.7135 18.6359 54.4942 17.7143 54.0522 17.1416C53.6105 16.5701 52.9043 16.2833 51.9343 16.2833C51.4023 16.2833 50.9203 16.389 50.4897 16.5991C50.0587 16.8105 49.6978 17.1176 49.4078 17.5218C49.174 17.143 48.8344 16.8412 48.3882 16.6181C47.9433 16.3946 47.449 16.2833 46.9079 16.2833ZM55.0851 16.4237L57.8376 23.4392L56.8834 25.7246H57.032H57.8643H58.0129L61.8711 16.4237H61.721H60.8055H60.6554L58.4216 21.939L56.286 16.4237H56.1358H55.2337H55.0851Z" fill="#231F20" stroke="white" stroke-width="0.211667"/>
<defs>
<linearGradient id="paint0_linear_772_2206" x1="25.1543" y1="28.3882" x2="27.3726" y2="3.78941" gradientUnits="userSpaceOnUse">
<stop stop-color="#01385E"/>
<stop offset="1" stop-color="#03BDCA"/>
</linearGradient>
<clipPath id="clip0_772_2206">
<rect width="31.9268" height="34.6634" fill="white"/>
</clipPath>
</defs>
</svg>
