<?xml version="1.0" encoding="utf-8"?>
<!-- Generator: Adobe Illustrator 26.5.0, SVG Export Plug-In . SVG Version: 6.00 Build 0)  -->
<svg version="1.1" id="Layer_1" xmlns="http://www.w3.org/2000/svg" xmlns:xlink="http://www.w3.org/1999/xlink" x="0px" y="0px"
	 viewBox="0 0 196 46" style="enable-background:new 0 0 196 46;" xml:space="preserve">
<style type="text/css">
	.st0{fill:url(#SVGID_1_);}
	.st1{fill:#231F20;}
	.st2{display:none;fill:url(#SVGID_00000008828407854642901210000017543284000784575385_);}
</style>
<linearGradient id="SVGID_1_" gradientUnits="userSpaceOnUse" x1="25.6292" y1="41.7052" x2="25.6292" y2="2.6166">
	<stop  offset="0.1858" style="stop-color:#063B61"/>
	<stop  offset="0.4734" style="stop-color:#056C88"/>
	<stop  offset="0.9804" style="stop-color:#04BECA"/>
</linearGradient>
<path class="st0" d="M20.3,5.6c0,0-1,0.1-2.3,0.7v27l2.3-1.2v-6.8c0.9-2.1,3-3.5,5.3-3.5c2.3,0,4.4,1.4,5.3,3.5v6.8l2.3,1.2v-27
	c-1.4-0.6-2.3-0.7-2.3-0.7v15.7c-1.5-1.2-3.3-1.9-5.3-1.9c-2,0-3.9,0.7-5.3,1.9V5.6z M16,7.4c-0.8,0.5-1.6,1.3-2.3,2.2v27.3l2.3-1.6
	V7.4z M35.2,7.4v27.8l2.3,1.6V9.6C36.8,8.7,36,7.9,35.2,7.4z M11.8,12.6c-1.4,2.8-2.3,6.7-2.3,12.2v16.9l2.3-2V12.6z M39.5,12.6
	v27.1l2.3,2V24.9C41.8,19.3,40.9,15.4,39.5,12.6z"/>
<path class="st1" d="M149.4,16.7c-1,0-2,0.2-2.8,0.5c-0.8,0.3-1.6,0.8-2.3,1.5c-0.7,0.7-1.3,1.5-1.6,2.4c-0.4,0.9-0.6,1.8-0.6,2.8
	c0,2.1,0.7,3.8,2.1,5.2c1.4,1.4,3.1,2.1,5.1,2.1c2,0,3.7-0.7,5-2c1.4-1.3,2.1-3,2.2-5h-8.8v1.2h7.1c-0.3,1.3-1,2.4-2,3.2
	c-1,0.8-2.2,1.2-3.5,1.2c-1.6,0-3-0.6-4.1-1.7c-1.1-1.1-1.7-2.6-1.7-4.3c0-1.6,0.6-3,1.7-4.1c1.1-1.1,2.5-1.7,4.1-1.7
	c0.9,0,1.8,0.2,2.5,0.6c0.8,0.4,1.5,1,2.1,1.9h1.7c-0.7-1.2-1.5-2.2-2.6-2.8C152,17,150.7,16.7,149.4,16.7L149.4,16.7z M74.9,16.9
	v14h1.4v-6.4H83v6.4h1.4v-14H83v6.3h-6.7v-6.3H74.9z M111.3,16.9v14h1.4v-14H111.3z M115.8,16.9v3.4h-2v1.4h2v9.2h1.4v-9.2h2v-1.4
	h-2v-3.4H115.8z M120.3,16.9v14h1.3v-5.1c0-0.9,0-1.6,0.1-1.9c0.1-0.4,0.2-0.7,0.4-1c0.3-0.5,0.6-0.8,1.1-1.1c0.5-0.2,1-0.4,1.6-0.4
	c1.1,0,1.9,0.3,2.3,0.9c0.5,0.6,0.7,1.7,0.7,3.2v5.4h1.3v-5.4c0-1.9-0.3-3.3-1-4.1c-0.7-0.8-1.8-1.3-3.3-1.3c-0.7,0-1.3,0.1-1.9,0.4
	c-0.6,0.2-1,0.6-1.4,1.1v-4.7H120.3z M171.6,16.9v3.4h-2v1.4h2v9.2h1.4v-9.2h2v-1.4h-2v-3.4H171.6z M91.8,20.1c-1.6,0-3,0.5-4,1.6
	c-1,1-1.6,2.4-1.6,4c0,1.5,0.5,2.8,1.6,3.9c1.1,1.1,2.4,1.6,3.9,1.6c1.2,0,2.2-0.3,3.1-0.9c0.9-0.6,1.6-1.5,2.1-2.7h-1.6
	c-0.3,0.7-0.8,1.3-1.5,1.7c-0.6,0.4-1.4,0.6-2.2,0.6c-1.1,0-2.1-0.4-2.8-1.1c-0.8-0.7-1.2-1.6-1.3-2.8h9.6V26c0-1.7-0.5-3.2-1.5-4.3
	C94.7,20.6,93.4,20.1,91.8,20.1z M181.1,20.1c-1.6,0-3,0.5-4,1.6c-1,1-1.6,2.4-1.6,4c0,1.5,0.5,2.8,1.6,3.9c1.1,1.1,2.4,1.6,3.9,1.6
	c1.2,0,2.2-0.3,3.1-0.9c0.9-0.6,1.6-1.5,2.1-2.7h-1.6c-0.3,0.7-0.8,1.3-1.5,1.7c-0.6,0.4-1.4,0.6-2.2,0.6c-1.1,0-2.1-0.4-2.8-1.1
	c-0.8-0.7-1.2-1.6-1.3-2.8h9.6V26c0-1.7-0.5-3.2-1.5-4.3C184,20.6,182.7,20.1,181.1,20.1z M103.8,20.1c-1.6,0-2.9,0.5-4,1.6
	c-1.1,1.1-1.6,2.4-1.6,4c0,1.6,0.5,2.9,1.6,3.9c1,1.1,2.3,1.6,3.9,1.6c0.8,0,1.6-0.2,2.3-0.5c0.7-0.3,1.3-0.8,1.7-1.4v1.7h1.3V20.4
	h-1.3v1.7c-0.5-0.6-1-1.1-1.7-1.4C105.4,20.3,104.6,20.1,103.8,20.1L103.8,20.1z M163.2,20.1c-1.6,0-2.9,0.5-4,1.6
	c-1.1,1.1-1.6,2.4-1.6,4c0,1.6,0.5,2.9,1.6,3.9c1,1.1,2.3,1.6,3.9,1.6c0.8,0,1.6-0.2,2.3-0.5c0.7-0.3,1.3-0.8,1.7-1.4v1.7h1.3V20.4
	h-1.3v1.7c-0.5-0.6-1-1.1-1.7-1.4C164.8,20.3,164,20.1,163.2,20.1L163.2,20.1z M129.9,20.4l4.1,10.5l-1.4,3.4h1.5l5.8-14h-1.6
	l-3.4,8.6l-3.3-8.6H129.9z M91.6,21.4c1.1,0,2,0.3,2.7,0.9c0.7,0.6,1.2,1.5,1.4,2.6h-8.1c0.2-1.1,0.6-1.9,1.3-2.6
	C89.7,21.7,90.5,21.4,91.6,21.4L91.6,21.4z M180.9,21.4c1.1,0,2,0.3,2.7,0.9c0.7,0.6,1.2,1.5,1.4,2.6h-8.1c0.2-1.1,0.6-1.9,1.3-2.6
	C179,21.7,179.8,21.4,180.9,21.4z M103.8,21.4c1.1,0,2,0.4,2.8,1.3c0.8,0.8,1.2,1.8,1.2,2.9c0,1.2-0.4,2.2-1.2,3.1
	c-0.8,0.9-1.7,1.3-2.8,1.3c-1.1,0-2.1-0.4-2.9-1.2c-0.8-0.8-1.2-1.8-1.2-3c0-1.2,0.4-2.3,1.2-3.1C101.7,21.8,102.6,21.4,103.8,21.4
	L103.8,21.4z M163.1,21.4c1.1,0,2,0.4,2.8,1.3c0.8,0.8,1.2,1.8,1.2,2.9c0,1.2-0.4,2.2-1.2,3.1c-0.8,0.9-1.7,1.3-2.8,1.3
	c-1.1,0-2.1-0.4-2.9-1.2c-0.8-0.8-1.2-1.8-1.2-3c0-1.2,0.4-2.3,1.2-3.1C161,21.8,162,21.4,163.1,21.4L163.1,21.4z M58.2,24.3
	c-0.4,0-0.8,0.1-1.2,0.2c-0.3,0.1-0.6,0.4-0.9,0.6v-0.7h-0.8v6.5h0.8v-3.2c0-0.6,0-1,0.1-1.2c0-0.2,0.1-0.4,0.2-0.6
	c0.2-0.3,0.4-0.5,0.7-0.6c0.3-0.2,0.6-0.2,1-0.2c0.6,0,1.1,0.2,1.4,0.5c0.3,0.4,0.5,0.9,0.5,1.7v3.6h0.8v-3.2c0-0.6,0-1,0.1-1.2
	c0-0.2,0.1-0.4,0.2-0.6c0.2-0.3,0.4-0.5,0.7-0.6c0.3-0.2,0.6-0.2,1-0.2c0.6,0,1.1,0.2,1.4,0.5c0.3,0.4,0.4,1,0.4,1.8v3.4h0.8v-3.3
	c0-1.2-0.2-2-0.6-2.5c-0.4-0.5-1.1-0.8-1.9-0.8c-0.5,0-0.9,0.1-1.3,0.3c-0.4,0.2-0.7,0.5-1,0.9c-0.2-0.3-0.5-0.6-0.9-0.8
	C59.2,24.4,58.7,24.3,58.2,24.3z M65.7,24.4l2.5,6.5L67.3,33h0.1h0.8h0.1l3.5-8.6h-0.1h-0.8h-0.1l-2,5.1l-2-5.1h-0.1h-0.8H65.7z"/>
<linearGradient id="SVGID_00000087382502470848251850000007195823516575545765_" gradientUnits="userSpaceOnUse" x1="316" y1="98.1981" x2="316" y2="67.6979">
	<stop  offset="0.2346" style="stop-color:#E3E3E3"/>
	<stop  offset="1" style="stop-color:#17a2b8"/>
</linearGradient>
<path style="display:none;fill:url(#SVGID_00000087382502470848251850000007195823516575545765_);" d="M311.9,70.1
	c0,0-0.8,0.1-1.8,0.5v21.1l1.8-0.9v-5.3c0.7-1.6,2.3-2.7,4.1-2.7c1.8,0,3.4,1.1,4.1,2.7v5.3l1.8,0.9V70.6c-1.1-0.5-1.8-0.5-1.8-0.5
	v12.2c-1.1-1-2.6-1.5-4.1-1.5c-1.6,0-3,0.6-4.1,1.5V70.1z M308.5,71.4c-0.6,0.4-1.2,1-1.8,1.7v21.3l1.8-1.3V71.4z M323.5,71.4v21.7
	l1.8,1.3V73.1C324.7,72.4,324.1,71.9,323.5,71.4z M305.2,75.5c-1.1,2.2-1.8,5.3-1.8,9.6v13.1l1.8-1.6V75.5z M326.8,75.5v21.1
	l1.8,1.6V85.1C328.6,80.8,327.9,77.7,326.8,75.5z"/>
</svg>
