<?xml version="1.0" encoding="utf-8"?>
<!-- Generator: Adobe Illustrator 26.5.0, SVG Export Plug-In . SVG Version: 6.00 Build 0)  -->
<svg version="1.1" id="Layer_1" xmlns="http://www.w3.org/2000/svg" xmlns:xlink="http://www.w3.org/1999/xlink" x="0px" y="0px"
	 viewBox="0 0 160 56.8" style="enable-background:new 0 0 160 56.8;" xml:space="preserve">
<style type="text/css">
	.st0{fill:#FFFFFF;}
	.st1{fill:url(#SVGID_1_);}
</style>
<path class="st0" d="M114.7,35.3c-1.3,0-2.4,0.2-3.4,0.6c-1,0.4-2,1-2.8,1.9c-0.9,0.9-1.6,1.8-2,2.9c-0.5,1.1-0.7,2.2-0.7,3.4
	c0,2.5,0.8,4.7,2.5,6.4c1.7,1.7,3.8,2.6,6.2,2.6c2.4,0,4.5-0.8,6.1-2.4c1.7-1.6,2.6-3.6,2.7-6.1h-10.7V46h8.7
	c-0.4,1.6-1.2,2.9-2.4,3.9c-1.2,1-2.7,1.5-4.2,1.5c-2,0-3.7-0.7-5-2.1c-1.4-1.4-2-3.1-2-5.2c0-2,0.7-3.6,2-5c1.4-1.4,3-2.1,5-2.1
	c1.1,0,2.2,0.2,3.1,0.7c0.9,0.5,1.8,1.2,2.6,2.3h2.1c-0.8-1.5-1.9-2.6-3.2-3.4C117.9,35.7,116.4,35.3,114.7,35.3L114.7,35.3z
	 M23.8,35.7v17h1.7v-7.8h8.2v7.8h1.7v-17h-1.7v7.6h-8.2v-7.6H23.8z M68.2,35.7v17h1.7v-17H68.2z M73.7,35.7v4.2h-2.5v1.7h2.5v11.2
	h1.7V41.5h2.5v-1.7h-2.5v-4.2H73.7z M79.2,35.7v17h1.6v-6.3c0-1.1,0-1.9,0.1-2.3c0.1-0.4,0.2-0.8,0.4-1.2c0.3-0.6,0.8-1,1.4-1.3
	c0.6-0.3,1.2-0.5,2-0.5c1.3,0,2.3,0.4,2.8,1.1c0.6,0.7,0.9,2,0.9,3.9v6.6h1.6v-6.5c0-2.3-0.4-4-1.3-5c-0.8-1-2.2-1.5-4-1.5
	c-0.8,0-1.6,0.1-2.3,0.4c-0.7,0.3-1.2,0.7-1.7,1.3v-5.7H79.2z M141.8,35.7v4.2h-2.5v1.7h2.5v11.2h1.7V41.5h2.5v-1.7h-2.5v-4.2H141.8
	z M44.4,39.5c-2,0-3.6,0.6-4.9,1.9c-1.3,1.3-1.9,2.9-1.9,4.9c0,1.9,0.7,3.5,2,4.8c1.3,1.3,2.9,2,4.8,2c1.4,0,2.7-0.4,3.8-1.1
	c1.1-0.8,1.9-1.9,2.5-3.3h-1.9c-0.4,0.9-1,1.6-1.8,2.1c-0.8,0.5-1.7,0.8-2.6,0.8c-1.4,0-2.5-0.4-3.5-1.3c-0.9-0.9-1.4-2-1.5-3.4
	h11.7v-0.1c0-2.1-0.6-3.9-1.8-5.2C48,40.1,46.4,39.5,44.4,39.5z M153.4,39.5c-2,0-3.6,0.6-4.9,1.9c-1.3,1.3-1.9,2.9-1.9,4.9
	c0,1.9,0.7,3.5,2,4.8c1.3,1.3,2.9,2,4.8,2c1.4,0,2.7-0.4,3.8-1.1c1.1-0.8,1.9-1.9,2.5-3.3h-1.9c-0.4,0.9-1,1.6-1.8,2.1
	c-0.8,0.5-1.7,0.8-2.6,0.8c-1.4,0-2.5-0.4-3.4-1.3c-0.9-0.9-1.4-2-1.5-3.4H160v-0.1c0-2.1-0.6-3.9-1.8-5.2
	C156.9,40.1,155.3,39.5,153.4,39.5z M59.1,39.5c-1.9,0-3.6,0.6-4.9,1.9c-1.3,1.3-1.9,2.9-1.9,4.8c0,1.9,0.6,3.5,1.9,4.8
	c1.3,1.3,2.9,1.9,4.8,1.9c1,0,2-0.2,2.9-0.6c0.9-0.4,1.6-1,2.1-1.7v2h1.6V39.8H64v2.1c-0.6-0.8-1.2-1.3-2.1-1.7
	C61,39.8,60.1,39.5,59.1,39.5L59.1,39.5z M131.5,39.5c-1.9,0-3.6,0.6-4.9,1.9c-1.3,1.3-1.9,2.9-1.9,4.8c0,1.9,0.6,3.5,1.9,4.8
	c1.3,1.3,2.9,1.9,4.8,1.9c1,0,2-0.2,2.9-0.6c0.9-0.4,1.6-1,2.1-1.7v2h1.6V39.8h-1.6v2.1c-0.6-0.8-1.2-1.3-2.1-1.7
	C133.5,39.8,132.5,39.5,131.5,39.5L131.5,39.5z M91,39.8l5,12.8l-1.7,4.2H96l7-17h-1.9l-4.2,10.4l-4-10.4H91z M44.2,41
	c1.4,0,2.5,0.4,3.3,1.1c0.8,0.7,1.4,1.8,1.7,3.2h-9.8c0.2-1.3,0.7-2.4,1.6-3.2C41.9,41.4,42.9,41,44.2,41L44.2,41z M153.1,41
	c1.4,0,2.5,0.4,3.3,1.1c0.8,0.7,1.4,1.8,1.7,3.2h-9.8c0.2-1.3,0.7-2.4,1.6-3.2C150.8,41.4,151.9,41,153.1,41z M59.1,41.1
	c1.3,0,2.4,0.5,3.4,1.5c1,1,1.5,2.2,1.5,3.6c0,1.5-0.5,2.7-1.5,3.8c-1,1-2.1,1.6-3.5,1.6c-1.4,0-2.5-0.5-3.5-1.5
	c-1-1-1.5-2.2-1.5-3.6c0-1.5,0.5-2.8,1.5-3.8C56.5,41.6,57.7,41.1,59.1,41.1L59.1,41.1z M131.5,41.1c1.3,0,2.4,0.5,3.4,1.5
	c1,1,1.5,2.2,1.5,3.6c0,1.5-0.5,2.7-1.5,3.8c-1,1-2.1,1.6-3.5,1.6c-1.4,0-2.5-0.5-3.5-1.5c-1-1-1.5-2.2-1.5-3.6
	c0-1.5,0.5-2.8,1.5-3.8C128.9,41.6,130.1,41.1,131.5,41.1L131.5,41.1z M3.5,44.6c-0.5,0-1,0.1-1.4,0.3c-0.4,0.2-0.8,0.4-1.1,0.8
	v-0.9H0v7.9h1v-3.8c0-0.7,0-1.2,0.1-1.4c0.1-0.3,0.1-0.5,0.3-0.7c0.2-0.3,0.5-0.6,0.8-0.8c0.4-0.2,0.8-0.3,1.2-0.3
	c0.8,0,1.3,0.2,1.7,0.6c0.4,0.4,0.6,1.1,0.6,2v4.4h1v-3.8c0-0.7,0-1.2,0.1-1.4c0.1-0.3,0.1-0.5,0.3-0.7c0.2-0.3,0.5-0.6,0.8-0.8
	c0.3-0.2,0.7-0.3,1.2-0.3c0.8,0,1.4,0.2,1.7,0.7c0.3,0.4,0.5,1.2,0.5,2.2v4.2h1v-4c0-1.4-0.2-2.5-0.7-3.1c-0.5-0.6-1.3-1-2.4-1
	c-0.6,0-1.1,0.1-1.6,0.4c-0.5,0.2-0.9,0.6-1.2,1c-0.3-0.4-0.6-0.8-1.1-1C4.6,44.8,4.1,44.6,3.5,44.6z M12.6,44.8l3.1,7.9l-1.1,2.6
	h0.2h0.9h0.2l4.3-10.5H20h-1h-0.2L16.4,51L14,44.8h-0.2h-1H12.6z"/>
<linearGradient id="SVGID_1_" gradientUnits="userSpaceOnUse" x1="80" y1="28.144" x2="80" y2="-2.3562">
	<stop  offset="0.2346" style="stop-color:#E3E3E3"/>
	<stop  offset="1" style="stop-color:#13BDCA"/>
</linearGradient>
<path class="st1" d="M75.9,0c0,0-0.8,0.1-1.8,0.5v21.1l1.8-0.9v-5.3c0.7-1.6,2.3-2.7,4.1-2.7c1.8,0,3.4,1.1,4.1,2.7v5.3l1.8,0.9V0.5
	C84.9,0.1,84.1,0,84.1,0v12.2c-1.1-1-2.6-1.5-4.1-1.5s-3,0.6-4.1,1.5V0z M72.5,1.4c-0.6,0.4-1.2,1-1.8,1.7v21.3l1.8-1.3V1.4z
	 M87.5,1.4v21.7l1.8,1.3V3.1C88.7,2.4,88.1,1.8,87.5,1.4z M69.2,5.4c-1.1,2.2-1.8,5.3-1.8,9.6v13.1l1.8-1.6V5.4z M90.8,5.4v21.1
	l1.8,1.6V15C92.6,10.7,91.9,7.6,90.8,5.4z"/>
</svg>
