<svg xmlns="http://www.w3.org/2000/svg" width="90.873" height="89.182" viewBox="0 0 90.873 89.182"><defs><style>.a{fill:#fff;}</style></defs><g transform="translate(0)"><g transform="translate(0 0)"><path class="a" d="M90.451,38.055A6.983,6.983,0,0,0,89.78,36.7l-.02-.03-.214-.321-.017-.025c-.073-.1-.147-.206-.225-.3a6.2,6.2,0,0,0-.508-.574l-.465-.461.427-.5a5.071,5.071,0,0,0,.773-1.293l.012-.028a5.332,5.332,0,0,0,.269-.749,8.258,8.258,0,0,0,.17-.859,7.406,7.406,0,0,0-.444-3.669,7.985,7.985,0,0,0-.4-.857l-.015-.028-.042-.075a5.547,5.547,0,0,0-.417-.678l-.014-.019c-.186-.249-.385-.491-.588-.715a4.71,4.71,0,0,0-.6-.58,6.3,6.3,0,0,0-1.372-.889,6.548,6.548,0,0,0-1.454-.475l-.635-.125.072-.644a6.667,6.667,0,0,0-.015-1.53,6.429,6.429,0,0,0-.4-1.531l-.011-.029a7.533,7.533,0,0,0-1.981-2.809A8.051,8.051,0,0,0,80.228,15.9l-.03-.017a7.5,7.5,0,0,0-1.525-.6,6.419,6.419,0,0,0-1.525-.222h-.024q-.117,0-.232,0c-.123,0-.3,0-.49.02a6.858,6.858,0,0,0-.737.117l-.681.148-.155-.68a7.066,7.066,0,0,0-3.99-4.676,7.375,7.375,0,0,0-3.074-.677,6.648,6.648,0,0,0-3.026.71l-.624.32-.323-.623a7.088,7.088,0,0,0-4.881-3.6A7.68,7.68,0,0,0,57.37,5.96a6.9,6.9,0,0,0-4.354,1.489l-.555.451-.442-.562a6.068,6.068,0,0,0-1.035-1.027,7.589,7.589,0,0,0-1.26-.8l-.05-.024A7.424,7.424,0,0,0,46.6,4.766l-.225,0a7.49,7.49,0,0,0-2.915.619l-.05.022a7.632,7.632,0,0,0-1.288.763,6.072,6.072,0,0,0-1.065.99l-.461.547-.54-.469a6.931,6.931,0,0,0-4.565-1.644,7.711,7.711,0,0,0-1.275.107,7.123,7.123,0,0,0-5,3.411l-.346.608-.61-.342a6.766,6.766,0,0,0-3.3-.838,7.381,7.381,0,0,0-2.758.538l-.026.011a8.5,8.5,0,0,0-1.461.784l-.032.022a8.367,8.367,0,0,0-1.187,1.035l-.033.036a6.623,6.623,0,0,0-1.464,2.594l-.186.669-.671-.177a6.324,6.324,0,0,0-1.456-.22h-.126a7.708,7.708,0,0,0-1.426.137l-.033.007a7.838,7.838,0,0,0-1.544.518,8.118,8.118,0,0,0-1.473.9l-.029.022a8.389,8.389,0,0,0-1.218,1.205L9.8,16.66a8.109,8.109,0,0,0-.862,1.377l-.023.047A6.424,6.424,0,0,0,8.3,21.065l.036.676-.674.062a6.568,6.568,0,0,0-.717.107l-.05.011a6.3,6.3,0,0,0-.693.216,5.886,5.886,0,0,0-1.411.728l-.019.015a6.41,6.41,0,0,0-1.278,1.138l-.02.024c-.191.22-.376.454-.55.695-.016.022-.031.044-.046.067-.151.235-.3.5-.457.8a7.466,7.466,0,0,0-.825,3.558A7,7,0,0,0,1.852,30.8l.011.038A5.861,5.861,0,0,0,2.5,32.218l.334.54-.5.388A6.681,6.681,0,0,0,.1,39.485c0,.025.008.05.014.075.071.339.159.679.264,1.025l.032.1a3.634,3.634,0,0,0,.124.36c.073.169.15.335.226.488a8.445,8.445,0,0,0,.483.868l.033.048c.192.266.4.526.609.764l.055.061c.092.1.163.18.234.248l.042.038c.116.1.233.2.351.294a7.6,7.6,0,0,0,.69.489c.028.017.056.034.084.049a5.722,5.722,0,0,0,1.473.553l.558.123-.006.572a5.848,5.848,0,0,0,.2,1.576c0,.019.01.037.016.055a7.689,7.689,0,0,0,.3.795q.084.188.179.376c.012.024.025.048.039.071.067.115.137.228.211.342.167.255.351.51.549.758l.038.045a8.67,8.67,0,0,0,.652.661c.124.114.251.226.377.331.105.086.2.151.276.2l.1.073c.264.18.542.352.826.512l.064.034a7.409,7.409,0,0,0,3.247.82c.061,0,.12,0,.2,0,.272-.006.541-.026.8-.058l.031,0a6.443,6.443,0,0,0,.733-.161,5.689,5.689,0,0,0,1.369-.559l.605-.357.359.6a7.186,7.186,0,0,0,5.139,3.279,7.565,7.565,0,0,0,1.049.074,7.045,7.045,0,0,0,4.674-1.74l.54-.476.464.549a7.248,7.248,0,0,0,5.306,2.516c.1,0,.195,0,.292,0a7.343,7.343,0,0,0,5.109,10.59A18.3,18.3,0,0,0,49.3,81.942L54.544,84.5l.042.02a5.055,5.055,0,0,1,2.925,4.559,4.871,4.871,0,0,0,4.865,4.865h1.749A4.871,4.871,0,0,0,68.99,89.08a16.524,16.524,0,0,0-3.807-10.488c.437.031.876.048,1.316.048q.388,0,.777-.016a18.6,18.6,0,0,0,17.86-18.649A1.435,1.435,0,0,0,83.7,58.541h0a1.435,1.435,0,0,0-1.434,1.436A15.789,15.789,0,0,1,59.576,74.183l-5.247-2.558a6.748,6.748,0,0,1-3.58-4.487l.037,0a7.428,7.428,0,0,0,2.989-.842,7.125,7.125,0,0,0,2.251-1.877l.438-.561.556.444a7.332,7.332,0,0,0,2.6,1.311l.05.013a7.831,7.831,0,0,0,1.811.215,7.394,7.394,0,0,0,1.292-.113l.019,0a7.441,7.441,0,0,0,2.956-1.227,7.357,7.357,0,0,0,1.132-.978l.024-.027a7.044,7.044,0,0,0,.857-1.188l.345-.605.609.339a6.338,6.338,0,0,0,1.353.577,7.558,7.558,0,0,0,1.521.252l.024,0a6.283,6.283,0,0,0,1.6-.105,6.557,6.557,0,0,0,1.632-.484l.038-.017a6.952,6.952,0,0,0,4.139-4.783l.128-.656.662.094a5.167,5.167,0,0,0,.736.064h0a6.719,6.719,0,0,0,.782-.055,7.637,7.637,0,0,0,.811-.149,5.718,5.718,0,0,0,.757-.264l.018-.007c.266-.111.535-.238.8-.379l.029-.016a7.2,7.2,0,0,0,.721-.49l.025-.019a7.683,7.683,0,0,0,.7-.586l.023-.024c.23-.238.451-.488.658-.746.093-.115.183-.231.27-.349q.029-.039.055-.08c.079-.125.155-.25.23-.378.157-.27.3-.547.434-.825.012-.025.023-.05.033-.075a7.922,7.922,0,0,0,.481-1.668c0-.023.007-.045.009-.068a6.663,6.663,0,0,0,.025-1.631,5.88,5.88,0,0,0-.388-1.491l-.255-.6.573-.3a6.4,6.4,0,0,0,1.238-.86l.043-.039a7.194,7.194,0,0,0,1.032-1.222,7.584,7.584,0,0,0,1.171-3.265l0-.022A7.239,7.239,0,0,0,90.451,38.055ZM53.07,74.2l5.247,2.558.006,0a13.775,13.775,0,0,1,7.8,12.315,2,2,0,0,1-2,2H62.375a2,2,0,0,1-2-2,7.9,7.9,0,0,0-4.555-7.147l-5.27-2.57a15.412,15.412,0,0,1-8.57-12.83c.113-.023.225-.046.337-.074a1.435,1.435,0,1,0-.7-2.782A4.475,4.475,0,0,1,36.71,57a8.041,8.041,0,0,0,6.2,4.728l.445.063.13.43A6.848,6.848,0,0,0,45.428,65.3a6.938,6.938,0,0,0,2.331,1.41A9.639,9.639,0,0,0,53.07,74.2Zm34.9-33.162,0,.046a4.654,4.654,0,0,1-.718,2,4.362,4.362,0,0,1-.6.7,3.527,3.527,0,0,1-.66.456l-1.441.763c-.041,0-.083-.006-.125-.006H81.937a3.017,3.017,0,0,1-3.014-3.014A5.891,5.891,0,0,0,73.039,36.1H72.83a5.891,5.891,0,0,0-5.884,5.884,2.675,2.675,0,0,1-2.672,2.672,3.017,3.017,0,0,1-3.014-3.014V40.39a1.435,1.435,0,0,0-2.87,0v1.255a5.891,5.891,0,0,0,5.884,5.884,5.548,5.548,0,0,0,5.541-5.542,3.017,3.017,0,0,1,3.014-3.014h.209a3.017,3.017,0,0,1,3.014,3.014,5.891,5.891,0,0,0,5.884,5.884h2.041l.4.94a3.194,3.194,0,0,1,.184.764,3.979,3.979,0,0,1-.031.867,5.061,5.061,0,0,1-.29.988c-.091.19-.191.38-.3.565q-.071.121-.145.24c-.054.072-.11.143-.166.213-.148.185-.307.365-.472.537-.095.091-.269.227-.415.339-.118.088-.3.223-.4.281-.176.094-.353.177-.516.245-.1.042-.3.12-.356.136a4.8,4.8,0,0,1-.5.093,3.882,3.882,0,0,1-.436.032c-.066,0-.255-.027-.317-.036L78.2,53.79a1.434,1.434,0,0,0-1.61,1.146l-.389,1.993a4.085,4.085,0,0,1-2.455,2.7l-.018.008-.054.024-.018.008a3.793,3.793,0,0,1-.942.271,4.322,4.322,0,0,1-.729.077c-.047,0-.094,0-.157-.007l-.051,0a4.7,4.7,0,0,1-.945-.154,3.472,3.472,0,0,1-.726-.319L68.26,58.5a1.435,1.435,0,0,0-1.944.543L65.267,60.88a4.157,4.157,0,0,1-.5.689,4.555,4.555,0,0,1-.691.59,4.619,4.619,0,0,1-1.827.744,4.833,4.833,0,0,1-1.894-.066,4.431,4.431,0,0,1-1.552-.781l-.963-.768a1.431,1.431,0,0,0,.007-.144v-.209a5.891,5.891,0,0,0-5.884-5.884A2.675,2.675,0,0,1,49.3,52.38a3.017,3.017,0,0,1,3.014-3.014h1.255a1.435,1.435,0,0,0,0-2.87H52.309a5.891,5.891,0,0,0-5.884,5.884,5.548,5.548,0,0,0,5.542,5.542,3.017,3.017,0,0,1,3.014,3.014v.153l-1.22,1.565a4.286,4.286,0,0,1-1.36,1.121,4.6,4.6,0,0,1-1.844.5,4.086,4.086,0,0,1-1.129-.078l-.018,0a5.38,5.38,0,0,1-.651-.178,4.037,4.037,0,0,1-1.4-.843,3.98,3.98,0,0,1-1.134-1.787l-.4-1.307a1.435,1.435,0,0,0-1.172-1.005l-1.351-.192a5.155,5.155,0,0,1-4.154-3.511l-.6-1.866a1.434,1.434,0,0,0-1.684-.961l-1.912.434a4.571,4.571,0,0,1-1.154.108,4.374,4.374,0,0,1-3.208-1.5l-1.41-1.669a1.435,1.435,0,0,0-2.045-.15L25.5,51.214a4.249,4.249,0,0,1-3.428.975,4.321,4.321,0,0,1-3.067-1.9l-1.089-1.836a1.435,1.435,0,0,0-1.964-.5l-1.838,1.086a2.934,2.934,0,0,1-.672.264c-.16.043-.285.072-.371.086-.161.019-.329.031-.512.035l-.116,0a4.521,4.521,0,0,1-1.94-.506c-.2-.113-.395-.234-.57-.354l-.111-.077-.066-.044c-.082-.069-.176-.151-.261-.229-.189-.175-.319-.305-.417-.416-.133-.167-.256-.338-.364-.5-.039-.06-.077-.12-.114-.181s-.067-.139-.1-.21a4.86,4.86,0,0,1-.181-.468,2.954,2.954,0,0,1-.091-.764l.017-1.737a1.435,1.435,0,0,0-1.127-1.415l-1.7-.373a2.822,2.822,0,0,1-.69-.256c-.129-.083-.259-.177-.388-.279q-.1-.079-.2-.164l-.081-.089L4.02,41.3c-.132-.149-.271-.323-.4-.5-.09-.141-.2-.348-.293-.541-.047-.1-.1-.206-.143-.307-.011-.033-.024-.076-.038-.122l-.029-.092c-.073-.239-.136-.484-.189-.728a3.826,3.826,0,0,1,1.156-3.588l1.529-1.177a1.435,1.435,0,0,0,.345-1.891L4.941,30.709a3.113,3.113,0,0,1-.327-.682A4.2,4.2,0,0,1,4.46,29.1a4.613,4.613,0,0,1,.5-2.168c.11-.211.21-.389.306-.542.118-.162.243-.319.38-.476l.04-.047a3.764,3.764,0,0,1,.745-.645l.042-.03a3.164,3.164,0,0,1,.728-.362c.13-.048.245-.085.342-.11a3.8,3.8,0,0,1,.38-.056l2.049-.189a1.435,1.435,0,0,0,1.3-1.505l-.109-2.054A3.538,3.538,0,0,1,11.51,19.3a5.3,5.3,0,0,1,.526-.848,5.607,5.607,0,0,1,.767-.768,5.426,5.426,0,0,1,.915-.575,5.113,5.113,0,0,1,.954-.328,4.808,4.808,0,0,1,.864-.084h.083a3.487,3.487,0,0,1,.781.126l2,.527a3.017,3.017,0,0,1-.017,4.244,5.884,5.884,0,0,0,0,8.321l.148.148a5.884,5.884,0,0,0,8.321,0,2.675,2.675,0,0,1,3.779,0,3.017,3.017,0,0,1,0,4.263l-.887.887a1.435,1.435,0,1,0,2.029,2.029l.887-.887a5.891,5.891,0,0,0,0-8.321,5.548,5.548,0,0,0-7.837,0,3.014,3.014,0,0,1-4.263,0l-.148-.148a3.014,3.014,0,0,1,0-4.263,5.89,5.89,0,0,0,.054-8.265l.288-1.032a3.778,3.778,0,0,1,.834-1.447,5.488,5.488,0,0,1,.747-.649,5.677,5.677,0,0,1,.938-.5,4.522,4.522,0,0,1,1.677-.327,3.893,3.893,0,0,1,1.9.472L28.7,12.917a1.435,1.435,0,0,0,1.948-.542L31.7,10.529a4.23,4.23,0,0,1,2.983-2,4.828,4.828,0,0,1,.8-.067,4.068,4.068,0,0,1,2.682.939l1.132.985c0,.009,0,.019,0,.028v4.444a5.891,5.891,0,0,0,5.884,5.884A3.017,3.017,0,0,1,48.2,23.755v.209a3.017,3.017,0,0,1-3.014,3.014A5.548,5.548,0,0,0,39.64,32.52,5.891,5.891,0,0,0,45.524,38.4h1.255a1.435,1.435,0,0,0,0-2.87H45.524A3.017,3.017,0,0,1,42.51,32.52a2.675,2.675,0,0,1,2.672-2.672,5.891,5.891,0,0,0,5.884-5.884v-.209a5.891,5.891,0,0,0-5.884-5.884,3.017,3.017,0,0,1-3.014-3.014V10.414c0-.041,0-.081-.006-.12l1.083-1.286a3.208,3.208,0,0,1,.567-.525,4.745,4.745,0,0,1,.783-.467,4.629,4.629,0,0,1,1.774-.382l.179,0h.024a4.563,4.563,0,0,1,1.873.442,4.731,4.731,0,0,1,.766.491,3.168,3.168,0,0,1,.551.545l1.344,1.707a1.435,1.435,0,0,0,2.032.226l1.686-1.37a4.25,4.25,0,0,1,3.513-.747,4.2,4.2,0,0,1,2.906,2.106l.98,1.891a1.435,1.435,0,0,0,1.929.616l1.9-.973a3.766,3.766,0,0,1,1.715-.393,4.522,4.522,0,0,1,1.885.419,4.21,4.21,0,0,1,2.38,2.7l.172.758a5.814,5.814,0,0,0-2.5,2.14,6.062,6.062,0,0,0-.911,4.44,2.672,2.672,0,0,1-2.148,3.109A3.015,3.015,0,0,1,63.13,23.32L62.9,22.085a1.435,1.435,0,1,0-2.823.515l.225,1.235a5.888,5.888,0,0,0,5.775,4.829,5.932,5.932,0,0,0,1.069-.1,5.542,5.542,0,0,0,4.456-6.447,3.249,3.249,0,0,1,.485-2.347,2.9,2.9,0,0,1,1.9-1.289c.02,0,.038-.009.057-.014a1.477,1.477,0,0,0,.15-.024L76.27,18a3.933,3.933,0,0,1,.409-.066c.007,0,.076-.007.21-.007l.141,0a3.746,3.746,0,0,1,.839.11,4.842,4.842,0,0,1,.94.361,5.435,5.435,0,0,1,.917.635,4.675,4.675,0,0,1,1.234,1.721,3.868,3.868,0,0,1,.238.857,3.78,3.78,0,0,1,.013.879l-.217,1.955a1.435,1.435,0,0,0,1.149,1.566l1.931.38a3.715,3.715,0,0,1,.826.275,4.026,4.026,0,0,1,.773.525,2.166,2.166,0,0,1,.25.25c.149.165.287.332.428.521l.019.024c.037.053.132.224.2.338l.034.062c.1.181.2.383.251.519a4.6,4.6,0,0,1,.29,2.235,5.6,5.6,0,0,1-.113.577c-.019.067-.093.247-.128.33a2.5,2.5,0,0,1-.322.574l-1.3,1.51a1.435,1.435,0,0,0,.078,1.953l1.412,1.4a3.27,3.27,0,0,1,.269.3c.042.053.083.108.122.165l.194.292a4.1,4.1,0,0,1,.389.776A4.376,4.376,0,0,1,87.971,41.043Z" transform="translate(-0.002 -4.763)"/></g></g></svg>