<svg width="146" height="436" viewBox="0 0 146 436" fill="none" xmlns="http://www.w3.org/2000/svg">
<path opacity="0.1" d="M62.5 206L116.627 237.25V299.75L62.5 331L8.37341 299.75V237.25L62.5 206Z" fill="#17a2b8"/>
<path opacity="0.1" d="M125.5 103L179.627 134.25V196.75L125.5 228L71.3734 196.75V134.25L125.5 103Z" fill="#17a2b8"/>
<path d="M87.4619 143.539L125.5 121.577L163.538 143.539V187.461L125.5 209.423L87.4619 187.461V143.539Z" stroke="#17a2b8"/>
<path opacity="0.1" d="M182.5 206L236.627 237.25V299.75L182.5 331L128.373 299.75V237.25L182.5 206Z" fill="#17a2b8"/>
<path opacity="0.1" d="M182.5 0L236.627 31.25V93.75L182.5 125L128.373 93.75V31.25L182.5 0Z" fill="#17a2b8"/>
<path opacity="0.1" d="M124.5 309L178.627 340.25V402.75L124.5 434L70.3734 402.75V340.25L124.5 309Z" fill="#17a2b8"/>
<path d="M126.462 78.5387L164.5 56.5774L202.538 78.5387V122.461L164.5 144.423L126.462 122.461V78.5387Z" stroke="#17a2b8"/>
<path d="M135.462 304.539L173.5 282.577L211.538 304.539V348.461L173.5 370.423L135.462 348.461V304.539Z" stroke="#17a2b8"/>
<path d="M125.462 209.539L163.5 187.577L201.538 209.539V253.461L163.5 275.423L125.462 253.461V209.539Z" stroke="#17a2b8"/>
</svg>
