<svg width="182" height="44" viewBox="0 0 182 44" fill="none" xmlns="http://www.w3.org/2000/svg">
<path d="M139.618 9.73242H129.644C128.962 9.73242 128.381 10.2248 128.275 10.8933L124.242 36.2689C124.162 36.7697 124.552 37.2225 125.063 37.2225H130.181C130.658 37.2225 131.065 36.8783 131.139 36.4099L132.283 29.2162C132.389 28.5477 132.969 28.0553 133.652 28.0553H136.808C143.377 28.0553 147.168 24.9005 148.159 18.6483C148.605 15.9139 148.177 13.7652 146.887 12.261C145.469 10.6068 142.955 9.73242 139.618 9.73242ZM140.769 19.0002C140.224 22.5526 137.49 22.5526 134.845 22.5526H133.34L134.396 15.9201C134.46 15.5189 134.808 15.2236 135.217 15.2236H135.907C137.707 15.2236 139.408 15.2236 140.284 16.2412C140.809 16.8506 140.967 17.753 140.769 19.0002Z" fill="#A1A7B3"/>
<path d="M68.4815 9.73242H58.5078C57.826 9.73242 57.2455 10.2248 57.1388 10.8933L53.1054 36.2689C53.026 36.7697 53.416 37.2225 53.927 37.2225H58.6893C59.3711 37.2225 59.9516 36.7306 60.0583 36.0621L61.1466 29.2162C61.2529 28.5477 61.8334 28.0553 62.5152 28.0553H65.6713C72.241 28.0553 76.0323 24.9005 77.0234 18.6483C77.4694 15.9139 77.0413 13.7652 75.7513 12.261C74.3321 10.6068 71.8178 9.73242 68.4815 9.73242ZM69.6326 19.0002C69.0875 22.5526 66.3531 22.5526 63.7089 22.5526H62.2041L63.2593 15.9201C63.3234 15.5189 63.6712 15.2236 64.0805 15.2236H64.7703C66.5705 15.2236 68.2712 15.2236 69.1476 16.2412C69.672 16.8506 69.8307 17.753 69.6326 19.0002Z" fill="#A1A7B3"/>
<path d="M98.2918 18.8868H93.5166C93.1073 18.8868 92.759 19.1822 92.6949 19.5833L92.4851 20.9083L92.1512 20.4284C91.1166 18.9389 88.8117 18.4412 86.5099 18.4412C81.2339 18.4412 76.7262 22.4085 75.849 27.9727C75.3922 30.7485 76.0404 33.4016 77.6268 35.2531C79.0841 36.9544 81.164 37.6625 83.6419 37.6625C87.8945 37.6625 90.2537 34.9511 90.2537 34.9511L90.0403 36.2686C89.9601 36.7694 90.3501 37.2226 90.8615 37.2226H95.1626C95.8444 37.2226 96.4244 36.7307 96.5311 36.0626L99.113 19.8404C99.1928 19.3392 98.8028 18.8868 98.2918 18.8868ZM91.6361 28.1105C91.1749 30.8179 89.0085 32.6357 86.2454 32.6357C84.8603 32.6357 83.7513 32.1935 83.0386 31.3565C82.3321 30.527 82.0663 29.3448 82.2904 28.0282C82.7203 25.3449 84.9217 23.4684 87.6426 23.4684C88.9986 23.4684 90.1 23.9145 90.8266 24.7596C91.5581 25.6105 91.8455 26.8002 91.6361 28.1105Z" fill="#A1A7B3"/>
<path d="M169.428 18.8868H164.653C164.244 18.8868 163.895 19.1822 163.832 19.5833L163.622 20.9083L163.288 20.4284C162.253 18.9389 159.948 18.4412 157.646 18.4412C152.37 18.4412 147.863 22.4085 146.986 27.9727C146.529 30.7485 147.177 33.4016 148.764 35.2531C150.221 36.9544 152.301 37.6625 154.779 37.6625C159.031 37.6625 161.391 34.9511 161.391 34.9511L161.177 36.2686C161.097 36.7694 161.487 37.2226 161.998 37.2226H166.299C166.981 37.2226 167.561 36.7307 167.668 36.0626L170.25 19.8404C170.33 19.3392 169.939 18.8868 169.428 18.8868ZM162.773 28.1105C162.312 30.8179 160.146 32.6357 157.383 32.6357C155.997 32.6357 154.889 32.1935 154.175 31.3565C153.469 30.527 153.203 29.3448 153.427 28.0282C153.858 25.3449 156.058 23.4684 158.779 23.4684C160.135 23.4684 161.236 23.9145 161.963 24.7596C162.695 25.6105 162.982 26.8002 162.773 28.1105Z" fill="#A1A7B3"/>
<path d="M123.729 18.8867H118.928C118.469 18.8867 118.04 19.1131 117.782 19.4898L111.16 29.1663L108.353 19.8674C108.178 19.2856 107.638 18.8862 107.026 18.8862H102.307C101.738 18.8862 101.337 19.4422 101.52 19.9777L106.806 35.3722L101.834 42.332C101.444 42.8786 101.838 43.6343 102.513 43.6343H107.308C107.763 43.6343 108.188 43.4132 108.447 43.0423L124.412 20.1814C124.794 19.6348 124.399 18.8867 123.729 18.8867Z" fill="#A1A7B3"/>
<path d="M175.058 10.4294L170.964 36.2694C170.885 36.7698 171.275 37.2226 171.785 37.2226H175.902C176.584 37.2226 177.165 36.7306 177.271 36.0621L181.308 10.6865C181.387 10.1857 180.997 9.73291 180.486 9.73291H175.88C175.47 9.73247 175.122 10.0282 175.058 10.4294Z" fill="#A1A7B3"/>
<path opacity="0.68" d="M33.4622 11.0862C33.9968 7.69156 33.4586 5.38222 31.6151 3.28978C29.5854 0.986667 25.9188 0 21.2275 0H7.60983C6.65122 0 5.83454 0.694667 5.68548 1.63822L0.0146386 37.448C-0.0969307 38.1547 0.451544 38.7933 1.16916 38.7933H9.57612L8.99596 42.4578C8.89823 43.076 9.37753 43.6347 10.0059 43.6347H17.0923C17.9309 43.6347 18.6449 43.0271 18.7757 42.2018L18.8453 41.8427L20.1801 33.4124L20.2662 32.9467C20.397 32.1218 21.111 31.5133 21.9496 31.5133H23.0095C29.8746 31.5133 35.25 28.736 36.8204 20.7031C37.4769 17.3467 37.1373 14.5449 35.4017 12.5751C34.8773 11.9804 34.224 11.488 33.4622 11.0862Z" fill="#A1A7B3"/>
<path opacity="0.7" d="M33.4622 11.0862C33.9968 7.69156 33.4586 5.38222 31.6151 3.28978C29.5854 0.986667 25.9188 0 21.2275 0H7.60983C6.65122 0 5.83454 0.694667 5.68548 1.63822L0.0146386 37.448C-0.0969307 38.1547 0.451544 38.7933 1.16916 38.7933H9.57612L11.6879 25.4569L11.6223 25.8751C11.7718 24.932 12.5809 24.2369 13.54 24.2369H17.5359C25.3833 24.2369 31.528 21.0618 33.323 11.8796C33.3765 11.6084 33.4216 11.3449 33.4622 11.0862Z" fill="#A1A7B3"/>
<path d="M13.9568 11.1311C14.0465 10.564 14.4124 10.0991 14.9047 9.86444C15.1283 9.75778 15.3786 9.69822 15.6406 9.69822H26.3151C27.5798 9.69822 28.7589 9.78089 29.8367 9.95378C30.1446 10.0031 30.4445 10.06 30.7359 10.1244C31.0269 10.1889 31.3098 10.2604 31.5834 10.3404C31.7204 10.38 31.8547 10.4222 31.9873 10.4658C32.5165 10.6409 33.0097 10.8471 33.4631 11.0867C33.9977 7.692 33.4595 5.38267 31.616 3.29022C29.5854 0.986667 25.9188 0 21.2275 0H7.60983C6.65122 0 5.83454 0.694667 5.68548 1.63822L0.0146386 37.448C-0.0969307 38.1547 0.451544 38.7933 1.16916 38.7933H9.57612L11.6879 25.4569L13.9568 11.1311Z" fill="#A1A7B3"/>
</svg>
