<svg width="138" height="138" viewBox="0 0 138 138" fill="none" xmlns="http://www.w3.org/2000/svg">
<g filter="url(#filter0_d_767_1866)">
<rect x="34" y="10" width="70" height="70" rx="35" fill="#17a2b8"/>
<path d="M56.3333 46.5833H65.8333C66.7042 46.5833 67.4167 45.8708 67.4167 45V32.3333C67.4167 31.4625 66.7042 30.75 65.8333 30.75H56.3333C55.4625 30.75 54.75 31.4625 54.75 32.3333V45C54.75 45.8708 55.4625 46.5833 56.3333 46.5833ZM56.3333 59.25H65.8333C66.7042 59.25 67.4167 58.5375 67.4167 57.6667V51.3333C67.4167 50.4625 66.7042 49.75 65.8333 49.75H56.3333C55.4625 49.75 54.75 50.4625 54.75 51.3333V57.6667C54.75 58.5375 55.4625 59.25 56.3333 59.25ZM72.1667 59.25H81.6667C82.5375 59.25 83.25 58.5375 83.25 57.6667V45C83.25 44.1292 82.5375 43.4167 81.6667 43.4167H72.1667C71.2958 43.4167 70.5833 44.1292 70.5833 45V57.6667C70.5833 58.5375 71.2958 59.25 72.1667 59.25ZM70.5833 32.3333V38.6667C70.5833 39.5375 71.2958 40.25 72.1667 40.25H81.6667C82.5375 40.25 83.25 39.5375 83.25 38.6667V32.3333C83.25 31.4625 82.5375 30.75 81.6667 30.75H72.1667C71.2958 30.75 70.5833 31.4625 70.5833 32.3333Z" fill="white"/>
</g>
<defs>
<filter id="filter0_d_767_1866" x="0" y="0" width="138" height="138" filterUnits="userSpaceOnUse" color-interpolation-filters="sRGB">
<feFlood flood-opacity="0" result="BackgroundImageFix"/>
<feColorMatrix in="SourceAlpha" type="matrix" values="0 0 0 0 0 0 0 0 0 0 0 0 0 0 0 0 0 0 127 0" result="hardAlpha"/>
<feOffset dy="24"/>
<feGaussianBlur stdDeviation="17"/>
<feComposite in2="hardAlpha" operator="out"/>
<feColorMatrix type="matrix" values="0 0 0 0 0.227451 0 0 0 0 0.764706 0 0 0 0 0.839216 0 0 0 0.4 0"/>
<feBlend mode="normal" in2="BackgroundImageFix" result="effect1_dropShadow_767_1866"/>
<feBlend mode="normal" in="SourceGraphic" in2="effect1_dropShadow_767_1866" result="shape"/>
</filter>
</defs>
</svg>
