<svg width="14" height="18" viewBox="0 0 14 18" fill="none" xmlns="http://www.w3.org/2000/svg">
<path d="M1.34845 5.04653C1.09777 3.3954 2.26195 1.91228 4.04039 1.3689C4.35599 1.27241 4.6965 1.29988 4.99256 1.44571C5.28861 1.59154 5.51792 1.84476 5.63377 2.15378L6.2047 3.67628C6.29661 3.92121 6.31323 4.18801 6.25243 4.44246C6.19163 4.6969 6.05617 4.92736 5.86345 5.10428L4.16508 6.65959C4.08136 6.73641 4.01898 6.83362 3.98402 6.94173C3.94906 7.04984 3.9427 7.16517 3.96558 7.27646L3.98133 7.34471L4.02202 7.51534C4.23323 8.34437 4.55506 9.14121 4.97883 9.8844C5.44045 10.6741 6.01332 11.3933 6.67983 12.0198L6.73233 12.0671C6.81712 12.1423 6.91996 12.1944 7.03083 12.2181C7.1417 12.2417 7.25681 12.2363 7.36495 12.2023L9.56077 11.5106C9.81031 11.4322 10.0776 11.4302 10.3283 11.5048C10.579 11.5794 10.8017 11.7272 10.9678 11.9293L12.0073 13.1906C12.4404 13.7156 12.3879 14.4873 11.8905 14.9507C10.5294 16.2198 8.65777 16.4797 7.35577 15.4337C5.7598 14.1463 4.41439 12.5762 3.38677 10.8018C2.3508 9.02883 1.65881 7.07621 1.34714 5.04653H1.34845ZM5.34239 7.36309L6.74939 6.07159C7.13505 5.71792 7.40621 5.25705 7.52805 4.74816C7.6499 4.23927 7.61687 3.70557 7.4332 3.21559L6.86358 1.69309C6.63041 1.07129 6.16892 0.561793 5.57315 0.268421C4.97738 -0.024951 4.29217 -0.0801217 3.65714 0.114151C1.4482 0.790089 -0.324983 2.77065 0.0503922 5.24471C0.312892 6.97196 0.917955 9.16909 2.25277 11.4633C3.36145 13.3766 4.81274 15.0694 6.53414 16.4574C8.48714 18.0258 11.0938 17.4903 12.7869 15.9127C13.2714 15.4616 13.5654 14.8427 13.6091 14.1822C13.6527 13.5217 13.4427 12.8694 13.0218 12.3585L11.9823 11.0958C11.6498 10.6922 11.2043 10.3971 10.7029 10.2484C10.2015 10.0997 9.66717 10.1041 9.16833 10.2611L7.34527 10.8347C6.87457 10.3493 6.46226 9.81061 6.11677 9.22946C5.78303 8.64194 5.52294 8.01553 5.34239 7.3644V7.36309Z" fill="white"/>
</svg>
