<svg width="121" height="14" viewBox="0 0 121 14" fill="none" xmlns="http://www.w3.org/2000/svg">
<path fill-rule="evenodd" clip-rule="evenodd" d="M40.3564 3.0703C27.2459 3.15588 14.1234 4.25346 1.57896 7.87887C1.35513 7.94332 1.26599 8.06197 1.24857 8.08905C1.14673 8.24948 1.14195 8.41755 1.16133 8.55543C1.17301 8.63914 1.24312 8.99221 1.54835 9.02171C1.75917 9.04154 3.24123 8.8344 3.81396 8.77671C6.5102 8.50593 9.19733 8.14645 11.8812 7.74061C17.9664 6.82341 24.0478 6.01105 30.1494 5.25847C33.5751 4.83549 37.0046 4.47169 40.4341 4.15927C48.7133 4.10727 56.9885 4.45948 65.1101 4.83301C61.9028 5.19266 58.9569 5.55021 56.5121 5.79443C52.3894 6.20585 48.2766 6.67436 44.1693 7.26129C42.059 7.562 39.9523 7.88437 37.849 8.25605C37.616 8.29799 37.0835 8.34783 36.8268 8.39823C36.7179 8.41853 36.6395 8.449 36.6047 8.46956C36.3863 8.5991 36.3686 8.8544 36.3711 8.98279C36.373 9.0608 36.409 9.48581 36.7895 9.56001C54.4828 13.0459 72.5894 8.09651 90.3413 11.4724C90.5495 11.5121 90.7344 11.3023 90.753 11.0035C90.7716 10.7056 90.6176 10.4306 90.4087 10.3909C73.6895 7.21151 56.6552 11.4179 39.9462 9.00491C41.388 8.76906 42.8312 8.55292 44.2763 8.34663C48.3761 7.76085 52.4814 7.29351 56.5973 6.88224C60.7391 6.46939 66.3304 5.7207 72.1936 5.19495C77.2557 5.48307 82.3171 5.8206 87.3792 6.08896C89.5147 6.20165 91.6498 6.28669 93.7847 6.40236C94.6623 6.44927 96.9248 6.67857 97.2468 6.5664C97.4971 6.47861 97.5474 6.21563 97.5571 6.084C97.567 5.94149 97.5502 5.76502 97.4281 5.59889C97.3902 5.54642 97.2788 5.43834 97.0556 5.3526C91.021 3.04274 81.3059 3.30575 72.2299 4.10729C70.266 3.99459 68.3023 3.88979 66.3386 3.7998C61.8432 3.59245 57.2985 3.38525 52.7303 3.24479C65.5567 2.49096 78.4135 2.32529 91.2819 2.35893C96.6848 2.3734 111.268 2.87626 117.028 3.48516C116.962 3.59042 116.927 3.73548 116.938 3.89231C116.96 4.19216 117.147 4.42101 117.356 4.40236C118.535 4.29608 119.214 4.17961 119.481 4.06971C119.647 4.00165 119.734 3.89687 119.774 3.82877C119.872 3.66448 119.884 3.4903 119.856 3.32593C119.839 3.22358 119.802 3.1118 119.724 3.00986C119.672 2.93993 119.546 2.83415 119.338 2.76487C117.052 2.01047 97.684 1.28522 91.2508 1.26789C74.2506 1.224 57.2715 1.52742 40.3564 3.0703ZM92.4531 5.24355C89.108 4.67172 85.2084 4.5336 81.1508 4.64217C83.2251 4.76715 85.2999 4.88816 87.3749 4.9983C89.0675 5.08862 90.7601 5.16016 92.4531 5.24355ZM24.7629 4.84052C20.4281 5.40307 16.0997 6.00302 11.77 6.65636C11.2701 6.73114 10.7708 6.80493 10.2707 6.87774C15.0489 5.91763 19.8899 5.26533 24.7629 4.84052Z" fill="#3AC3D6"/>
</svg>
