<svg width="201" height="49" viewBox="0 0 201 49" fill="none" xmlns="http://www.w3.org/2000/svg">
<path d="M78.7631 17.6338H85.0783V37.4946H78.7631V17.6338Z" fill="#A1A7B3"/>
<mask id="mask0_303_415" style="mask-type:alpha" maskUnits="userSpaceOnUse" x="0" y="0" width="200" height="49">
<path d="M0 -9.15527e-05L199.939 -9.15527e-05V48.9216L0 48.9216L0 -9.15527e-05Z" fill="white"/>
</mask>
<g mask="url(#mask0_303_415)">
<path d="M86.3969 17.6338H92.4795V20.3491H92.5956C94.0679 18.2156 95.9662 17.052 98.7171 17.052C103.056 17.052 105.613 20.1552 105.613 24.5773V37.4946H99.2981V25.8575C99.2981 23.7627 98.2521 22.3273 96.1988 22.3273C94.1068 22.3273 92.7119 24.0731 92.7119 26.5168V37.4946H86.3969V17.6338Z" fill="#A1A7B3"/>
<path d="M85.7086 12.3202C85.7086 10.2254 84.0126 8.52738 81.9205 8.52738C79.8285 8.52738 78.1325 10.2254 78.1325 12.3202C78.1325 14.4148 79.8285 16.1128 81.9205 16.1128C84.0126 16.1128 85.7086 14.4148 85.7086 12.3202Z" fill="#A1A7B3"/>
<path d="M150.028 17.3469C149.848 17.3306 149.641 17.3234 149.399 17.3234C146.997 17.3234 145.37 18.3707 143.975 20.7369H143.859V17.6337H137.815V37.4944H144.13V28.5726C144.13 24.4387 146.417 22.5232 150.028 22.8574V17.3469Z" fill="#A1A7B3"/>
<path d="M181.018 24.9651C178.5 24.4997 176.253 24.3058 176.253 22.9094C176.253 21.6679 177.454 21.0862 179.003 21.0862C180.747 21.0862 181.948 21.6292 182.18 23.4137H187.992C187.682 19.4958 184.66 17.0519 179.042 17.0519C174.354 17.0519 170.48 19.2242 170.48 23.4137C170.48 28.0683 174.161 28.9994 177.609 29.5813C180.243 30.0469 182.645 30.2408 182.645 32.0251C182.645 33.3053 181.444 34.0035 179.546 34.0035C177.641 34.0035 176.382 33.1966 175.996 31.5597H169.978C170.421 35.6425 174 38.1152 179.585 38.1152C184.776 38.1152 188.612 35.8654 188.612 31.521C188.612 26.4392 184.505 25.547 181.018 24.9651Z" fill="#A1A7B3"/>
<path d="M159.824 21.5514C161.877 21.5514 163.349 23.0643 163.582 25.4307H155.756C156.182 23.0643 157.422 21.5514 159.824 21.5514ZM160.173 33.5377C157.577 33.5377 156.105 31.8698 155.717 29.1932H169.975C170.013 25.1591 168.851 21.7066 166.488 19.5345C164.783 17.9829 162.536 17.0518 159.708 17.0518C153.664 17.0518 149.518 21.5902 149.518 27.5254C149.518 33.5377 153.548 38.0764 160.095 38.0764C162.613 38.0764 164.628 37.417 166.294 36.2532C168.037 35.0507 169.2 33.3439 169.626 31.5596L163.466 31.5596C162.923 32.8009 161.839 33.5377 160.173 33.5377Z" fill="#A1A7B3"/>
<path d="M199.734 32.8112C199.441 32.8228 199.048 32.8398 198.687 32.8398C197.331 32.8398 196.479 32.4518 196.479 30.9002V21.5904H199.734V17.6338H196.479V11.3497H190.319V17.6338H188.381V21.5904H190.319V32.2578C190.319 36.525 192.953 37.7273 196.634 37.7273C198.038 37.7273 199.1 37.622 199.734 37.4981V32.8112Z" fill="#A1A7B3"/>
<path d="M116.891 32.8203C116.639 32.83 116.348 32.8398 116.076 32.8398C114.72 32.8398 113.868 32.4518 113.868 30.9002V21.5904H116.891V17.6338H113.868V11.3497H107.708V17.6338H105.654V21.5904H107.708V32.2578C107.708 36.525 110.342 37.7273 114.023 37.7273C115.268 37.7273 116.243 37.6443 116.891 37.5392V32.8203Z" fill="#A1A7B3"/>
<path d="M130.646 25.4307C130.414 23.0645 128.941 21.5514 126.888 21.5514C124.486 21.5514 123.246 23.0645 122.82 25.4307H130.646ZM116.582 27.5254C116.582 21.5904 120.728 17.052 126.772 17.052C129.6 17.052 131.847 17.9829 133.552 19.5345C135.915 21.7068 137.077 25.1591 137.038 29.1934H122.781C123.169 31.8698 124.641 33.5378 127.237 33.5378C128.902 33.5378 129.987 32.8009 130.53 31.5597L136.69 31.5597C136.263 33.3439 135.101 35.0507 133.358 36.2534C131.692 37.417 129.677 38.0764 127.159 38.0764C120.612 38.0764 116.582 33.5378 116.582 27.5254Z" fill="#A1A7B3"/>
<path d="M67.796 22.7931C70.2756 22.7931 71.6703 21.319 71.6703 19.1077C71.6703 16.8968 70.2367 15.5391 67.796 15.5391H62.9529V22.7931H67.796ZM56.5596 9.75934H67.5259C70.8964 9.75934 73.376 10.6902 75.0806 12.3195C76.8629 13.9873 77.8702 16.3538 77.8702 19.1466C77.8702 24.4609 74.1896 28.2238 68.4944 28.2238H62.9529V37.4946H56.5596V9.75934Z" fill="#A1A7B3"/>
<path d="M47.8904 24.4608C47.8904 37.645 37.2157 48.333 24.0479 48.333C10.88 48.333 0.205278 37.645 0.205278 24.4608C0.205278 11.2764 10.88 0.588535 24.0479 0.588535C37.2157 0.588535 47.8904 11.2764 47.8904 24.4608Z" fill="white"/>
<path d="M24.0478 0.588535C10.88 0.588535 0.205256 11.2766 0.205256 24.4608C0.205256 34.5743 6.48975 43.2199 15.359 46.6982C15.1506 44.8095 14.9622 41.9047 15.4417 39.8427C15.875 37.9796 18.2375 27.9767 18.2375 27.9767C18.2375 27.9767 17.5243 26.5466 17.5243 24.4324C17.5243 21.113 19.4459 18.6348 21.8385 18.6348C23.8727 18.6348 24.8552 20.1639 24.8552 21.9975C24.8552 24.0457 23.5528 27.108 22.8806 29.9459C22.3189 32.3219 24.0707 34.2596 26.4113 34.2596C30.649 34.2596 33.9064 29.7858 33.9064 23.3279C33.9064 17.6121 29.8044 13.6158 23.9472 13.6158C17.1631 13.6158 13.1812 18.7105 13.1812 23.9757C13.1812 26.0274 13.9706 28.2275 14.9556 29.4236C15.1505 29.66 15.179 29.867 15.1209 30.1083C14.94 30.8623 14.5377 32.4837 14.4588 32.8156C14.3548 33.2526 14.1132 33.3453 13.6614 33.1348C10.6836 31.747 8.82179 27.3879 8.82179 23.8866C8.82179 16.3562 14.2864 9.44043 24.5755 9.44043C32.8465 9.44043 39.2741 15.3416 39.2741 23.2279C39.2741 31.4552 34.0931 38.0765 26.9019 38.0765C24.4858 38.0765 22.2146 36.8198 21.4371 35.3353C21.4371 35.3353 20.2416 39.8932 19.9517 41.0102C19.4135 43.0837 17.9604 45.6828 16.9884 47.2685C19.2192 47.96 21.5899 48.333 24.0478 48.333C37.2159 48.333 47.8906 37.645 47.8906 24.4608C47.8906 11.2766 37.2159 0.588535 24.0478 0.588535Z" fill="#A1A7B3"/>
</g>
</svg>
