<svg xmlns="http://www.w3.org/2000/svg" width="22.701" height="32.286" viewBox="0 0 22.701 32.286"><g transform="translate(0)"><g transform="translate(0)"><path d="M87.35,0a11.352,11.352,0,0,0-9.656,17.319L86.7,31.838a.946.946,0,0,0,.8.447h.008a.946.946,0,0,0,.8-.46l8.78-14.66A11.353,11.353,0,0,0,87.35,0Zm8.126,16.194L87.494,29.523,79.3,16.322a9.465,9.465,0,1,1,16.174-.128Z" transform="translate(-76)"/></g></g><g transform="translate(5.675 5.675)"><g transform="translate(0)"><path d="M171.675,90a5.675,5.675,0,1,0,5.675,5.675A5.682,5.682,0,0,0,171.675,90Zm0,9.471a3.8,3.8,0,1,1,3.79-3.8A3.8,3.8,0,0,1,171.675,99.471Z" transform="translate(-166 -90)"/></g></g></svg>