<svg xmlns="http://www.w3.org/2000/svg" width="28.376" height="34.143" viewBox="0 0 28.376 34.143"><defs><style>.a{isolation:isolate;}</style></defs><g class="a"><path d="M29.118,21.059a5.878,5.878,0,0,1-5.68-5.126,1.91,1.91,0,0,1-1.07-.679,2.149,2.149,0,0,1-.4-1.463,2.018,2.018,0,0,1,.476-1.569,1.476,1.476,0,0,1,.356-.268,7.758,7.758,0,0,1-1.156-4.406A4.315,4.315,0,0,1,26,3.533a4.3,4.3,0,0,1,1.546-1.14,5.447,5.447,0,0,1,3.5-.2,6.253,6.253,0,0,1,4.51,3.384c1.024,2.348.126,5.051-.39,6.264a1.494,1.494,0,0,1,.533.306,1.956,1.956,0,0,1,.544,1.639,2.146,2.146,0,0,1-.4,1.463,1.912,1.912,0,0,1-1.07.679A5.87,5.87,0,0,1,29.118,21.059Zm-5.5-8.326a.66.66,0,0,0-.471.168,1.162,1.162,0,0,0-.2.873.5.5,0,0,1,0,.1,1.2,1.2,0,0,0,.2.793,1.114,1.114,0,0,0,.78.37.488.488,0,0,1,.429.443c.016.181.449,4.466,4.765,4.608,4.292-.141,4.727-4.426,4.743-4.609a.488.488,0,0,1,.429-.442,1.113,1.113,0,0,0,.78-.37,1.207,1.207,0,0,0,.2-.8.511.511,0,0,1,0-.095,1.162,1.162,0,0,0-.22-.9.74.74,0,0,0-.53-.139.488.488,0,0,1-.515-.712c.018-.034,1.8-3.425.657-6.06a5.339,5.339,0,0,0-3.859-2.825,4.467,4.467,0,0,0-2.865.146,3.28,3.28,0,0,0-1.314,1.028.483.483,0,0,1-.433.2,3.355,3.355,0,0,0-3.581,3.135h0a6.447,6.447,0,0,0,1.4,4.265.488.488,0,0,1,.093.537.462.462,0,0,1-.462.288Z" transform="translate(-14.942 -1.998)"/><path d="M36.016,17.135a.488.488,0,0,1-.488-.467c-.006-.126-.157-3.073-2.357-3.356a7.426,7.426,0,0,1-5.664-1.641c-.622.468-2.055,1.89-1.779,4.922a.488.488,0,0,1-.97.088c-.4-4.449,2.452-5.993,2.574-6.056a.488.488,0,0,1,.563.08,6.514,6.514,0,0,0,5.183,1.635.545.545,0,0,1,.135,0c2.48.258,3.237,2.922,3.291,4.292a.488.488,0,0,1-.467.506Z" transform="translate(-16.521 -6.389)"/><path d="M35.8,58.974H8.4a.488.488,0,0,1-.488-.488V53.049A6.491,6.491,0,0,1,14.4,46.571h.936a.488.488,0,1,1,0,.975H14.4a5.514,5.514,0,0,0-5.512,5.5V58H35.311v-4.95a5.509,5.509,0,0,0-5.5-5.5h-1a.488.488,0,1,1,0-.975h1a6.487,6.487,0,0,1,6.478,6.478v5.437A.488.488,0,0,1,35.8,58.974Z" transform="translate(-7.911 -24.831)"/><path d="M39.83,57.256a.488.488,0,0,1-.482-.56l1.974-13.063a.488.488,0,0,1,.623-.394l3.406,1.027a.488.488,0,0,1,.3.683l-1.354,2.717.785.881a.488.488,0,0,1,.049.581l-4.883,7.9A.488.488,0,0,1,39.83,57.256ZM42.2,44.335,40.668,54.486l3.44-5.56-.762-.856a.488.488,0,0,1-.073-.542l1.243-2.494Z" transform="translate(-24.012 -23.113)"/><path d="M27.378,57.258a.488.488,0,0,1-.415-.231l-4.884-7.9a.488.488,0,0,1,.049-.581l.785-.881-1.354-2.717a.488.488,0,0,1,.3-.683l3.406-1.027a.488.488,0,0,1,.622.394L27.859,56.7a.488.488,0,0,1-.481.559ZM23.1,48.926l3.44,5.56-1.534-10.15-2.314.7,1.242,2.494a.488.488,0,0,1-.072.542Z" transform="translate(-14.877 -23.115)"/><path d="M33.238,52.132a26.443,26.443,0,0,1-3.155-.191.488.488,0,1,1,.116-.968,24.59,24.59,0,0,0,6,0,.488.488,0,1,1,.122.968,24.63,24.63,0,0,1-3.085.192Z" transform="translate(-19.041 -27.083)"/><path d="M43.069,41.17a.488.488,0,0,1-.39-.2,7.081,7.081,0,0,1-.868-3.14.488.488,0,0,1,.458-.515.493.493,0,0,1,.515.458,6.227,6.227,0,0,0,.678,2.617.488.488,0,0,1-.39.777Z" transform="translate(-25.276 -20.09)"/><path d="M28.984,41.169a.488.488,0,0,1-.39-.777,6.219,6.219,0,0,0,.679-2.617.489.489,0,0,1,.975.057,7.122,7.122,0,0,1-.868,3.14A.488.488,0,0,1,28.984,41.169Z" transform="translate(-18.457 -20.089)"/><path d="M55.071,52.174a.488.488,0,0,1-.488-.474c-.091-3.176-1.3-4.176-1.311-4.185a.491.491,0,0,1-.085-.683.485.485,0,0,1,.676-.094c.064.049,1.589,1.233,1.7,4.934a.488.488,0,0,1-.473.5Z" transform="translate(-31.053 -24.867)"/><path d="M55.135,59.838a1.928,1.928,0,1,1,1.928-1.928,1.928,1.928,0,0,1-1.928,1.928Zm0-2.881a.953.953,0,1,0,.952.952.953.953,0,0,0-.952-.952Z" transform="translate(-31.114 -29.652)"/><path d="M15.545,52.2a.488.488,0,0,1-.488-.453c-.266-3.743,1.8-4.94,1.885-4.989a.488.488,0,1,1,.479.85c-.074.044-1.61.992-1.392,4.071a.488.488,0,0,1-.452.521Z" transform="translate(-11.56 -24.895)"/><path d="M12.971,60.744a.488.488,0,0,1-.39-.192,3.049,3.049,0,0,1-.517-1.048A2.932,2.932,0,0,1,13.98,55.85a2.731,2.731,0,0,1,2.1.259A3.13,3.13,0,0,1,17.6,59.334a.488.488,0,1,1-.962-.16A2.157,2.157,0,0,0,15.6,56.96a1.765,1.765,0,0,0-1.355-.172A1.958,1.958,0,0,0,13,59.244a2.081,2.081,0,0,0,.354.717.488.488,0,0,1-.388.783Z" transform="translate(-9.972 -29.532)"/><path d="M21.486,62.846a.388.388,0,0,1-.058,0l-.55-.065a.488.488,0,0,1,.115-.969l.55.065a.488.488,0,0,1-.057.972Z" transform="translate(-14.333 -32.635)"/><path d="M13.546,64.748a.488.488,0,0,1-.17-.945l.585-.216a.488.488,0,1,1,.341.915l-.585.217a.488.488,0,0,1-.172.03Z" transform="translate(-10.547 -33.531)"/></g></svg>