<svg width="42" height="42" viewBox="0 0 42 42" fill="none" xmlns="http://www.w3.org/2000/svg">
<path d="M21 20.16C19.74 20.16 18.9 21 18.9 22.26C18.9 23.1 19.53 23.7299 20.16 23.9399L19.53 26.88H22.26L21.63 23.9399C22.47 23.7299 22.89 23.1 22.89 22.26C23.1 21 22.26 20.16 21 20.16ZM21.21 11.13C19.74 11.13 18.27 12.18 18.27 13.65V16.8H23.94V13.65C23.73 12.18 22.68 11.13 21.21 11.13ZM21 4.19995L6.3 10.5V16.8C6.51 26.04 12.39 34.2299 21 37.59C29.61 34.2299 35.49 26.04 35.7 16.8V10.5L21 4.19995ZM29.4 27.2999C29.4 28.5599 28.56 29.4 27.3 29.4H14.7C13.44 29.4 12.6 28.5599 12.6 27.2999V18.9C12.6 17.64 13.44 16.8 14.7 16.8H15.33V13.65C15.54 10.71 18.06 8.39995 21 8.39995C23.94 8.39995 26.46 10.71 26.67 13.65V16.8H27.3C28.56 16.8 29.4 17.64 29.4 18.9V27.2999Z" fill="white"/>
</svg>
