<svg xmlns="http://www.w3.org/2000/svg" width="105.472" height="105.472" viewBox="0 0 105.472 105.472"><path d="M131.275,127.839a13.808,13.808,0,0,0,0,19.5l2.4,2.4-2.4,2.4a13.787,13.787,0,0,0,19.5,19.5h0l2.4-2.4,2.4,2.4a13.787,13.787,0,1,0,19.5-19.5l-2.4-2.4,2.406-2.407a13.787,13.787,0,0,0-19.5-19.5l-2.4,2.4-2.4-2.4a13.81,13.81,0,0,0-19.5,0ZM150.741,138.8l13.386,13.356-4.158,4.161-.006.006-4.36,4.356-13.376-13.366Zm-3.03,29.776A9.456,9.456,0,1,1,134.339,155.2l3.933-3.933h0l.893-.893,13.375,13.365-.9.9c-.021.021-.039.044-.06.066Zm24.3-13.374a9.456,9.456,0,0,1-13.369,13.377l-2.4-2.407.9-.9h0l5.753-5.753.139-.139h0l6.579-6.579Zm-13.371-24.3a9.456,9.456,0,1,1,13.372,13.373l-3.878,3.878c-.021.019-.043.037-.063.057l-.884.884L153.8,135.738l.9-.9h0Zm-10.931,0,2.4,2.4-.906.906h0l-12.465,12.465-2.4-2.4A9.456,9.456,0,1,1,147.71,130.9Z" transform="translate(-100.44 -97.003)"/><path d="M103.5,76.146a52.745,52.745,0,1,0-47.264,29.326,52.176,52.176,0,0,0,21.611-4.626c3.1,5.941,31.258-21.5,25.653-24.7Zm-47.264,25A48.389,48.389,0,1,1,99.5,74.45a18.518,18.518,0,0,0-4.947-.736A43.7,43.7,0,0,0,66.449,10.26a2.165,2.165,0,1,0-1.009,4.211,39.368,39.368,0,0,1,23.6,60.007A18.647,18.647,0,0,0,76.729,86.33a39.356,39.356,0,1,1-29.72-71.86A2.165,2.165,0,1,0,46,10.261,43.891,43.891,0,0,0,22.08,25.5a43.215,43.215,0,0,0-9.527,27.234A43.7,43.7,0,0,0,75.758,91.817c0,.154-.012.307-.012.462a18.552,18.552,0,0,0,.557,4.514,47.889,47.889,0,0,1-20.067,4.35Zm23.842-8.864a14.255,14.255,0,0,1,14.238-14.24C102.171,78.039,80.078,100.133,80.078,92.278Z" transform="translate(-3.5 0)"/><path d="M239.059,46.141h.012a2.172,2.172,0,1,0-.012,0Z" transform="translate(-186.335 -32.758)"/></svg>