<svg width="138" height="138" viewBox="0 0 138 138" fill="none" xmlns="http://www.w3.org/2000/svg">
<g filter="url(#filter0_d_767_1900)">
<rect x="34" y="10" width="70" height="70" rx="35" fill="#17a2b8"/>
<path d="M55.25 31.25V43.75H82.75V31.25H55.25ZM70.25 38.75H59V36.25H70.25V38.75ZM74 38.75C73.7528 38.75 73.5111 38.6767 73.3055 38.5393C73.1 38.402 72.9398 38.2068 72.8451 37.9784C72.7505 37.7499 72.7258 37.4986 72.774 37.2561C72.8223 37.0137 72.9413 36.7909 73.1161 36.6161C73.2909 36.4413 73.5137 36.3222 73.7561 36.274C73.9986 36.2258 74.2499 36.2505 74.4784 36.3452C74.7068 36.4398 74.902 36.6 75.0393 36.8055C75.1767 37.0111 75.25 37.2528 75.25 37.5C75.25 37.8315 75.1183 38.1495 74.8839 38.3839C74.6495 38.6183 74.3315 38.75 74 38.75ZM77.75 38.75C77.5028 38.75 77.2611 38.6767 77.0555 38.5393C76.85 38.402 76.6898 38.2068 76.5951 37.9784C76.5005 37.7499 76.4758 37.4986 76.524 37.2561C76.5723 37.0137 76.6913 36.7909 76.8661 36.6161C77.0409 36.4413 77.2637 36.3222 77.5061 36.274C77.7486 36.2258 77.9999 36.2505 78.2284 36.3452C78.4568 36.4398 78.652 36.6 78.7893 36.8055C78.9267 37.0111 79 37.2528 79 37.5C79 37.8315 78.8683 38.1495 78.6339 38.3839C78.3995 38.6183 78.0815 38.75 77.75 38.75ZM82.3625 52.9625L83.7875 51.7125L82.5375 49.55L80.725 50.1625C80.3237 49.8242 79.867 49.5578 79.375 49.375L79 47.5H76.5L76.125 49.3625C75.633 49.5453 75.1763 49.8117 74.775 50.15L72.9625 49.5375L71.7125 51.7L73.1375 52.95C73.0375 53.4702 73.0375 54.0048 73.1375 54.525L71.7125 55.775L72.9625 57.9375L74.775 57.325C75.1763 57.6633 75.633 57.9297 76.125 58.1125L76.5 60H79L79.375 58.1375C79.867 57.9547 80.3237 57.6883 80.725 57.35L82.5375 57.9625L83.7875 55.8L82.3625 54.55C82.4625 54.0256 82.4625 53.4869 82.3625 52.9625ZM77.75 56.25C77.2555 56.25 76.7722 56.1034 76.3611 55.8287C75.95 55.554 75.6295 55.1635 75.4403 54.7067C75.2511 54.2499 75.2016 53.7472 75.298 53.2623C75.3945 52.7773 75.6326 52.3319 75.9822 51.9822C76.3319 51.6326 76.7773 51.3945 77.2623 51.298C77.7472 51.2016 78.2499 51.2511 78.7067 51.4403C79.1635 51.6295 79.554 51.95 79.8287 52.3611C80.1034 52.7722 80.25 53.2555 80.25 53.75C80.248 54.4124 79.984 55.0472 79.5156 55.5156C79.0472 55.984 78.4124 56.248 77.75 56.25Z" fill="white"/>
<path d="M69 53.75H59V51.25H69.3675C69.9956 49.156 71.384 47.3726 73.26 46.25H55.25V58.75H70.575C69.5486 57.2848 68.9986 55.5389 69 53.75Z" fill="white"/>
</g>
<defs>
<filter id="filter0_d_767_1900" x="0" y="0" width="138" height="138" filterUnits="userSpaceOnUse" color-interpolation-filters="sRGB">
<feFlood flood-opacity="0" result="BackgroundImageFix"/>
<feColorMatrix in="SourceAlpha" type="matrix" values="0 0 0 0 0 0 0 0 0 0 0 0 0 0 0 0 0 0 127 0" result="hardAlpha"/>
<feOffset dy="24"/>
<feGaussianBlur stdDeviation="17"/>
<feComposite in2="hardAlpha" operator="out"/>
<feColorMatrix type="matrix" values="0 0 0 0 0.227451 0 0 0 0 0.764706 0 0 0 0 0.839216 0 0 0 0.4 0"/>
<feBlend mode="normal" in2="BackgroundImageFix" result="effect1_dropShadow_767_1900"/>
<feBlend mode="normal" in="SourceGraphic" in2="effect1_dropShadow_767_1900" result="shape"/>
</filter>
</defs>
</svg>
