<svg xmlns="http://www.w3.org/2000/svg" width="382.82" height="378.848" viewBox="0 0 382.82 378.848"><defs><style>.a{fill:#cfd8dc;}.b{fill:#607d8b;}.c{fill:#90a4ae;}.d{fill:#b4bcc0;}.e{fill:#546d79;}.f{fill:#7d8f97;}.g{fill:#0754ed;}.h{fill:#fff;}.i{fill:#1cc1d6;}</style></defs><path class="a" d="M57.828,74.529a11.963,11.963,0,0,0,0-23.926h-31.9V26.676h31.9a11.963,11.963,0,0,0,0-23.926H13.963A11.967,11.967,0,0,0,2,14.713v195.4a11.963,11.963,0,1,0,23.926,0V170.234h31.9a11.963,11.963,0,1,0,0-23.926h-31.9V122.381h31.9a11.963,11.963,0,1,0,0-23.926h-31.9V74.529Z" transform="translate(29.902 41.115)"/><path class="b" d="M96.467,0H16.713A11.967,11.967,0,0,0,4.75,11.963V251.226a11.968,11.968,0,0,0,11.963,11.963H96.467a11.968,11.968,0,0,0,11.963-11.963V11.963A11.968,11.968,0,0,0,96.467,0Z" transform="translate(71.016)"/><g transform="translate(0 43.865)"><path class="c" d="M8,23.713A11.967,11.967,0,0,0,19.963,35.676H59.84V11.75H19.963A11.967,11.967,0,0,0,8,23.713Z" transform="translate(119.607 131.808)"/><path class="c" d="M8,20.713A11.967,11.967,0,0,0,19.963,32.676H59.84V8.75H19.963A11.968,11.968,0,0,0,8,20.713Z" transform="translate(119.607 86.955)"/><path class="c" d="M8,17.713A11.967,11.967,0,0,0,19.963,29.676H59.84V5.75H19.963A11.967,11.967,0,0,0,8,17.713Z" transform="translate(119.607 42.103)"/><path class="c" d="M8,14.713A11.968,11.968,0,0,0,19.963,26.676H59.84V2.75H19.963A11.967,11.967,0,0,0,8,14.713Z" transform="translate(119.607 -2.75)"/><path class="c" d="M303.576,18.541A11.923,11.923,0,0,0,295.091,15H11.963A11.967,11.967,0,0,0,0,26.963V98.742a11.968,11.968,0,0,0,11.963,11.963H294.58a11.971,11.971,0,0,0,11.963-11.883l.51-71.779a11.954,11.954,0,0,0-3.477-8.5Z" transform="translate(0 180.398)"/></g><path class="a" d="M57.828,74.529a11.963,11.963,0,0,0,0-23.926h-31.9V26.676h31.9a11.963,11.963,0,0,0,0-23.926H13.963A11.967,11.967,0,0,0,2,14.713v195.4a11.963,11.963,0,1,0,23.926,0V170.234h31.9a11.963,11.963,0,1,0,0-23.926h-31.9V122.381h31.9a11.963,11.963,0,1,0,0-23.926h-31.9V74.529Z" transform="translate(29.902 41.115)"/><path class="b" d="M96.467,0H16.713A11.967,11.967,0,0,0,4.75,11.963V251.226a11.968,11.968,0,0,0,11.963,11.963H96.467a11.968,11.968,0,0,0,11.963-11.963V11.963A11.968,11.968,0,0,0,96.467,0Z" transform="translate(71.016)"/><path class="c" d="M8,23.713A11.967,11.967,0,0,0,19.963,35.676H59.84V11.75H19.963A11.967,11.967,0,0,0,8,23.713Z" transform="translate(119.607 175.672)"/><path class="c" d="M8,20.713A11.967,11.967,0,0,0,19.963,32.676H59.84V8.75H19.963A11.968,11.968,0,0,0,8,20.713Z" transform="translate(119.607 130.82)"/><path class="c" d="M8,17.713A11.967,11.967,0,0,0,19.963,29.676H59.84V5.75H19.963A11.967,11.967,0,0,0,8,17.713Z" transform="translate(119.607 85.967)"/><path class="c" d="M8,14.713A11.968,11.968,0,0,0,19.963,26.676H59.84V2.75H19.963A11.967,11.967,0,0,0,8,14.713Z" transform="translate(119.607 41.115)"/><path class="c" d="M303.576,18.541A11.923,11.923,0,0,0,295.091,15H11.963A11.967,11.967,0,0,0,0,26.963V98.742a11.968,11.968,0,0,0,11.963,11.963H294.58a11.971,11.971,0,0,0,11.963-11.883l.51-71.779a11.954,11.954,0,0,0-3.477-8.5Z" transform="translate(0 224.263)"/><path class="d" d="M45.865,2.75h-31.9A11.967,11.967,0,0,0,2,14.713V198.148H25.926V170.234H45.865V146.308H25.926V122.381H45.865V98.455H25.926V74.529H45.865V50.6H25.926V26.676H45.865Z" transform="translate(29.902 41.115)"/><path class="e" d="M56.59,0H16.713A11.967,11.967,0,0,0,4.75,11.963v227.3H56.59Z" transform="translate(71.016)"/><path class="f" d="M127.607,15H11.963A11.967,11.967,0,0,0,0,26.963V98.742a11.968,11.968,0,0,0,11.963,11.963H127.607Z" transform="translate(0 224.263)"/><path class="g" d="M195.291,38.884,111.549,10.4a11.761,11.761,0,0,0-7.688,0L20.119,38.884A11.96,11.96,0,0,0,12,50.209V114.3c0,78.223,87.315,116.25,91.031,117.829a11.89,11.89,0,0,0,9.347,0c3.717-1.579,91.031-39.606,91.031-117.829V50.209a11.96,11.96,0,0,0-8.119-11.325Z" transform="translate(179.41 145.763)"/><path class="h" d="M115.279,39.56,71.415,95.388a15.96,15.96,0,0,1-22.921,2.265L20.579,73.726A15.945,15.945,0,0,1,41.331,49.513l15.281,13.08L90.189,19.861a15.95,15.95,0,0,1,25.091,19.7Z" transform="translate(224.25 205.573)"/><path class="i" d="M84.911,10.194,20.119,32.238A11.96,11.96,0,0,0,12,43.563v64.09a101.809,101.809,0,0,0,10.368,44.822Z" transform="translate(179.41 152.409)"/></svg>