<svg width="25" height="24" viewBox="0 0 25 24" fill="none" xmlns="http://www.w3.org/2000/svg">
<path d="M21.462 6.5H19V3.887C19 2.019 17.526 0.5 15.653 0.5H9.3475C7.4735 0.5 6 2.019 6 3.887V6.5H3.5375C1.8595 6.5 0.5 7.7955 0.5 9.4685V20.972C0.5 22.6445 1.8595 24 3.5375 24H21.462C23.1395 24 24.5 22.6445 24.5 20.9715V9.4685C24.5 7.7955 23.1395 6.5 21.462 6.5ZM8 3.887C8 3.1875 8.646 2.5 9.3475 2.5H15.653C16.3525 2.5 17 3.1875 17 3.887V6.5H8V3.887ZM18 17.5H14.5V21H10.5V17.5H7V13.5H10.5V10H14.5V13.5H18V17.5Z" fill="white"/>
</svg>
