<?xml version="1.0" encoding="utf-8"?>
<!-- Generator: Adobe Illustrator 26.5.0, SVG Export Plug-In . SVG Version: 6.00 Build 0)  -->
<svg version="1.1" id="Layer_1" xmlns="http://www.w3.org/2000/svg" xmlns:xlink="http://www.w3.org/1999/xlink" x="0px" y="0px"
	 viewBox="0 0 180 35" style="enable-background:new 0 0 180 35;" xml:space="preserve">
<style type="text/css">
	.st0{fill:#FFFFFF;}
</style>
<path class="st0" d="M10.3,0.3c0,0-0.9,0.1-2.3,0.7v25.9l2.3-1.2v-6.5c0.9-2,2.9-3.3,5.1-3.3c2.2,0,4.2,1.3,5.1,3.3v6.5l2.3,1.2V0.9
	c-1.3-0.6-2.3-0.7-2.3-0.7v15.1c-1.4-1.2-3.2-1.9-5.1-1.9c-1.9,0-3.7,0.7-5.1,1.9V0.3z M6.2,2C5.5,2.5,4.7,3.2,4,4.1v26.2l2.3-1.6V2
	z M24.7,2v26.8l2.3,1.6V4.1C26.2,3.2,25.4,2.5,24.7,2z M2.1,7c-1.3,2.7-2.3,6.5-2.3,11.8V35L2.1,33V7z M28.8,7v26L31,35V18.8
	C31,13.5,30.1,9.7,28.8,7z"/>
<path class="st0" d="M140.5,9.6c-1.1,0-2,0.2-2.9,0.5c-0.9,0.3-1.7,0.9-2.4,1.6c-0.7,0.7-1.3,1.5-1.7,2.5c-0.4,0.9-0.6,1.9-0.6,2.9
	c0,2.2,0.7,4,2.1,5.4c1.4,1.5,3.2,2.2,5.3,2.2c2.1,0,3.8-0.7,5.2-2c1.4-1.4,2.2-3.1,2.3-5.2h-9.1v1.3h7.4c-0.3,1.4-1,2.5-2.1,3.3
	c-1.1,0.8-2.3,1.3-3.6,1.3c-1.7,0-3.1-0.6-4.3-1.8c-1.2-1.2-1.7-2.7-1.7-4.4c0-1.7,0.6-3.1,1.7-4.3c1.2-1.2,2.6-1.8,4.3-1.8
	c1,0,1.8,0.2,2.6,0.6c0.8,0.4,1.5,1.1,2.2,1.9h1.8c-0.7-1.3-1.6-2.2-2.7-2.9C143.2,9.9,141.9,9.6,140.5,9.6L140.5,9.6z M63.2,9.9
	v14.5h1.4v-6.6h6.9v6.6h1.4V9.9h-1.4v6.5h-6.9V9.9H63.2z M101,9.9v14.5h1.4V9.9H101z M105.7,9.9v3.5h-2.1v1.4h2.1v9.5h1.4v-9.5h2.1
	v-1.4h-2.1V9.9H105.7z M110.3,9.9v14.5h1.4V19c0-0.9,0-1.6,0.1-2c0.1-0.4,0.2-0.7,0.4-1c0.3-0.5,0.7-0.8,1.1-1.1
	c0.5-0.3,1.1-0.4,1.7-0.4c1.1,0,1.9,0.3,2.4,0.9c0.5,0.6,0.7,1.7,0.7,3.3v5.6h1.4v-5.6c0-2-0.4-3.4-1.1-4.3
	c-0.7-0.9-1.8-1.3-3.4-1.3c-0.7,0-1.4,0.1-1.9,0.4c-0.6,0.3-1.1,0.6-1.5,1.1V9.9H110.3z M163.5,9.9v3.5h-2.1v1.4h2.1v9.5h1.4v-9.5
	h2.1v-1.4h-2.1V9.9H163.5z M80.8,13.1c-1.7,0-3.1,0.5-4.2,1.6c-1.1,1.1-1.6,2.5-1.6,4.1c0,1.6,0.6,3,1.7,4.1
	c1.1,1.1,2.5,1.7,4.1,1.7c1.2,0,2.3-0.3,3.2-1c0.9-0.6,1.6-1.6,2.1-2.8h-1.6c-0.4,0.8-0.9,1.4-1.5,1.8c-0.7,0.4-1.4,0.6-2.2,0.6
	c-1.2,0-2.1-0.4-2.9-1.1c-0.8-0.7-1.2-1.7-1.3-2.9h10v-0.1c0-1.8-0.5-3.3-1.6-4.4C83.8,13.7,82.4,13.1,80.8,13.1z M173.4,13.1
	c-1.7,0-3.1,0.5-4.2,1.6c-1.1,1.1-1.6,2.5-1.6,4.1c0,1.6,0.6,3,1.7,4.1c1.1,1.1,2.5,1.7,4.1,1.7c1.2,0,2.3-0.3,3.2-1
	s1.6-1.6,2.1-2.8H177c-0.4,0.8-0.9,1.4-1.5,1.8c-0.7,0.4-1.4,0.6-2.2,0.6c-1.2,0-2.1-0.4-2.9-1.1c-0.8-0.7-1.2-1.7-1.3-2.9h10v-0.1
	c0-1.8-0.5-3.3-1.6-4.4C176.4,13.7,175,13.1,173.4,13.1z M93.3,13.2c-1.7,0-3,0.6-4.1,1.7c-1.1,1.1-1.7,2.5-1.7,4.1
	c0,1.6,0.5,3,1.6,4.1c1.1,1.1,2.4,1.6,4,1.6c0.9,0,1.7-0.2,2.4-0.5c0.8-0.4,1.4-0.9,1.8-1.5v1.7h1.4V13.4h-1.4v1.7
	c-0.5-0.6-1.1-1.1-1.8-1.5C94.9,13.3,94.1,13.2,93.3,13.2L93.3,13.2z M154.8,13.2c-1.7,0-3,0.6-4.1,1.7c-1.1,1.1-1.7,2.5-1.7,4.1
	c0,1.6,0.5,3,1.6,4.1c1.1,1.1,2.4,1.6,4,1.6c0.9,0,1.7-0.2,2.4-0.5c0.8-0.4,1.3-0.9,1.8-1.5v1.7h1.4V13.4h-1.4v1.7
	c-0.5-0.6-1.1-1.1-1.8-1.5C156.4,13.3,155.7,13.2,154.8,13.2L154.8,13.2z M120.3,13.4l4.3,10.9l-1.5,3.6h1.5l6-14.5H129l-3.6,8.9
	l-3.4-8.9H120.3z M80.6,14.4c1.2,0,2.1,0.3,2.8,0.9c0.7,0.6,1.2,1.5,1.5,2.7h-8.4c0.2-1.1,0.6-2,1.4-2.7
	C78.6,14.7,79.5,14.4,80.6,14.4L80.6,14.4z M173.2,14.4c1.2,0,2.1,0.3,2.8,0.9c0.7,0.6,1.2,1.5,1.5,2.7h-8.4c0.2-1.1,0.6-2,1.4-2.7
	C171.2,14.7,172.1,14.4,173.2,14.4z M93.2,14.5c1.1,0,2.1,0.4,2.9,1.3c0.8,0.9,1.3,1.9,1.3,3c0,1.2-0.4,2.3-1.3,3.2
	c-0.8,0.9-1.8,1.3-2.9,1.3c-1.2,0-2.2-0.4-3-1.3c-0.8-0.8-1.2-1.9-1.2-3.1c0-1.3,0.4-2.4,1.3-3.2C91,14.9,92,14.5,93.2,14.5
	L93.2,14.5z M154.8,14.5c1.1,0,2.1,0.4,2.9,1.3c0.8,0.9,1.3,1.9,1.3,3c0,1.2-0.4,2.3-1.3,3.2c-0.8,0.9-1.8,1.3-2.9,1.3
	c-1.2,0-2.2-0.4-3-1.3c-0.8-0.8-1.2-1.9-1.2-3.1c0-1.3,0.4-2.4,1.3-3.2C152.6,14.9,153.6,14.5,154.8,14.5L154.8,14.5z M46,17.5
	c-0.4,0-0.8,0.1-1.2,0.2c-0.4,0.2-0.7,0.4-0.9,0.7v-0.8H43v6.7h0.9v-3.3c0-0.6,0-1,0.1-1.2c0-0.2,0.1-0.4,0.2-0.6
	c0.2-0.3,0.4-0.5,0.7-0.7c0.3-0.2,0.6-0.2,1-0.2c0.7,0,1.1,0.2,1.5,0.6c0.3,0.4,0.5,0.9,0.5,1.7v3.8h0.8v-3.3c0-0.6,0-1,0.1-1.2
	c0-0.2,0.1-0.4,0.2-0.6c0.2-0.3,0.4-0.5,0.7-0.7c0.3-0.2,0.6-0.2,1-0.2c0.7,0,1.2,0.2,1.4,0.6c0.3,0.4,0.4,1,0.4,1.9v3.6h0.8v-3.4
	c0-1.2-0.2-2.1-0.6-2.6c-0.4-0.5-1.1-0.8-2-0.8c-0.5,0-1,0.1-1.4,0.3c-0.4,0.2-0.8,0.5-1,0.9c-0.2-0.4-0.5-0.7-1-0.9
	C47,17.6,46.5,17.5,46,17.5z M53.7,17.6l2.6,6.7l-0.9,2.2h0.1h0.8h0.1l3.7-8.9H60h-0.9H59l-2.1,5.3l-2-5.3h-0.1h-0.9H53.7z"/>
</svg>
