<svg width="17" height="17" viewBox="0 0 17 17" fill="none" xmlns="http://www.w3.org/2000/svg">
<path d="M9.18258 7.48596C9.51057 7.58382 9.82319 7.72725 10.1112 7.91215C10.4055 8.10557 10.6507 8.3654 10.8278 8.66975C11.0112 9.00688 11.104 9.38572 11.0974 9.76948C11.1128 10.2644 10.9653 10.7507 10.6776 11.1537C10.3749 11.5674 9.95942 11.8851 9.48088 12.0687C8.96606 12.2742 8.41497 12.3733 7.8608 12.3598C7.20869 12.3782 6.56185 12.2383 5.97552 11.9523C5.59018 11.7494 5.25933 11.4568 5.01096 11.0992C4.76243 10.7553 4.62318 10.3445 4.61133 9.92039C4.61133 9.72978 4.68705 9.5469 4.82185 9.41216C4.95664 9.27733 5.13945 9.20161 5.33008 9.20161C5.5207 9.20161 5.70352 9.27733 5.83832 9.41216C5.9731 9.5469 6.04883 9.72978 6.04883 9.92039C6.0636 10.0518 6.11378 10.1768 6.19402 10.2819C6.30834 10.4462 6.46014 10.581 6.63678 10.6751C7.01931 10.8538 7.43892 10.9385 7.8608 10.9224C8.22559 10.9342 8.58906 10.8726 8.92961 10.7412C9.15808 10.6591 9.35809 10.5132 9.506 10.3208C9.61554 10.1679 9.66982 9.98232 9.65981 9.79461C9.66736 9.64959 9.6382 9.50492 9.57504 9.37413C9.50969 9.26696 9.42045 9.1764 9.31417 9.10965C9.14367 9.00222 8.95913 8.91895 8.76571 8.86238C8.6083 8.81425 8.43649 8.76752 8.25827 8.72149L8.24536 8.72009C8.23736 8.71745 8.22621 8.71473 8.21637 8.71236C8.21286 8.71157 8.20952 8.71078 8.20653 8.70998C8.09006 8.68056 7.97367 8.65104 7.84929 8.62373C7.53159 8.55548 7.31164 8.50014 7.17365 8.45842C7.17057 8.45763 7.16785 8.45578 7.16513 8.45394C7.16284 8.45236 7.16047 8.45077 7.15784 8.44981C6.83872 8.37242 6.52496 8.27448 6.21846 8.15661C5.81286 7.99384 5.45664 7.72831 5.18489 7.38609C4.90342 7.01665 4.75636 6.56235 4.76801 6.09806C4.76811 5.63172 4.92055 5.17818 5.20214 4.80646C5.49614 4.43262 5.88871 4.14834 6.33561 3.98564C6.82976 3.80805 7.3524 3.72279 7.87731 3.73409C8.29033 3.72952 8.70167 3.78669 9.09782 3.90371C9.44092 4.00376 9.7624 4.16683 10.0459 4.38456C10.2911 4.57073 10.4958 4.80504 10.6474 5.07312C10.6929 5.15629 10.7215 5.24762 10.7315 5.34188C10.7415 5.43613 10.7328 5.53144 10.7059 5.62232C10.679 5.71319 10.6343 5.79784 10.5745 5.87139C10.5147 5.94495 10.4409 6.00594 10.3575 6.05087C10.2741 6.0958 10.1825 6.12378 10.0882 6.13319C9.99385 6.14261 9.89864 6.13327 9.8079 6.10572C9.71725 6.07818 9.63284 6.03297 9.55976 5.97269C9.48659 5.91241 9.42607 5.83826 9.38171 5.7545C9.3204 5.65805 9.24108 5.57434 9.14806 5.50796C9.00427 5.40311 8.84292 5.32473 8.67154 5.27653C8.41321 5.2025 8.14531 5.16713 7.87661 5.17159C7.52939 5.16135 7.18313 5.21394 6.85453 5.32684C6.65918 5.39338 6.48544 5.51132 6.35143 5.66825C6.2557 5.79077 6.20382 5.94185 6.20408 6.09734C6.19233 6.24236 6.23315 6.38676 6.31908 6.50411C6.43651 6.64764 6.589 6.75832 6.76186 6.82542C7.09714 6.95455 7.44234 7.05644 7.79396 7.13022C8.08865 7.19487 8.32731 7.2524 8.52854 7.30844C8.7585 7.36519 8.98135 7.42492 9.18258 7.48596Z" fill="#01385f"/>
<path fill-rule="evenodd" clip-rule="evenodd" d="M4.61149 0C2.06463 0 0 2.06463 0 4.61149C0 5.35218 0.175096 6.05355 0.486472 6.67497C0.397703 7.14517 0.351351 7.62995 0.351351 8.125C0.351351 12.4183 3.83173 15.8986 8.125 15.8986C8.62005 15.8986 9.10483 15.8523 9.57503 15.7636C10.1965 16.0749 10.8979 16.25 11.6385 16.25C14.1854 16.25 16.25 14.1854 16.25 11.6385C16.25 10.8979 16.0749 10.1965 15.7636 9.57503C15.8523 9.10483 15.8986 8.62005 15.8986 8.125C15.8986 3.83173 12.4183 0.351351 8.125 0.351351C7.62995 0.351351 7.14517 0.397703 6.67497 0.486472C6.05355 0.175096 5.35218 0 4.61149 0ZM1.31757 4.61149C1.31757 2.7923 2.7923 1.31757 4.61149 1.31757C5.20783 1.31757 5.7653 1.47545 6.24651 1.75123C6.38897 1.83288 6.55674 1.85838 6.71705 1.82275C7.16968 1.72212 7.64075 1.66892 8.125 1.66892C11.6906 1.66892 14.5811 4.55941 14.5811 8.125C14.5811 8.60925 14.5279 9.08032 14.4273 9.53295C14.3916 9.69326 14.4171 9.86103 14.4988 10.0035C14.7746 10.4847 14.9324 11.0422 14.9324 11.6385C14.9324 13.4577 13.4577 14.9324 11.6385 14.9324C11.0422 14.9324 10.4847 14.7746 10.0035 14.4988C9.86103 14.4171 9.69326 14.3916 9.53295 14.4273C9.08032 14.5279 8.60925 14.5811 8.125 14.5811C4.55941 14.5811 1.66892 11.6906 1.66892 8.125C1.66892 7.64075 1.72212 7.16968 1.82275 6.71705C1.85838 6.55674 1.83288 6.38897 1.75123 6.24651C1.47545 5.7653 1.31757 5.20783 1.31757 4.61149Z" fill="#01385f"/>
</svg>
