<svg width="30" height="26" viewBox="0 0 30 26" fill="none" xmlns="http://www.w3.org/2000/svg">
<path d="M27.3074 1.92285H20.4766C20.4766 1.92285 20.5382 2.35362 20.5382 2.53824C20.5382 4.93824 18.6305 6.84593 16.2305 6.84593H12.5382C10.1382 6.84593 8.23047 4.93824 8.23047 2.53824C8.23047 2.35362 8.23047 1.92285 8.29201 1.92285H2.69201C1.33816 1.92285 0.230469 3.03054 0.230469 4.38439V22.8459C0.230469 24.1998 1.33816 25.3075 2.69201 25.3075H27.3074C28.6612 25.3075 29.7689 24.1998 29.7689 22.8459V4.38439C29.7689 3.03054 28.6612 1.92285 27.3074 1.92285ZM12.3535 20.3844H8.84585H5.33816C4.53816 20.3844 3.92278 19.6459 3.92278 18.8459C3.92278 17.6152 5.21508 16.9382 6.56893 16.3844C7.49201 16.0152 7.61508 15.6459 7.61508 15.2152C7.61508 14.8459 7.36893 14.4767 7.06124 14.169C6.50739 13.6767 6.1997 12.9382 6.1997 12.1382C6.1997 10.5998 7.12278 9.30747 8.78432 9.30747C10.4459 9.30747 11.3689 10.5998 11.3689 12.1382C11.3689 12.9382 11.0612 13.6767 10.5074 14.169C10.1997 14.4767 9.95355 14.8459 9.95355 15.2152C9.95355 15.5844 10.0766 15.9536 10.9997 16.3844C12.3535 16.9382 13.6459 17.6152 13.6459 18.8459C13.7689 19.6459 13.1535 20.3844 12.3535 20.3844ZM26.0766 17.9229C26.0766 18.2921 25.8305 18.5382 25.4612 18.5382H16.8459C16.4766 18.5382 16.2305 18.2921 16.2305 17.9229V16.6921C16.2305 16.3229 16.4766 16.0767 16.8459 16.0767H25.4612C25.8305 16.0767 26.0766 16.3229 26.0766 16.6921V17.9229ZM27.3074 12.9998C27.3074 13.369 27.0612 13.6152 26.692 13.6152H16.8459C16.4766 13.6152 16.2305 13.369 16.2305 12.9998V11.769C16.2305 11.3998 16.4766 11.1536 16.8459 11.1536H26.692C27.0612 11.1536 27.3074 11.3998 27.3074 11.769V12.9998Z" fill="white"/>
<path d="M12.5376 4.38469H16.2299C17.276 4.38469 18.076 3.58469 18.076 2.53854C18.076 1.49238 17.276 0.692383 16.2299 0.692383H12.5376C11.4914 0.692383 10.6914 1.49238 10.6914 2.53854C10.6914 3.58469 11.4914 4.38469 12.5376 4.38469Z" fill="white"/>
</svg>
