<svg width="30" height="30" viewBox="0 0 30 30" fill="none" xmlns="http://www.w3.org/2000/svg">
<path d="M16.8744 11.875C17.2196 11.875 17.5023 12.1554 17.471 12.4992C17.3257 14.0936 16.6271 15.595 15.4857 16.7364C14.1964 18.0257 12.4477 18.75 10.6244 18.75C8.801 18.75 7.05237 18.0257 5.76303 16.7364C4.62167 15.595 3.92307 14.0937 3.77777 12.4992C3.74644 12.1554 4.02921 11.875 4.37439 11.875H5.49349C5.83866 11.875 6.11402 12.1562 6.16175 12.4981C6.29644 13.4629 6.74144 14.3644 7.43825 15.0612C8.28325 15.9062 9.42937 16.3809 10.6244 16.3809C11.8194 16.3809 12.9655 15.9062 13.8106 15.0612C14.5073 14.3644 14.9524 13.4629 15.0871 12.4981C15.1347 12.1562 15.4101 11.875 15.7553 11.875H16.8744Z" fill="white"/>
<path fill-rule="evenodd" clip-rule="evenodd" d="M17.471 12.4992C17.5023 12.1554 17.2196 11.875 16.8744 11.875H15.7553C15.4101 11.875 15.1347 12.1562 15.0871 12.4981C14.9524 13.4629 14.5073 14.3644 13.8106 15.0612C12.9655 15.9062 11.8194 16.3809 10.6244 16.3809C9.42937 16.3809 8.28325 15.9062 7.43825 15.0612C6.74144 14.3644 6.29644 13.4629 6.16175 12.4981C6.11402 12.1562 5.83866 11.875 5.49349 11.875H4.37439C4.02921 11.875 3.74644 12.1554 3.77777 12.4992C3.92307 14.0937 4.62167 15.595 5.76303 16.7364C7.05237 18.0257 8.801 18.75 10.6244 18.75C12.4477 18.75 14.1964 18.0257 15.4857 16.7364C16.6271 15.595 17.3257 14.0936 17.471 12.4992Z" fill="white"/>
<path d="M8.75 17.5H12.5V20C12.5 21.0356 11.6606 21.875 10.625 21.875C9.58944 21.875 8.75 21.0356 8.75 20V17.5Z" fill="white"/>
<path fill-rule="evenodd" clip-rule="evenodd" d="M11.875 18.125H9.375V20C9.375 20.6904 9.93463 21.25 10.625 21.25C11.3154 21.25 11.875 20.6904 11.875 20V18.125ZM8.75 17.5V20C8.75 21.0356 9.58944 21.875 10.625 21.875C11.6606 21.875 12.5 21.0356 12.5 20V17.5H8.75Z" fill="white"/>
<path fill-rule="evenodd" clip-rule="evenodd" d="M21.4062 16.875C20.1118 16.875 19.0625 17.9243 19.0625 19.2188V21.7188C19.0625 24.2213 17.0338 26.25 14.5312 26.25C12.0287 26.25 10 24.2213 10 21.7188V21.25H11.25V21.7188C11.25 23.5309 12.7191 25 14.5312 25C16.3434 25 17.8125 23.5309 17.8125 21.7188V19.2188C17.8125 17.234 19.4215 15.625 21.4062 15.625C23.391 15.625 25 17.234 25 19.2188V21.875H23.75V19.2188C23.75 17.9243 22.7007 16.875 21.4062 16.875Z" fill="white"/>
<path d="M26.25 22.5C26.25 23.5356 25.4106 24.375 24.375 24.375C23.3394 24.375 22.5 23.5356 22.5 22.5C22.5 21.4644 23.3394 20.625 24.375 20.625C25.4106 20.625 26.25 21.4644 26.25 22.5Z" fill="white"/>
<path fill-rule="evenodd" clip-rule="evenodd" d="M24.375 23.125C24.7202 23.125 25 22.8452 25 22.5C25 22.1548 24.7202 21.875 24.375 21.875C24.0298 21.875 23.75 22.1548 23.75 22.5C23.75 22.8452 24.0298 23.125 24.375 23.125ZM24.375 24.375C25.4106 24.375 26.25 23.5356 26.25 22.5C26.25 21.4644 25.4106 20.625 24.375 20.625C23.3394 20.625 22.5 21.4644 22.5 22.5C22.5 23.5356 23.3394 24.375 24.375 24.375Z" fill="white"/>
<path fill-rule="evenodd" clip-rule="evenodd" d="M6.25 5.625C5.90482 5.625 5.625 5.90482 5.625 6.25V11.875H4.375V6.25C4.375 5.21447 5.21447 4.375 6.25 4.375H7.5V5.625H6.25Z" fill="white"/>
<path d="M8.75 5C8.75 5.69036 8.19037 6.25 7.5 6.25C6.80963 6.25 6.25 5.69036 6.25 5C6.25 4.30964 6.80963 3.75 7.5 3.75C8.19037 3.75 8.75 4.30964 8.75 5Z" fill="white"/>
<path fill-rule="evenodd" clip-rule="evenodd" d="M7.5 6.25C8.19037 6.25 8.75 5.69036 8.75 5C8.75 4.30964 8.19037 3.75 7.5 3.75C6.80963 3.75 6.25 4.30964 6.25 5C6.25 5.69036 6.80963 6.25 7.5 6.25Z" fill="white"/>
<path fill-rule="evenodd" clip-rule="evenodd" d="M15 5.625C15.3452 5.625 15.625 5.90482 15.625 6.25V11.875H16.875V6.25C16.875 5.21447 16.0356 4.375 15 4.375H13.75V5.625H15Z" fill="white"/>
<path d="M12.5 5C12.5 5.69036 13.0596 6.25 13.75 6.25C14.4404 6.25 15 5.69036 15 5C15 4.30964 14.4404 3.75 13.75 3.75C13.0596 3.75 12.5 4.30964 12.5 5Z" fill="white"/>
<path fill-rule="evenodd" clip-rule="evenodd" d="M13.75 6.25C13.0596 6.25 12.5 5.69036 12.5 5C12.5 4.30964 13.0596 3.75 13.75 3.75C14.4404 3.75 15 4.30964 15 5C15 5.69036 14.4404 6.25 13.75 6.25Z" fill="white"/>
</svg>
