<svg xmlns="http://www.w3.org/2000/svg" width="120" height="120" viewBox="0 0 120 120"><defs><style>.a{fill:#fff;}.b{fill:none;}</style></defs><path class="a" d="M51.99,2a50,50,0,1,0,50,50A50.018,50.018,0,0,0,51.99,2ZM70.04,33.7a9.65,9.65,0,1,1-9.65,9.65A9.624,9.624,0,0,1,70.04,33.7Zm-30-7.9a11.8,11.8,0,1,1-11.8,11.8A11.822,11.822,0,0,1,40.04,25.8Zm0,45.65V90.2a40.033,40.033,0,0,1-25.7-24.8c5.25-5.6,18.35-8.45,25.7-8.45a50.862,50.862,0,0,1,9.5,1.1C41.34,62.4,40.04,68.15,40.04,71.45ZM51.99,92a34.258,34.258,0,0,1-3.95-.2V71.45c0-7.1,14.7-10.65,22-10.65,5.35,0,14.6,1.95,19.2,5.75A40.093,40.093,0,0,1,51.99,92Z" transform="translate(7.96 8)"/><path class="b" d="M0,0H120V120H0Z"/></svg>