<svg width="320" height="49" viewBox="0 0 320 49" fill="none" xmlns="http://www.w3.org/2000/svg">
<path d="M72.9474 36.0213L75.5977 32.8621C77.9971 34.9446 80.3901 36.1244 83.5035 36.1244C86.2246 36.1244 87.9421 34.8672 87.9421 32.9652V32.8943C87.9421 31.1019 86.9386 30.1348 82.2877 29.0259C76.955 27.7364 73.9252 26.1568 73.9252 21.5276V21.4567C73.9252 17.1563 77.5018 14.1776 82.4807 14.1776C85.7894 14.1111 89.0129 15.2315 91.5702 17.3368L89.2094 20.7088C86.9579 19.026 84.7065 18.1298 82.41 18.1298C79.8369 18.1298 78.3316 19.458 78.3316 21.1085V21.1794C78.3316 23.1137 79.4766 23.9776 84.269 25.1252C89.5632 26.4147 92.3228 28.3489 92.3228 32.4752V32.5462C92.3228 37.2463 88.6369 40.0444 83.3749 40.0444C79.5198 40.0553 75.8001 38.6202 72.9474 36.0213Z" fill="#A1A7B3"/>
<path d="M95.2304 32.7977V20.7476H99.5597V31.5082C99.5597 34.4482 101.026 36.1374 103.606 36.1374C106.185 36.1374 107.864 34.3773 107.864 31.4308V20.7476H112.194V39.6835H107.864V37.7493C106.344 39.3757 104.178 40.2364 101.959 40.0961C97.7006 40.0768 95.2304 37.1883 95.2304 32.7977Z" fill="#A1A7B3"/>
<path d="M116.825 20.7476H121.154V23.9068C122.332 21.0699 124.519 20.2447 127.844 20.393V24.2614H127.594C123.798 24.2614 121.161 26.8017 121.161 32.5011V39.6835H116.832L116.825 20.7476Z" fill="#A1A7B3"/>
<path d="M129.388 20.7476H134.039L139.121 33.926L144.267 20.7476H148.809L141.089 39.8318H137.191L129.388 20.7476Z" fill="#A1A7B3"/>
<path d="M148.815 30.2833V30.2124C148.815 24.7966 152.675 20.3479 158.046 20.3479C164.061 20.3479 167.104 25.0803 167.104 30.5347C167.104 30.928 167.065 31.3213 167.033 31.7533H153.144C153.608 34.8351 155.795 36.563 158.587 36.563C160.546 36.5794 162.418 35.7559 163.733 34.3L166.242 36.5437C164.362 38.8692 161.507 40.1809 158.522 40.0897C153.042 40.1091 148.815 36.1311 148.815 30.2833ZM162.806 28.8842C162.523 26.0861 160.877 23.9004 158.014 23.9004C155.364 23.9004 153.511 25.9442 153.112 28.8842H162.806Z" fill="#A1A7B3"/>
<path d="M190.049 14.5774H194.739L202.361 27.3819L209.984 14.5774H214.648V39.6834H210.274V21.6759L202.361 34.4482H202.22L194.385 21.7469V39.6834H190.056L190.049 14.5774Z" fill="#A1A7B3"/>
<path d="M217.774 30.3219V30.251C217.755 24.6748 222.249 20.1385 227.813 20.119C233.376 20.0994 237.902 24.6039 237.922 30.1801V30.251C237.912 32.9138 236.833 35.4605 234.928 37.3165C233.023 39.1725 230.452 40.1814 227.797 40.1155C225.162 40.1833 222.611 39.1815 220.724 37.3374C218.837 35.4934 217.773 32.9635 217.774 30.3219ZM233.592 30.3219V30.251C233.592 26.9177 231.193 24.1518 227.803 24.1518C224.413 24.1518 222.11 26.879 222.11 30.1801V30.251C222.11 33.5521 224.509 36.3502 227.899 36.3502C231.373 36.3502 233.592 33.5843 233.592 30.3219Z" fill="#A1A7B3"/>
<path d="M262.141 13.5007H266.47V29.1356L274.305 20.754H279.567L272.054 28.4909L279.818 39.7157H274.807L269.114 31.5405L266.464 34.2999V39.7157H262.135L262.141 13.5007Z" fill="#A1A7B3"/>
<path d="M279.471 30.2833V30.2124C279.471 24.7966 283.33 20.3479 288.702 20.3479C294.716 20.3479 297.759 25.0803 297.759 30.5347C297.759 30.928 297.72 31.3213 297.688 31.7533H283.8C284.263 34.8351 286.45 36.563 289.242 36.563C291.201 36.5802 293.074 35.7566 294.388 34.3L296.897 36.5437C295.018 38.8692 292.162 40.1809 289.178 40.0897C283.691 40.1091 279.471 36.1311 279.471 30.2833ZM293.462 28.8842C293.179 26.0861 291.532 23.9004 288.67 23.9004C286.019 23.9004 284.167 25.9442 283.768 28.8842H293.462Z" fill="#A1A7B3"/>
<path d="M182.311 20.7476L177.081 33.6616L171.889 20.7476H167.38L174.823 39.2451L170.937 48.8387H175.447L186.82 20.7476H182.311Z" fill="#A1A7B3"/>
<path d="M312.966 20.7476L307.736 33.6616L302.539 20.7476H298.036L305.478 39.2451L301.593 48.8387H306.102L317.475 20.7476H312.966Z" fill="#A1A7B3"/>
<path d="M257.747 27.6333V39.6835H253.418V28.9228C253.399 25.9828 251.958 24.2936 249.385 24.2936C246.812 24.2936 245.126 26.0537 245.126 28.9937V39.6835H240.765V20.7475H245.094V22.6817C246.614 21.0553 248.78 20.1946 250.999 20.3349C255.258 20.3478 257.747 23.2169 257.747 27.6333Z" fill="#A1A7B3"/>
<path d="M56.1759 25.3925C55.57 25.3956 54.9666 25.4714 54.3787 25.6183C52.1402 16.7953 44.9639 10.0953 36.0212 8.47922C35.6218 8.40823 35.2611 8.35661 34.8553 8.30499C34.9197 6.11097 35.0228 3.57495 38.2498 1.2906L37.741 0C37.741 0 31.4608 1.93589 30.7329 7.33704C30.4173 5.87221 27.5123 4.03957 26.0437 3.6911L25.3222 4.85909C26.6213 5.64483 27.4987 6.97411 27.712 8.47922C18.7685 10.092 11.5896 16.7895 9.34793 25.6119C6.19138 24.8214 2.88528 26.1533 1.1538 28.913C-0.57768 31.6728 -0.342134 35.2348 1.7376 37.7416C3.81733 40.2484 7.26991 41.1318 10.2948 39.931C10.9358 41.5364 11.7547 43.0645 12.736 44.4868L18.9776 40.273L18.9261 40.2021C17.1843 37.7433 16.2011 34.8265 16.0984 31.8132C15.9116 28.3802 16.7425 24.9666 18.939 22.9597C23.4478 19.0879 28.369 20.8625 31.4479 24.5536H32.2788C35.3577 20.8625 40.2724 19.1073 44.7877 22.9597C46.9777 24.9666 47.8151 28.3802 47.6283 31.8132C47.5256 34.8265 46.5424 37.7433 44.8006 40.2021L44.7491 40.273L50.9907 44.4868C51.972 43.0645 52.7909 41.5364 53.4319 39.931C56.2448 41.0319 59.4423 40.3394 61.5502 38.1728C63.658 36.0061 64.2669 32.7861 63.0962 29.9972C61.9254 27.2083 59.2023 25.3922 56.1823 25.386L56.1759 25.3925ZM7.40267 35.1494C6.22355 35.0857 5.30004 34.1093 5.30004 32.9263C5.30004 31.7433 6.22355 30.7669 7.40267 30.7033C7.84623 30.7059 8.27898 30.8407 8.64584 31.0905C8.66501 32.2575 8.74456 33.4227 8.88416 34.5815C8.47688 34.9469 7.94942 35.1491 7.40267 35.1494ZM56.324 35.1494C55.7773 35.1491 55.2498 34.9469 54.8425 34.5815C54.9821 33.4227 55.0617 32.2575 55.0808 31.0905C55.761 30.6286 56.6404 30.5818 57.3656 30.9687C58.0908 31.3557 58.5428 32.1129 58.5398 32.936C58.5381 33.5247 58.303 34.0887 57.8863 34.5038C57.4695 34.9189 56.9052 35.1511 56.3176 35.1494H56.324Z" fill="#A1A7B3"/>
</svg>
