<?xml version="1.0" encoding="utf-8"?>
<!-- Generator: Adobe Illustrator 26.3.1, SVG Export Plug-In . SVG Version: 6.00 Build 0)  -->
<svg version="1.1"
	 id="svg12218" xmlns:dc="http://purl.org/dc/elements/1.1/" xmlns:cc="http://creativecommons.org/ns#" xmlns:rdf="http://www.w3.org/1999/02/22-rdf-syntax-ns#" xmlns:sodipodi="http://sodipodi.sourceforge.net/DTD/sodipodi-0.dtd" xmlns:inkscape="http://www.inkscape.org/namespaces/inkscape" xmlns:svg="http://www.w3.org/2000/svg" sodipodi:docname="logo-small.svg"
	 xmlns="http://www.w3.org/2000/svg" xmlns:xlink="http://www.w3.org/1999/xlink" x="0px" y="0px" viewBox="0 0 231 82.6"
	 style="enable-background:new 0 0 231 82.6;" xml:space="preserve">
<style type="text/css">
	.st0{fill:url(#path250_00000119078851387645408330000003200421714282057646_);}
	.st1{stroke:#000000;stroke-width:0.6;stroke-miterlimit:3;}
</style>
<sodipodi:namedview  bordercolor="#666666" borderopacity="1.0" id="base" inkscape:current-layer="layer1" inkscape:cx="-105.9784" inkscape:cy="-114.5988" inkscape:document-units="mm" inkscape:pageopacity="0.0" inkscape:pageshadow="2" inkscape:window-height="1031" inkscape:window-maximized="1" inkscape:window-width="1920" inkscape:window-x="0" inkscape:window-y="0" inkscape:zoom="1.5704814" pagecolor="#ffffff" showgrid="false">
	</sodipodi:namedview>
<g id="layer1" transform="translate(88.768966,-184.05025)" inkscape:groupmode="layer" inkscape:label="Layer 1">
	
		<linearGradient id="path250_00000131346711250320259470000016384605504848341648_" gradientUnits="userSpaceOnUse" x1="557.877" y1="-3965.1597" x2="590.6045" y2="-3604.9917" gradientTransform="matrix(8.035100e-02 0 0 -8.035100e-02 -18.2781 -102.1466)">
		<stop  offset="0" style="stop-color:#01385F"/>
		<stop  offset="1" style="stop-color:#17a2b8"/>
	</linearGradient>
	
		<path id="path250" inkscape:connector-curvature="0" style="fill:url(#path250_00000131346711250320259470000016384605504848341648_);" d="
		M20.8,184.1c0,0-1.1,0.1-2.6,0.8v30.4l2.6-1.4v-7.7c1-2.4,3.3-3.9,5.9-3.9c2.6,0,4.9,1.5,5.9,3.9v7.7l2.6,1.4v-30.4
		c-1.5-0.7-2.6-0.8-2.6-0.8v17.7c-1.6-1.4-3.7-2.2-5.9-2.2c-2.2,0-4.3,0.8-5.9,2.2V184.1z M16,186c-0.9,0.6-1.8,1.4-2.6,2.5v30.8
		l2.6-1.8V186z M37.5,186v31.4l2.6,1.8v-30.8C39.3,187.5,38.4,186.7,37.5,186z M11.2,191.9c-1.5,3.2-2.6,7.6-2.6,13.8v19l2.6-2.3
		V191.9z M42.3,191.9v30.5l2.6,2.3v-19C44.9,199.5,43.8,195.1,42.3,191.9z"/>
	<path id="path404" inkscape:connector-curvature="0" class="st1" d="M76.7,234.9c-1.8,0-3.5,0.3-4.9,0.9c-1.5,0.6-2.8,1.5-4.1,2.7
		c-1.3,1.2-2.2,2.6-2.9,4.2c-0.7,1.6-1,3.2-1,4.9c0,3.7,1.2,6.8,3.6,9.3c2.4,2.5,5.4,3.7,9,3.7c3.5,0,6.4-1.2,8.8-3.5
		c2.4-2.3,3.7-5.3,3.9-8.9H73.7v2.2h12.5c-0.5,2.3-1.7,4.2-3.5,5.6c-1.8,1.5-3.8,2.2-6.1,2.2c-2.9,0-5.3-1-7.3-3
		c-2-2-2.9-4.6-2.9-7.6c0-2.9,1-5.3,2.9-7.3c2-2,4.4-3.1,7.2-3.1c1.6,0,3.1,0.4,4.5,1.1c1.3,0.7,2.6,1.8,3.7,3.3h3
		c-1.2-2.2-2.7-3.8-4.6-5C81.2,235.5,79.1,234.9,76.7,234.9L76.7,234.9z M-54.1,235.4v24.8h2.4v-11.3h11.8v11.3h2.4v-24.8h-2.4v11.1
		h-11.8v-11.1H-54.1z M9.8,235.4v24.8h2.4v-24.8H9.8z M17.8,235.4v6.1h-3.6v2.4h3.6v16.3h2.4v-16.3h3.5v-2.4h-3.5v-6.1H17.8z
		 M25.6,235.4v24.8H28v-9.1c0-1.6,0.1-2.8,0.2-3.4c0.1-0.6,0.3-1.2,0.6-1.7c0.5-0.8,1.1-1.4,1.9-1.9c0.8-0.4,1.8-0.7,2.9-0.7
		c1.9,0,3.3,0.5,4.1,1.6c0.8,1.1,1.2,2.9,1.2,5.7v9.5h2.4v-9.5c0-3.4-0.6-5.8-1.8-7.3c-1.2-1.5-3.1-2.3-5.7-2.3
		c-1.2,0-2.3,0.2-3.3,0.6c-1,0.4-1.8,1.1-2.5,1.9v-8.2H25.6z M115.6,235.4v6.1h-3.6v2.4h3.6v16.3h2.4v-16.3h3.6v-2.4H118v-6.1H115.6
		z M-24.4,240.9c-2.9,0-5.2,0.9-7.1,2.8c-1.8,1.9-2.8,4.2-2.8,7.1c0,2.7,0.9,5,2.8,7c1.9,1.9,4.2,2.9,6.9,2.9c2.1,0,3.9-0.6,5.4-1.7
		c1.6-1.1,2.8-2.7,3.6-4.8h-2.7c-0.6,1.3-1.5,2.3-2.6,3c-1.1,0.7-2.4,1.1-3.8,1.1c-2,0-3.6-0.6-5-1.9c-1.3-1.3-2.1-2.9-2.2-4.9h16.9
		v-0.2c0-3.1-0.9-5.6-2.7-7.5C-19.3,241.9-21.6,240.9-24.4,240.9z M132.3,240.9c-2.9,0-5.2,0.9-7.1,2.8c-1.8,1.9-2.8,4.2-2.8,7.1
		c0,2.7,0.9,5,2.8,7c1.9,1.9,4.2,2.9,6.9,2.9c2.1,0,3.9-0.6,5.4-1.7c1.6-1.1,2.8-2.7,3.6-4.8h-2.7c-0.6,1.3-1.5,2.3-2.6,3
		c-1.1,0.7-2.4,1.1-3.8,1.1c-2,0-3.6-0.6-5-1.9c-1.3-1.3-2.1-2.9-2.2-4.9h16.9v-0.2c0-3.1-0.9-5.6-2.7-7.5
		C137.4,241.9,135.1,240.9,132.3,240.9z M-3.3,241c-2.8,0-5.1,0.9-7,2.8c-1.9,1.9-2.8,4.2-2.8,7c0,2.8,0.9,5.1,2.7,6.9
		c1.8,1.9,4.1,2.8,6.9,2.8c1.5,0,2.8-0.3,4.1-0.9c1.3-0.6,2.3-1.5,3-2.5v3H6v-18.7H3.7v3c-0.8-1.1-1.8-1.9-3-2.5
		C-0.5,241.3-1.8,241-3.3,241z M100.9,241c-2.8,0-5.1,0.9-7,2.8c-1.9,1.9-2.8,4.2-2.8,7c0,2.8,0.9,5.1,2.7,6.9
		c1.8,1.9,4.1,2.8,6.9,2.8c1.5,0,2.8-0.3,4.1-0.9c1.3-0.6,2.3-1.5,3-2.5v3h2.3v-18.7h-2.3v3c-0.8-1.1-1.8-1.9-3-2.5
		C103.7,241.3,102.4,241,100.9,241z M42.6,241.5l7.2,18.7l-2.5,6.1h2.6l10.1-24.7h-2.8l-6.1,15.2l-5.8-15.2H42.6z M-24.8,243.2
		c1.9,0,3.5,0.5,4.7,1.6c1.2,1,2,2.6,2.5,4.7h-14.2c0.3-1.9,1.1-3.4,2.3-4.6C-28.1,243.8-26.6,243.2-24.8,243.2z M132,243.2
		c1.9,0,3.5,0.5,4.7,1.6c1.2,1,2,2.6,2.5,4.7H125c0.3-1.9,1.1-3.4,2.3-4.6C128.6,243.8,130.1,243.2,132,243.2z M-3.3,243.3
		c1.8,0,3.5,0.7,4.9,2.2c1.4,1.5,2.1,3.2,2.1,5.2c0,2.1-0.7,4-2.1,5.5c-1.4,1.5-3.1,2.3-5,2.3c-2,0-3.7-0.7-5.1-2.1
		c-1.4-1.4-2.1-3.2-2.1-5.3c0-2.2,0.7-4,2.1-5.5C-7.1,244-5.3,243.3-3.3,243.3z M100.8,243.3c1.8,0,3.5,0.7,4.9,2.2
		c1.4,1.5,2.1,3.2,2.1,5.2c0,2.1-0.7,4-2.1,5.5c-1.4,1.5-3.1,2.3-5,2.3c-2,0-3.7-0.7-5.1-2.1c-1.4-1.4-2.1-3.2-2.1-5.3
		c0-2.2,0.7-4,2.1-5.5C97.1,244,98.8,243.3,100.8,243.3L100.8,243.3z M-83.3,248.4c-0.8,0-1.4,0.1-2,0.4c-0.6,0.3-1.1,0.6-1.6,1.1
		v-1.3h-1.4v11.5h1.4v-5.6c0-1,0-1.7,0.1-2.1c0.1-0.4,0.2-0.8,0.4-1.1c0.3-0.5,0.7-0.9,1.2-1.2c0.5-0.3,1.1-0.4,1.8-0.4
		c1.1,0,1.9,0.3,2.5,0.9c0.5,0.6,0.8,1.6,0.8,2.9v6.4h1.4v-5.6c0-1,0-1.7,0.1-2.1c0.1-0.4,0.2-0.8,0.4-1.1c0.3-0.5,0.7-0.9,1.2-1.2
		c0.5-0.3,1.1-0.4,1.7-0.4c1.1,0,2,0.3,2.5,1c0.5,0.6,0.8,1.7,0.8,3.2v6.1h1.4v-5.8c0-2.1-0.4-3.6-1.1-4.5c-0.7-0.9-1.8-1.4-3.4-1.4
		c-0.9,0-1.6,0.2-2.3,0.5c-0.7,0.3-1.3,0.8-1.7,1.5c-0.4-0.6-0.9-1.1-1.6-1.5C-81.6,248.6-82.4,248.4-83.3,248.4z M-70.2,248.7
		l4.4,11.5l-1.5,3.7h0.2h1.3h0.2l6.2-15.2h-0.2H-61h-0.2l-3.6,9l-3.4-9h-0.2h-1.4H-70.2z"/>
</g>
</svg>
