<svg xmlns="http://www.w3.org/2000/svg" width="231.351" height="70.861" viewBox="0 0 231.351 70.861"><defs><style>.a{fill:#d92029;}.b{fill:#0754ed;}.c{fill:#2f2660;}</style></defs><g transform="translate(-149.738 -49.843)"><path class="a" d="M-67.262-1.048V-6.032a13.745,13.745,0,0,0,8.354,2.8q6.117,0,6.117-4.078a3.538,3.538,0,0,0-.524-1.968,5.222,5.222,0,0,0-1.416-1.43,10.9,10.9,0,0,0-2.1-1.119q-1.2-.5-2.591-1.034A33.374,33.374,0,0,1-62.8-14.4a10.224,10.224,0,0,1-2.436-1.756A6.534,6.534,0,0,1-66.71-18.38a7.865,7.865,0,0,1-.5-2.917,6.929,6.929,0,0,1,.935-3.611,8.287,8.287,0,0,1,2.492-2.634,11.621,11.621,0,0,1,3.554-1.6A15.765,15.765,0,0,1-56.1-29.68a16.638,16.638,0,0,1,6.74,1.3v4.7a13.136,13.136,0,0,0-7.363-2.1,8.607,8.607,0,0,0-2.351.3,5.755,5.755,0,0,0-1.8.835,3.86,3.86,0,0,0-1.161,1.289,3.394,3.394,0,0,0-.411,1.657,3.973,3.973,0,0,0,.411,1.9,4.177,4.177,0,0,0,1.2,1.359,9.2,9.2,0,0,0,1.926,1.076q1.133.481,2.577,1.048A35.868,35.868,0,0,1-52.876-14.8a11.85,11.85,0,0,1,2.605,1.756,6.861,6.861,0,0,1,1.657,2.251,7.261,7.261,0,0,1,.581,3.03,7.145,7.145,0,0,1-.949,3.738,8.131,8.131,0,0,1-2.535,2.634A11.609,11.609,0,0,1-55.17.17,18.038,18.038,0,0,1-59.5.68,16.453,16.453,0,0,1-67.262-1.048ZM-.588,0H-5.233V-16.652q0-4.814-1.487-6.967t-5-2.152a6.19,6.19,0,0,0-5.055,2.719,10.4,10.4,0,0,0-2.082,6.514V0H-23.5V-17.219q0-8.553-6.6-8.553a6.113,6.113,0,0,0-5.041,2.563,10.6,10.6,0,0,0-1.982,6.669V0h-4.645V-29h4.645v4.588h.113A9.853,9.853,0,0,1-28-29.68a8.4,8.4,0,0,1,5.183,1.657,8.334,8.334,0,0,1,3.03,4.347q3.229-6,9.629-6,9.572,0,9.572,11.81ZM28.08,0H23.435V-4.531h-.113A9.723,9.723,0,0,1,14.4.68,9.534,9.534,0,0,1,7.618-1.614,7.948,7.948,0,0,1,5.168-7.7q0-8.128,9.572-9.459l8.694-1.218q0-7.392-5.976-7.392A14.276,14.276,0,0,0,8-22.2v-4.758a17.972,17.972,0,0,1,9.855-2.719q10.224,0,10.224,10.818ZM23.435-14.67l-7,.963a11.357,11.357,0,0,0-4.871,1.6Q9.926-10.96,9.926-8.043a4.426,4.426,0,0,0,1.515,3.469,5.855,5.855,0,0,0,4.036,1.345A7.455,7.455,0,0,0,21.184-5.65a8.651,8.651,0,0,0,2.251-6.131ZM51.084-24.3a5.679,5.679,0,0,0-3.512-.935,5.927,5.927,0,0,0-4.97,2.8,12.963,12.963,0,0,0-2,7.646V0H35.961V-29h4.645v5.976h.113a10.126,10.126,0,0,1,3.03-4.772,6.91,6.91,0,0,1,4.56-1.713,7.582,7.582,0,0,1,2.775.4ZM68.707-.283a8.955,8.955,0,0,1-4.333.906q-7.618,0-7.618-8.5V-25.035H51.771V-29h4.984v-7.08l4.645-1.5V-29h7.307v3.965H61.4V-8.694a6.774,6.774,0,0,0,.991,4.163,3.955,3.955,0,0,0,3.285,1.246,4.883,4.883,0,0,0,3.03-.963Z" transform="translate(217 92.776)"/><path class="b" d="M-19.071-36.307H-30.8V0h-4.758V-36.307h-11.7v-4.3h28.179ZM3.451-13.339H-17.024q.113,4.843,2.605,7.477A8.982,8.982,0,0,0-7.565-3.229,14.249,14.249,0,0,0,1.44-6.457V-2.1Q-2.383.68-8.67.68q-6.146,0-9.657-3.951t-3.512-11.116A15.858,15.858,0,0,1-18-25.417a12.3,12.3,0,0,1,9.53-4.262Q-2.779-29.68.336-26T3.451-15.774Zm-4.758-3.937a9.45,9.45,0,0,0-1.94-6.259,6.61,6.61,0,0,0-5.31-2.237,7.5,7.5,0,0,0-5.579,2.351,10.667,10.667,0,0,0-2.832,6.146ZM14.249,0H9.6V-42.934h4.645Zm31.84-13.339H25.613q.113,4.843,2.605,7.477a8.982,8.982,0,0,0,6.854,2.634,14.249,14.249,0,0,0,9.006-3.229V-2.1Q40.255.68,33.968.68q-6.146,0-9.657-3.951T20.8-14.387a15.858,15.858,0,0,1,3.837-11.031,12.3,12.3,0,0,1,9.53-4.262q5.692,0,8.808,3.682t3.115,10.224Zm-4.758-3.937a9.45,9.45,0,0,0-1.94-6.259,6.61,6.61,0,0,0-5.31-2.237A7.5,7.5,0,0,0,28.5-23.421a10.667,10.667,0,0,0-2.832,6.146Z" transform="translate(335 92.776)"/><path class="c" d="M-25.629,0H-27.6V-7.664h-8.7V0h-1.969V-16.8h1.969v7.371h8.7V-16.8h1.969Zm12.712,0h-8.906V-16.8h8.531v1.781h-6.562v5.59h6.07v1.77h-6.07v5.883h6.938ZM2.726,0H.546L-1.235-4.711H-8.36L-10.036,0h-2.191l6.445-16.8h2.039ZM-1.88-6.48l-2.637-7.16a6.856,6.856,0,0,1-.258-1.125h-.047a6.277,6.277,0,0,1-.27,1.125L-7.7-6.48ZM13.317,0H4.6V-16.8H6.567V-1.781h6.75ZM23.592-15.023H18.741V0H16.772V-15.023h-4.84V-16.8h11.66ZM38.262,0H36.293V-7.664H27.6V0H25.629V-16.8H27.6v7.371h8.7V-16.8h1.969Z" transform="translate(340.232 120.704)"/></g></svg>