<svg width="17" height="14" viewBox="0 0 17 14" fill="none" xmlns="http://www.w3.org/2000/svg">
<path fill-rule="evenodd" clip-rule="evenodd" d="M10.8891 0.0637813C11.291 -0.00482925 11.7412 -0.0277415 12.1648 0.043674C12.9214 0.17122 13.6202 0.521624 14.1727 1.04697C14.5338 1.0551 14.8887 0.984217 15.2027 0.883161C15.4684 0.797634 15.693 0.694356 15.8502 0.612705C15.9284 0.572105 15.9888 0.537468 16.0281 0.514021C16.0477 0.502312 16.0621 0.493456 16.0705 0.488106L16.078 0.483324C16.3127 0.32754 16.6252 0.357858 16.8252 0.556024C17.0251 0.754228 17.0574 1.06539 16.9022 1.3001C16.7379 1.54853 16.5099 1.99139 16.2545 2.48758C16.2143 2.56559 16.1735 2.64493 16.1321 2.72503C15.9856 3.00865 15.8354 3.2953 15.6953 3.54123C15.6074 3.69564 15.5134 3.85242 15.4186 3.98789V4.2036C15.4246 4.99594 15.3334 5.78413 15.1483 6.55092C15.0319 7.03343 14.8782 7.50743 14.6883 7.96867C14.1962 9.1636 13.47 10.2489 12.5522 11.1611C11.6344 12.0733 10.5434 12.7941 9.34298 13.2815C8.14357 13.7683 6.85888 14.0124 5.56384 13.9995C3.68649 14.0012 1.84862 13.4622 0.271409 12.4474C0.0391026 12.298 -0.0587062 12.0083 0.0356552 11.7493C0.130009 11.4903 0.391491 11.3307 0.665917 11.3645C0.90341 11.3938 1.14252 11.4081 1.38183 11.4073C2.24167 11.4049 3.08513 11.2156 3.85516 10.8589C3.6104 10.7479 3.37672 10.6111 3.15837 10.4497C2.51655 9.97546 2.03904 9.31362 1.79229 8.55637C1.72817 8.35963 1.772 8.14374 1.90786 7.98726C1.91029 7.98443 1.91275 7.98167 1.91523 7.97891C1.77011 7.85001 1.63433 7.70961 1.50932 7.55864C0.946891 6.87931 0.637191 6.0272 0.632621 5.14654L0.632605 5.14349L0.632613 5.10409C0.632613 4.89462 0.743904 4.70079 0.925131 4.59465C0.971078 4.56774 1.01977 4.54748 1.06986 4.5339C0.802344 4.002 0.663221 3.41467 0.664241 2.81881C0.663925 2.14376 0.840882 1.48037 1.17753 0.894562C1.27471 0.725454 1.44932 0.614959 1.64425 0.599216C1.83917 0.583482 2.02936 0.664518 2.1526 0.815834C2.91369 1.7503 3.86354 2.51476 4.94045 3.05957C5.49404 3.33964 6.07485 3.55843 6.67246 3.71321C7.0075 3.79998 7.34782 3.86662 7.69161 3.91266C7.67643 3.3428 7.78934 2.77325 8.02639 2.24698C8.37406 1.47498 8.96898 0.839787 9.718 0.441037C10.0352 0.272166 10.4562 0.137663 10.8891 0.0637813ZM1.97147 6.01049C2.07399 6.298 2.22649 6.5677 2.4242 6.80651C2.81269 7.27571 3.3519 7.59686 3.95063 7.71552C4.21732 7.76838 4.41375 7.99522 4.42722 8.26587C4.44067 8.53643 4.26771 8.78155 4.00758 8.86042C3.79212 8.92573 3.57137 8.97127 3.34812 8.99657C3.49565 9.18606 3.66919 9.35585 3.86481 9.50035C4.30853 9.8282 4.84379 10.0101 5.3961 10.0207C5.64668 10.0255 5.86718 10.1868 5.94691 10.4235C6.02663 10.6604 5.94836 10.9215 5.75139 11.0759C4.92182 11.7264 3.96255 12.1799 2.94607 12.4115C3.78855 12.6803 4.6721 12.8188 5.56582 12.8177H5.5727C6.71135 12.8294 7.8409 12.6151 8.89544 12.1869C9.95007 11.7589 10.9084 11.1256 11.7147 10.3243C12.5209 9.52304 13.1587 8.56968 13.5911 7.51996C13.7579 7.11474 13.8929 6.69841 13.9952 6.2746C14.1579 5.60031 14.238 4.90722 14.2326 4.21051V4.20588V3.78829C14.2326 3.64501 14.2848 3.50661 14.3795 3.39885C14.4343 3.33656 14.5302 3.19273 14.6638 2.95802C14.7908 2.73494 14.9314 2.46713 15.0776 2.18412C15.0864 2.16701 15.0953 2.1498 15.1042 2.13252C14.725 2.21457 14.2952 2.25759 13.8446 2.20907C13.702 2.1937 13.5697 2.12729 13.4724 2.02215C13.0748 1.59248 12.5453 1.30647 11.967 1.20897C11.7104 1.16571 11.4001 1.17561 11.0893 1.22866C10.7516 1.28631 10.4577 1.38717 10.2769 1.48343C9.75951 1.75886 9.34859 2.1976 9.10846 2.73084C8.86832 3.26408 8.81258 3.86167 8.95 4.42987C8.99381 4.61101 8.94937 4.80214 8.82998 4.94556C8.71058 5.08899 8.5303 5.1679 8.34354 5.15849C7.67667 5.12488 7.01684 5.02351 6.37411 4.85706C5.69419 4.68097 5.03339 4.43203 4.40354 4.11339C3.47623 3.64426 2.63173 3.03199 1.90046 2.30106C1.8671 2.47094 1.85016 2.6443 1.85028 2.81879V2.82029C1.84945 3.2542 1.95631 3.68159 2.16135 4.06439C2.36638 4.44719 2.66323 4.77353 3.02546 5.01436C3.24529 5.16052 3.34154 5.43399 3.26147 5.68493C3.18142 5.93588 2.94437 6.10378 2.68019 6.09661C2.44094 6.09015 2.20368 6.06116 1.97147 6.01049Z" fill="#01385f"/>
</svg>
