<svg xmlns="http://www.w3.org/2000/svg" width="415" height="415.001" viewBox="0 0 415 415.001"><defs><style>.a{fill:#c7c2c9;}.b{fill:#655e67;}.c{fill:#544f56;}.d{fill:#ecf5ff;}.e{fill:#dceafc;}.f{fill:#0754ed;}.g{fill:#1cc1d6;}.h{fill:#f1ccbd;}.i{fill:#eaad9c;}.j{fill:#c17d4f;}.k{fill:#b16e3d;}.l{fill:#dfdce0;}.m{fill:#f1eff1;}</style></defs><path class="a" d="M225.89,418.064H274.7v63.614H225.89Z" transform="translate(-42.795 -79.203)"/><path class="b" d="M389.95,372.11H25.05A25.051,25.051,0,0,1,0,347.059V134.439a25.05,25.05,0,0,1,25.05-25.05h364.9A25.05,25.05,0,0,1,415,134.439V347.06A25.049,25.049,0,0,1,389.95,372.11Z" transform="translate(0 -20.724)"/><path class="c" d="M475.24,109.388H450.19a25.05,25.05,0,0,1,25.05,25.05V347.059a25.05,25.05,0,0,1-25.05,25.05h25.05a25.05,25.05,0,0,0,25.05-25.05V134.439a25.051,25.051,0,0,0-25.05-25.051Z" transform="translate(-85.29 -20.724)"/><path class="d" d="M30.905,350.41V142.8a2.506,2.506,0,0,1,2.505-2.505H393.3a2.506,2.506,0,0,1,2.505,2.505V350.41a2.506,2.506,0,0,1-2.505,2.505H33.41a2.506,2.506,0,0,1-2.505-2.505Z" transform="translate(-5.855 -26.579)"/><path class="e" d="M472.149,140.294H447.1A2.506,2.506,0,0,1,449.6,142.8V350.411a2.506,2.506,0,0,1-2.505,2.505h25.05a2.506,2.506,0,0,0,2.505-2.505V142.8A2.505,2.505,0,0,0,472.149,140.294Z" transform="translate(-84.704 -26.579)"/><path class="b" d="M280.293,481.1H203.133a22.545,22.545,0,0,0-22.545,22.545,2.505,2.505,0,0,0,2.505,2.505h117.24a2.506,2.506,0,0,0,2.505-2.505,22.546,22.546,0,0,0-22.546-22.545Z" transform="translate(-34.213 -91.145)"/><path class="c" d="M297.742,481.1h-25.05a22.545,22.545,0,0,1,22.545,22.545,2.505,2.505,0,0,1-2.505,2.505h25.05a2.506,2.506,0,0,0,2.505-2.505,22.545,22.545,0,0,0-22.545-22.545Z" transform="translate(-51.662 -91.145)"/><g transform="translate(78.138)"><path class="f" d="M355.126,364.411V296.677a41.73,41.73,0,0,0-28.449-39.549l-60.45-20.32a13.911,13.911,0,0,1-9.483-13.183v-22.65h-61.96v22.65a13.909,13.909,0,0,1-9.483,13.183l-60.45,20.32A41.731,41.731,0,0,0,96.4,296.677v67.733Z" transform="translate(-96.401 -38.075)"/><g transform="translate(98.383 162.901)"><path class="g" d="M349.672,257.128l-60.45-20.32a13.91,13.91,0,0,1-9.483-13.183v-22.65h-61.96V213.5h36.909v22.65a13.91,13.91,0,0,0,9.483,13.183l60.45,20.32A41.731,41.731,0,0,1,353.071,309.2v55.208h25.05V296.677A41.731,41.731,0,0,0,349.672,257.128Z" transform="translate(-217.779 -200.976)"/></g><path class="h" d="M205.5,236.967l38.087,38.048a5.01,5.01,0,0,0,7.082,0l37.737-37.7-1.51-.508a13.91,13.91,0,0,1-9.483-13.183v-22.65h-61.96v22.65a13.91,13.91,0,0,1-9.483,13.183Z" transform="translate(-117.07 -38.075)"/><path class="i" d="M263.315,236.151a13.91,13.91,0,0,0,9.483,13.183l10.873,3.655,15.688-15.672-1.51-.508a13.91,13.91,0,0,1-9.483-13.183v-22.65h-25.05v35.175Z" transform="translate(-128.023 -38.075)"/><g transform="translate(56.605)"><path class="j" d="M311.752,85.248H166.236V31.589A31.589,31.589,0,0,1,197.825,0h82.338a31.59,31.59,0,0,1,31.589,31.589V85.248Z" transform="translate(-166.236 0)"/><path class="k" d="M300.936,0h-25.05a31.59,31.59,0,0,1,31.589,31.589V85.248h25.05V31.589A31.589,31.589,0,0,0,300.936,0Z" transform="translate(-187.009)"/><g transform="translate(0 48.757)"><path class="h" d="M238.737,186.1c-40.212-.139-72.5-33.3-72.5-73.473V87.173a160.518,160.518,0,0,0,60.4-11.488,158.162,158.162,0,0,0,28.342-14.907,3.793,3.793,0,0,1,5.089.858A66.109,66.109,0,0,0,280.2,78.9a66.35,66.35,0,0,0,31.553,8.269v26.239A72.688,72.688,0,0,1,269.975,179.2c-4.2,1.979-14.442-.142-14.442-.142s-6.685,6.5-10.794,6.818q-2.97.231-6,.222Z" transform="translate(-166.236 -60.153)"/></g><g transform="translate(28.659 70.644)"><path class="i" d="M293.4,87.156V106a72.721,72.721,0,0,1-73.015,72.683,71.936,71.936,0,0,1-18.793-2.556,71.823,71.823,0,0,0,43.843,15.081,72.721,72.721,0,0,0,73.015-72.683V92.289A66.7,66.7,0,0,1,293.4,87.156Z" transform="translate(-201.593 -87.156)"/></g></g><path class="l" d="M347.693,317.528A6.285,6.285,0,0,0,356,314.465a74.968,74.968,0,0,0,4.383-50.861l-14.912-5.012a62.588,62.588,0,0,1-.843,50.626,6.262,6.262,0,0,0,3.062,8.31Z" transform="translate(-143.319 -48.991)"/><path class="a" d="M345.806,258.592a63.235,63.235,0,0,1,4.9,22.645,41.675,41.675,0,0,1,12.332,7.457c.114-1.46.19-2.921.216-4.379a75.487,75.487,0,0,0-2.536-20.709Z" transform="translate(-143.651 -48.991)"/><path class="l" d="M154.132,302.712a6.266,6.266,0,0,0,5.9,4.173,6.356,6.356,0,0,0,5.9-8.356,56.9,56.9,0,0,1-3.221-16.3,58.113,58.113,0,0,1,4.641-25.377l-14.908,5.011a68.848,68.848,0,0,0,1.681,40.854Z" transform="translate(-106.58 -48.66)"/><g transform="translate(21.528 245.697)"><path class="m" d="M176.241,366.236h-5.851a6.262,6.262,0,0,1,0-12.525h3.9V335.052a19.4,19.4,0,1,0-38.8,0v18.659h3.9a6.262,6.262,0,0,1,0,12.525h-5.851a10.586,10.586,0,0,1-10.574-10.574V335.052a31.927,31.927,0,0,1,63.853,0v20.611a10.586,10.586,0,0,1-10.574,10.574Z" transform="translate(-122.961 -303.125)"/></g><ellipse class="m" cx="22.481" cy="22.459" rx="22.481" ry="22.459" transform="translate(185.972 257.628)"/></g></svg>