<svg width="55" height="63" viewBox="0 0 55 63" fill="none" xmlns="http://www.w3.org/2000/svg">
<path opacity="0.7" d="M13.0404 58.9748L12.9177 59.5006H12.8717L12.749 58.9594L10.6176 51.7072H8.53207L11.8903 61.65H13.9145L17.2727 51.7072H15.1872L13.0404 58.9748ZM18.1774 50.9958H20.1556V52.4958H18.1774V50.9958ZM18.1774 54.2586H20.1556V61.65H18.1774V54.2586ZM25.0779 60.2119C24.9866 60.2257 24.8942 60.2308 24.8019 60.2274C24.7143 60.2312 24.6268 60.2167 24.545 60.1848C24.4631 60.1528 24.3888 60.1041 24.3265 60.0418C24.2039 59.9181 24.1425 59.7171 24.1425 59.4233V55.6657H25.3846V54.2586H24.1425V52.4494H22.1644V54.2586H21.091V55.6657H22.1644V59.4387C22.1644 60.2583 22.3484 60.8613 22.7164 61.2325C23.0844 61.6036 23.6058 61.8046 24.2959 61.8046C24.5012 61.8057 24.7063 61.7902 24.9092 61.7582C25.1066 61.7193 25.3012 61.6676 25.492 61.6036L25.3233 60.1655C25.2313 60.181 25.1546 60.1964 25.0779 60.2119ZM29.6629 54.1194C28.6202 54.1194 27.8075 54.4596 27.2094 55.1709C26.6114 55.8822 26.32 56.7791 26.32 57.8924V58.1708C26.32 59.2377 26.6267 60.1036 27.2401 60.784C27.8535 61.4644 28.7122 61.8046 29.8009 61.8046C30.3576 61.8127 30.9118 61.7292 31.4417 61.5572C31.8715 61.4262 32.276 61.2223 32.6378 60.9541L32.1011 59.7171C31.7956 59.8922 31.4715 60.0323 31.135 60.1346C30.7653 60.2351 30.3832 60.282 30.0003 60.2737C29.4636 60.2737 29.0649 60.1191 28.7889 59.8098C28.4993 59.4629 28.3368 59.0262 28.3288 58.5728L28.3442 58.5264H32.7145V57.4904C32.7145 56.4543 32.4538 55.6503 31.9324 55.0317C31.3957 54.4287 30.6443 54.1194 29.6629 54.1194ZM30.7823 57.1966H28.3748L28.3595 57.1656C28.3829 56.7707 28.5157 56.3903 28.7429 56.0678C28.8519 55.929 28.9924 55.8187 29.1525 55.746C29.3126 55.6734 29.4876 55.6405 29.6629 55.6503C30.0616 55.6503 30.3376 55.774 30.5216 56.0214C30.7088 56.3272 30.7997 56.683 30.7823 57.0419V57.1966ZM39.0936 58.0625C38.6489 57.7069 37.9895 57.444 37.0848 57.2584C36.5021 57.1502 36.1034 57.011 35.9194 56.8719C35.8273 56.8123 35.752 56.7298 35.701 56.6322C35.6499 56.5347 35.6248 56.4254 35.628 56.3152C35.6266 56.2025 35.6507 56.091 35.6985 55.9891C35.7464 55.8873 35.8167 55.7978 35.904 55.7276C36.1189 55.562 36.3855 55.4797 36.6554 55.4956C36.8024 55.4853 36.95 55.5046 37.0895 55.5524C37.2291 55.6002 37.3578 55.6755 37.4681 55.774C37.5626 55.8692 37.6371 55.9826 37.6872 56.1074C37.7372 56.2323 37.7618 56.3661 37.7595 56.5007H39.6763L39.6916 56.4543C39.7028 56.1317 39.6361 55.8111 39.4972 55.5201C39.3583 55.2292 39.1514 54.9767 38.8942 54.7843C38.3422 54.3359 37.5908 54.1194 36.6708 54.1194C35.7814 54.1194 35.076 54.3359 34.5393 54.7843C34.2909 54.9744 34.0897 55.2199 33.9513 55.5016C33.813 55.7834 33.7413 56.0936 33.7419 56.408C33.7318 56.6824 33.7879 56.9553 33.9054 57.2031C34.0229 57.4509 34.1983 57.6662 34.4166 57.8306C34.8613 58.1862 35.5053 58.4491 36.3641 58.6192C36.9314 58.7429 37.3301 58.8821 37.5295 59.0367C37.625 59.0949 37.7046 59.1764 37.7609 59.2736C37.8171 59.3709 37.8483 59.4808 37.8515 59.5934C37.8569 59.7104 37.833 59.827 37.7821 59.9324C37.7312 60.0377 37.6549 60.1285 37.5601 60.1964C37.3608 60.3511 37.0848 60.4129 36.7168 60.4129C36.3805 60.4268 36.0482 60.335 35.766 60.15C35.5207 59.9799 35.398 59.6861 35.3827 59.2841H33.5732L33.5579 59.3305C33.5272 59.9645 33.8032 60.5366 34.3706 61.0314C34.938 61.5263 35.7047 61.7737 36.6861 61.7737C37.6061 61.7737 38.3575 61.5572 38.9249 61.1397C39.1892 60.9584 39.4047 60.7137 39.5519 60.4276C39.6991 60.1414 39.7735 59.8229 39.7683 59.5006C39.7684 59.2255 39.7079 58.9538 39.5912 58.7051C39.4745 58.4564 39.3046 58.2369 39.0936 58.0625ZM46.2394 58.0625C45.7947 57.7069 45.1354 57.444 44.2306 57.2584C43.6479 57.1502 43.2492 57.011 43.0652 56.8719C42.9731 56.8123 42.8979 56.7298 42.8468 56.6322C42.7957 56.5347 42.7706 56.4254 42.7739 56.3152C42.7724 56.2025 42.7965 56.091 42.8444 55.9891C42.8922 55.8873 42.9625 55.7978 43.0499 55.7276C43.2647 55.562 43.5313 55.4797 43.8013 55.4956C43.9483 55.4853 44.0958 55.5046 44.2354 55.5524C44.3749 55.6002 44.5036 55.6755 44.614 55.774C44.7085 55.8692 44.783 55.9826 44.833 56.1074C44.8831 56.2323 44.9077 56.3661 44.9053 56.5007H46.8221L46.8375 56.4543C46.8487 56.1317 46.782 55.8111 46.6431 55.5201C46.5042 55.2292 46.2972 54.9767 46.0401 54.7843C45.488 54.3359 44.7367 54.1194 43.8166 54.1194C42.9272 54.1194 42.2218 54.3359 41.6851 54.7843C41.4368 54.9744 41.2355 55.2199 41.0972 55.5016C40.9588 55.7834 40.8871 56.0936 40.8877 56.408C40.8776 56.6824 40.9337 56.9553 41.0512 57.2031C41.1688 57.4509 41.3442 57.6662 41.5624 57.8306C42.0071 58.1862 42.6512 58.4491 43.5099 58.6192C44.0773 58.7429 44.476 58.8821 44.6753 59.0367C44.7709 59.0949 44.8504 59.1764 44.9067 59.2736C44.963 59.3709 44.9941 59.4808 44.9973 59.5934C45.0027 59.7104 44.9788 59.827 44.9279 59.9324C44.877 60.0377 44.8007 60.1285 44.706 60.1964C44.5066 60.3511 44.2306 60.4129 43.8626 60.4129C43.5263 60.4268 43.1941 60.335 42.9119 60.15C42.6665 59.9799 42.5438 59.6861 42.5285 59.2841H40.719L40.7037 59.3305C40.673 59.9645 40.9491 60.5366 41.5164 61.0314C42.0838 61.5263 42.8505 61.7737 43.8319 61.7737C44.752 61.7737 45.5034 61.5572 46.0708 61.1397C46.3351 60.9584 46.5505 60.7137 46.6978 60.4276C46.845 60.1414 46.9193 59.8229 46.9142 59.5006C46.9176 59.2249 46.8586 58.9521 46.7417 58.7029C46.6248 58.4536 46.453 58.2346 46.2394 58.0625Z" fill="#666666"/>
<path d="M30.9469 30.8114L30.9519 30.7857L32.6384 20.8281L30.9469 30.8114ZM43.1291 20.8044L37.6554 30.7801L27.3075 49.6825L27.308 49.6832L37.6577 30.7777L43.1318 20.8033L49.1119 9.86499L43.1291 20.8044ZM10.3532 18.2861L17.0637 11.0238L10.3532 18.2861ZM11.7816 20.916L19.1923 14.98L11.7816 20.916ZM11.7816 20.916L11.2844 20.0022L11.7804 20.916L17.0531 30.6762L17.9092 32.268L17.0523 30.6741L11.7816 20.916Z" fill="#284E64"/>
<path d="M13.6303 17.4538L17.0637 11.0237L19.1923 14.98L23.3195 22.6571L19.1947 14.9788L17.0643 11.0206L11.758 1.23804H11.7569L17.0637 11.0237L13.6303 17.4538ZM29.0765 33.344L29.1007 33.3893L30.0943 35.2312L29.0765 33.344ZM36.0903 14.5207L32.6366 20.8258L28.7947 27.9599L32.6384 20.828L36.0903 14.5207Z" fill="#284E64"/>
<path opacity="0.6" d="M22.3196 40.4721L27.3063 49.6843L30.0507 35.4568L22.3196 40.4721Z" fill="#666666"/>
<path opacity="0.1" d="M30.0943 35.2311L29.1008 33.3893L25.6944 27.0745L22.3196 40.4722L30.0507 35.4569L30.0943 35.2311Z" fill="#666666"/>
<path opacity="0.2" d="M17.0523 30.674L17.9092 32.2679L22.3196 40.4722L25.6944 27.0745L17.0523 30.674Z" fill="#666666"/>
<path opacity="0.6" d="M17.0523 30.674L25.6944 27.0745L23.3195 22.6571L19.1923 14.98L17.0523 30.674Z" fill="#666666"/>
<path opacity="0.4" d="M30.9469 30.8112L32.6384 20.8279L28.7947 27.9598L27.484 30.3917L29.0765 33.3439L30.0943 35.231L30.9469 30.8112Z" fill="#666666"/>
<path opacity="0.2" d="M11.7816 20.916L17.0523 30.674L19.1923 14.98L11.7816 20.916Z" fill="#666666"/>
<path opacity="0.1" d="M37.6554 30.78L43.1291 20.8043L30.9519 30.7856L37.6554 30.78ZM17.0637 11.0237L13.6303 17.4537L11.7816 20.9159L19.1923 14.9799L17.0637 11.0237ZM30.9519 30.7856L37.9693 11.0882L36.0903 14.5207L32.6384 20.8279L30.9519 30.7856Z" fill="#666666"/>
<path opacity="0.75" d="M11.7816 20.9159L13.6303 17.4537L17.0637 11.0237L10.3532 18.286L10.3518 18.2873L11.2844 20.0021L11.7816 20.9159Z" fill="#666666"/>
<path opacity="0.4" d="M43.1292 20.8043L37.9693 11.0882L30.9519 30.7856L43.1292 20.8043ZM10.3532 18.2859L17.0637 11.0237L11.7569 1.23796L11.7561 1.23657L10.3518 18.2873L10.3532 18.2859Z" fill="#666666"/>
<path opacity="0.2" d="M43.1292 20.8043L43.3176 1.23796V1.23657L43.3168 1.23796L41.5592 4.47595L37.9693 11.0882L43.1292 20.8043ZM11.7561 1.23657H1.19916L10.3518 18.2873L11.7561 1.23657Z" fill="#666666"/>
<path opacity="0.75" d="M43.3176 1.23657V1.23796L43.1292 20.8043L49.1119 9.86486L53.8303 1.23657H43.3176ZM30.9519 30.7856L30.9469 30.8113L30.0943 35.2311L30.0507 35.4568L27.3063 49.6843L27.3076 49.6823L37.6554 30.78L30.9519 30.7856Z" fill="#666666"/>
</svg>
