<svg width="138" height="138" viewBox="0 0 138 138" fill="none" xmlns="http://www.w3.org/2000/svg">
<g filter="url(#filter0_d_767_1881)">
<rect x="34" y="10" width="70" height="70" rx="35" fill="#17a2b8"/>
<path d="M61.0498 45C61.0554 46.6624 61.2636 48.318 61.6698 49.93H68.1498V40.45H61.5798C61.2341 41.9422 61.0564 43.4683 61.0498 45Z" fill="white"/>
<path d="M69.8501 40.45V49.93H76.3301C76.7531 48.3201 76.9781 46.6645 77.0001 45C76.9968 43.4687 76.8224 41.9426 76.4801 40.45H69.8501Z" fill="white"/>
<path d="M69 29C65.8355 29 62.7421 29.9384 60.1109 31.6965C57.4797 33.4546 55.4289 35.9534 54.2179 38.8771C53.0069 41.8007 52.6901 45.0177 53.3074 48.1214C53.9248 51.2251 55.4487 54.0761 57.6863 56.3137C59.9239 58.5513 62.7749 60.0752 65.8786 60.6926C68.9823 61.3099 72.1993 60.9931 75.1229 59.7821C78.0466 58.5711 80.5454 56.5203 82.3035 53.8891C84.0616 51.2579 85 48.1645 85 45C85 40.7565 83.3143 36.6869 80.3137 33.6863C77.3131 30.6857 73.2435 29 69 29ZM81.22 51.71H77.6C76.9156 53.8528 75.9036 55.8768 74.6 57.71C73.6381 58.1292 72.6316 58.4379 71.6 58.63C73.4475 56.6225 74.8694 54.2618 75.78 51.69H69.86V58.84H68.17V51.71H62.22C63.1294 54.2853 64.5514 56.6496 66.4 58.66C65.3897 58.47 64.4036 58.1681 63.46 57.76C62.1518 55.9114 61.1397 53.8702 60.46 51.71H56.78C56.4605 51.1272 56.1832 50.5223 55.95 49.9H59.95C59.5752 48.2933 59.3807 46.6498 59.37 45C59.3706 43.4707 59.5314 41.9457 59.85 40.45H55.76C55.9703 39.8295 56.2243 39.2246 56.52 38.64H60.33C61.0449 36.259 62.1536 34.0147 63.61 32C64.5336 31.6173 65.4958 31.3357 66.48 31.16C64.4907 33.295 62.9893 35.8371 62.08 38.61H68.17V31H69.86V38.64H75.95C75.0423 35.8715 73.5445 33.3331 71.56 31.2C72.5426 31.363 73.5048 31.6312 74.43 32C75.878 34.0001 76.9831 36.2272 77.7 38.59H81.47C81.7657 39.1747 82.0197 39.7795 82.23 40.4H78.17C78.4954 41.9117 78.6597 43.4537 78.66 45C78.6549 46.6595 78.4637 48.3131 78.09 49.93H82.09C81.8426 50.5432 81.5519 51.1381 81.22 51.71Z" fill="white"/>
</g>
<defs>
<filter id="filter0_d_767_1881" x="0" y="0" width="138" height="138" filterUnits="userSpaceOnUse" color-interpolation-filters="sRGB">
<feFlood flood-opacity="0" result="BackgroundImageFix"/>
<feColorMatrix in="SourceAlpha" type="matrix" values="0 0 0 0 0 0 0 0 0 0 0 0 0 0 0 0 0 0 127 0" result="hardAlpha"/>
<feOffset dy="24"/>
<feGaussianBlur stdDeviation="17"/>
<feComposite in2="hardAlpha" operator="out"/>
<feColorMatrix type="matrix" values="0 0 0 0 0.227451 0 0 0 0 0.764706 0 0 0 0 0.839216 0 0 0 0.4 0"/>
<feBlend mode="normal" in2="BackgroundImageFix" result="effect1_dropShadow_767_1881"/>
<feBlend mode="normal" in="SourceGraphic" in2="effect1_dropShadow_767_1881" result="shape"/>
</filter>
</defs>
</svg>
